<svg width="750" height="500" viewBox="0 0 750 500" fill="none" xmlns="http://www.w3.org/2000/svg">
<path d="M605.37 94.6799C606.065 99.3787 605.35 104.178 603.316 108.47C601.282 112.763 598.02 116.355 593.943 118.792C589.866 121.229 585.157 122.402 580.414 122.162C575.67 121.921 571.104 120.278 567.294 117.442C563.484 114.605 560.602 110.701 559.013 106.225C557.423 101.749 557.197 96.9019 558.364 92.2975C559.53 87.6931 562.037 83.5384 565.566 80.3595C569.096 77.1806 573.489 75.1205 578.19 74.4399C584.477 73.5299 590.868 75.1493 595.963 78.9432C601.057 82.7371 604.44 88.3961 605.37 94.6799Z" fill="#F5F5F5"/>
<path d="M599.73 95.5C600.26 99.0802 599.716 102.737 598.167 106.008C596.618 109.279 594.133 112.017 591.027 113.875C587.921 115.733 584.334 116.627 580.719 116.446C577.104 116.264 573.625 115.014 570.721 112.854C567.817 110.694 565.619 107.721 564.406 104.311C563.192 100.901 563.018 97.2084 563.904 93.6994C564.791 90.1904 566.698 87.0233 569.385 84.5989C572.073 82.1745 575.419 80.6019 579 80.08C583.794 79.3761 588.671 80.6053 592.558 83.497C596.446 86.3888 599.026 90.7063 599.73 95.5Z" fill="#EBEBEB"/>
<path d="M599.64 94.93C599.302 94.2591 599.034 93.5555 598.84 92.83C597.697 89.6286 595.707 86.7977 593.08 84.64C591.859 83.65 590.514 82.8231 589.08 82.18C588.311 81.8224 587.515 81.5248 586.7 81.29C585.851 81.0433 584.986 80.8595 584.11 80.74C583.205 80.6208 582.293 80.5673 581.38 80.58C580.438 80.6093 579.499 80.7029 578.57 80.86C577.644 81.0281 576.731 81.2655 575.84 81.57C574.971 81.8634 574.129 82.2279 573.32 82.66C572.538 83.0711 571.789 83.5425 571.08 84.07C570.395 84.5654 569.75 85.1138 569.15 85.71C568.027 86.8127 567.053 88.0564 566.25 89.41C565.552 90.5946 564.985 91.8521 564.56 93.16C563.956 95.0718 563.649 97.065 563.65 99.07C563.729 99.8179 563.729 100.572 563.65 101.32C563.319 100.626 563.141 99.8688 563.13 99.1C562.911 97.0136 563.081 94.9047 563.63 92.88C564.458 89.8378 566.048 87.0569 568.25 84.8C568.871 84.1509 569.539 83.5492 570.25 83C571.794 81.8192 573.515 80.8909 575.35 80.25C576.311 79.9255 577.293 79.6682 578.29 79.48C579.282 79.3116 580.284 79.2147 581.29 79.19C582.277 79.1752 583.264 79.2421 584.24 79.39C585.186 79.5207 586.119 79.7315 587.03 80.02C587.902 80.2854 588.751 80.6198 589.57 81.02C591.088 81.7414 592.502 82.6666 593.77 83.77C594.886 84.7264 595.886 85.8105 596.75 87C597.966 88.712 598.854 90.6344 599.37 92.67C599.619 93.3956 599.711 94.166 599.64 94.93Z" fill="#E0E0E0"/>
<path d="M585.25 108.62L585.75 111.77L582.94 112.22L582.45 109.16C579.94 109.467 577.394 109.065 575.1 108L576.1 104.33C577.891 105.196 579.875 105.581 581.86 105.45L581.11 100.76C577.87 100.5 574.23 100.02 573.58 96C573.11 93 574.86 90.13 579.21 88.91L578.72 85.79L581.52 85.34L582.01 88.41C584.045 88.1931 586.103 88.4674 588.01 89.21L587.16 92.88C585.715 92.3307 584.176 92.0691 582.63 92.11L583.39 96.89C586.63 97.12 590.22 97.61 590.85 101.57C591.3 104.52 589.57 107.39 585.25 108.62ZM580.45 96.62L579.81 92.62C578.38 93.19 577.92 94.1 578.07 95.03C578.22 95.96 579.15 96.47 580.45 96.66V96.62ZM586.36 102.62C586.21 101.62 585.31 101.23 584.03 101L584.65 104.88C586 104.38 586.51 103.56 586.36 102.66V102.62Z" fill="#E0E0E0"/>
<path d="M530.61 98.93C531.815 107.083 530.573 115.411 527.043 122.858C523.512 130.306 517.851 136.538 510.777 140.767C503.703 144.996 495.533 147.031 487.301 146.614C479.07 146.198 471.147 143.348 464.536 138.426C457.925 133.505 452.923 126.732 450.163 118.967C447.402 111.201 447.008 102.79 449.03 94.8003C451.052 86.8102 455.399 79.5996 461.52 74.0812C467.642 68.5629 475.264 64.9848 483.42 63.8C494.336 62.201 505.441 65.0038 514.29 71.5919C523.14 78.18 529.011 88.0138 530.61 98.93Z" fill="#F5F5F5"/>
<path d="M520.8 100.35C521.717 106.562 520.771 112.906 518.081 118.58C515.392 124.254 511.08 129.003 505.691 132.225C500.302 135.448 494.078 137 487.807 136.685C481.536 136.37 475.499 134.202 470.46 130.455C465.422 126.708 461.608 121.551 459.501 115.636C457.394 109.721 457.088 103.314 458.623 97.2253C460.158 91.1368 463.465 85.6404 468.124 81.4314C472.784 77.2224 478.587 74.4901 484.8 73.58C488.922 72.9709 493.123 73.1804 497.164 74.1965C501.205 75.2126 505.006 77.0154 508.35 79.5017C511.693 81.988 514.514 85.1091 516.65 88.6865C518.787 92.2638 520.197 96.2272 520.8 100.35Z" fill="#EBEBEB"/>
<path d="M520.65 99.37C520.46 99.37 520.13 98.05 519.27 95.71C518.082 92.4373 516.395 89.3678 514.27 86.61C512.795 84.7322 511.118 83.022 509.27 81.51C507.151 79.7914 504.823 78.3498 502.34 77.22C500.999 76.6087 499.616 76.0973 498.2 75.69C496.732 75.2404 495.23 74.9061 493.71 74.69C492.136 74.4754 490.548 74.3818 488.96 74.41C485.682 74.4626 482.435 75.0399 479.34 76.12C477.844 76.6503 476.393 77.2991 475 78.06C473.644 78.7742 472.343 79.5898 471.11 80.5C469.924 81.3733 468.801 82.329 467.75 83.36C465.815 85.277 464.135 87.4347 462.75 89.78C461.541 91.8376 460.558 94.0204 459.82 96.29C458.77 99.6121 458.237 103.076 458.24 106.56C458.24 109.04 458.4 110.43 458.24 110.46C458.08 110.49 457.63 109.15 457.33 106.61C456.947 102.984 457.242 99.3181 458.2 95.8C459.621 90.5242 462.376 85.7029 466.2 81.8C467.296 80.6587 468.483 79.6085 469.75 78.66C471.044 77.6705 472.411 76.7813 473.84 76C475.346 75.1777 476.918 74.482 478.54 73.92C480.207 73.3436 481.915 72.8923 483.65 72.57C485.388 72.2739 487.147 72.1101 488.91 72.08C490.623 72.0528 492.335 72.1631 494.03 72.41C495.666 72.6456 497.281 73.0101 498.86 73.5C500.371 73.9629 501.845 74.5379 503.27 75.22C505.907 76.4775 508.363 78.0853 510.57 80C512.472 81.6673 514.171 83.5537 515.63 85.62C517.745 88.5885 519.288 91.9256 520.18 95.46C520.78 97.93 520.79 99.35 520.65 99.37Z" fill="#E0E0E0"/>
<path d="M495.67 123.14L496.54 128.6L491.67 129.37L490.82 124.06C485.95 124.54 481.07 123.77 478.06 122.06L479.78 115.68C482.885 117.2 486.33 117.889 489.78 117.68L488.47 109.54C482.85 109.09 476.52 108.25 475.4 101.28C474.58 96.11 477.62 91.08 485.18 88.97L484.31 83.56L489.19 82.78L490.04 88.09C493.558 87.726 497.112 88.2024 500.41 89.48L499 95.87C496.495 94.9037 493.824 94.4448 491.14 94.52L492.46 102.81C498.08 103.21 504.31 104.06 505.41 110.93C506.17 116 503.17 121 495.67 123.14ZM487.34 102.37L486.24 95.45C483.75 96.45 482.95 98.03 483.24 99.64C483.53 101.25 485.09 102 487.34 102.37ZM497.61 112.78C497.34 111.07 495.77 110.37 493.56 109.97L494.64 116.7C497 115.78 497.86 114.34 497.61 112.78Z" fill="#E0E0E0"/>
<path d="M162.37 240.76C163.067 245.458 162.354 250.258 160.321 254.551C158.289 258.844 155.028 262.437 150.952 264.876C146.876 267.315 142.168 268.489 137.424 268.25C132.681 268.012 128.114 266.371 124.303 263.536C120.493 260.701 117.609 256.798 116.017 252.323C114.426 247.848 114.198 243.001 115.362 238.396C116.527 233.791 119.032 229.636 122.559 226.455C126.087 223.275 130.479 221.213 135.18 220.53C141.467 219.617 147.859 221.234 152.956 225.026C158.053 228.818 161.438 234.476 162.37 240.76Z" fill="#F5F5F5"/>
<path d="M156.72 241.58C157.25 245.161 156.706 248.818 155.157 252.089C153.608 255.361 151.122 258.099 148.016 259.957C144.91 261.815 141.322 262.709 137.707 262.527C134.091 262.345 130.612 261.094 127.708 258.933C124.804 256.772 122.607 253.798 121.394 250.387C120.182 246.977 120.008 243.283 120.896 239.774C121.784 236.265 123.693 233.098 126.382 230.675C129.07 228.251 132.418 226.68 136 226.16C140.792 225.462 145.665 226.693 149.549 229.584C153.434 232.475 156.013 236.79 156.72 241.58Z" fill="#EBEBEB"/>
<path d="M156.63 241C156.293 240.327 156.028 239.619 155.84 238.89C155.15 237.004 154.172 235.236 152.94 233.65C152.094 232.568 151.131 231.582 150.07 230.71C148.849 229.717 147.505 228.887 146.07 228.24C145.301 227.884 144.505 227.59 143.69 227.36C142.843 227.108 141.977 226.924 141.1 226.81C140.196 226.686 139.283 226.632 138.37 226.65C137.428 226.671 136.489 226.761 135.56 226.92C132.848 227.395 130.284 228.494 128.07 230.13C127.387 230.632 126.742 231.183 126.14 231.78C125.018 232.879 124.043 234.12 123.24 235.47C122.543 236.656 121.977 237.913 121.55 239.22C120.945 241.135 120.638 243.132 120.64 245.14C120.725 245.888 120.725 246.642 120.64 247.39C120.311 246.695 120.134 245.939 120.12 245.17C119.9 243.08 120.07 240.968 120.62 238.94C121.005 237.548 121.552 236.205 122.25 234.94C123.069 233.48 124.078 232.135 125.25 230.94C125.868 230.285 126.536 229.679 127.25 229.13C128.801 227.963 130.521 227.039 132.35 226.39C133.312 226.056 134.298 225.796 135.3 225.61C136.292 225.444 137.295 225.35 138.3 225.33C139.303 225.315 140.307 225.378 141.3 225.52C142.242 225.656 143.172 225.866 144.08 226.15C144.95 226.42 145.799 226.754 146.62 227.15C149.472 228.501 151.925 230.568 153.74 233.15C154.956 234.862 155.844 236.784 156.36 238.82C156.597 239.521 156.689 240.263 156.63 241Z" fill="#E0E0E0"/>
<path d="M142.24 254.71L142.74 257.85L139.93 258.3L139.44 255.24C136.933 255.564 134.386 255.176 132.09 254.12L133.09 250.44C134.882 251.311 136.872 251.697 138.86 251.56L138.1 246.87C134.87 246.62 131.22 246.14 130.58 242.12C130.1 239.12 131.85 236.24 136.21 235.03L135.71 231.91L138.52 231.46L139.01 234.52C141.045 234.302 143.103 234.576 145.01 235.32L144.16 239C142.717 238.44 141.176 238.178 139.63 238.23L140.39 243C143.63 243.23 147.22 243.72 147.85 247.68C148.29 250.6 146.56 253.47 142.24 254.71ZM137.44 242.71L136.8 238.71C135.37 239.29 134.91 240.19 135.06 241.12C135.21 242.05 136.14 242.55 137.44 242.75V242.71ZM143.36 248.71C143.2 247.71 142.3 247.33 141.02 247.1L141.64 250.97C143 250.47 143.5 249.64 143.36 248.74V248.71Z" fill="#E0E0E0"/>
<path d="M121.26 187.94C118.652 189.595 115.611 190.439 112.523 190.364C109.434 190.29 106.438 189.301 103.912 187.523C101.386 185.745 99.4443 183.257 98.3329 180.375C97.2215 177.493 96.9903 174.346 97.6684 171.332C98.3465 168.318 99.9035 165.574 102.142 163.445C104.381 161.317 107.201 159.901 110.245 159.376C113.289 158.851 116.421 159.241 119.243 160.497C122.065 161.752 124.452 163.817 126.1 166.43C127.195 168.16 127.938 170.089 128.287 172.106C128.636 174.124 128.584 176.19 128.135 178.187C127.685 180.185 126.847 182.074 125.667 183.747C124.488 185.421 122.99 186.845 121.26 187.94Z" fill="#F5F5F5"/>
<path d="M119.27 184.8C117.281 186.06 114.962 186.701 112.608 186.643C110.255 186.584 107.971 185.829 106.046 184.472C104.122 183.115 102.643 181.218 101.798 179.021C100.952 176.823 100.777 174.424 101.295 172.127C101.813 169.83 103.001 167.739 104.709 166.117C106.416 164.496 108.566 163.417 110.887 163.018C113.207 162.619 115.594 162.918 117.745 163.876C119.896 164.834 121.714 166.408 122.97 168.4C124.654 171.065 125.21 174.291 124.516 177.366C123.822 180.441 121.935 183.115 119.27 184.8Z" fill="#EBEBEB"/>
<path d="M119.59 184.6C119.59 184.54 119.96 184.22 120.59 183.6C121.531 182.693 122.324 181.643 122.94 180.49C123.853 178.796 124.333 176.904 124.34 174.98C124.351 174.428 124.317 173.876 124.24 173.33C124.163 172.762 124.043 172.2 123.88 171.65C123.713 171.078 123.502 170.52 123.25 169.98C122.731 168.877 122.039 167.864 121.2 166.98C120.798 166.544 120.359 166.143 119.89 165.78C119.441 165.409 118.963 165.074 118.46 164.78C117.995 164.481 117.507 164.22 117 164C116.037 163.622 115.028 163.37 114 163.25C113.112 163.16 112.218 163.16 111.33 163.25C110.032 163.384 108.763 163.722 107.57 164.25C107.14 164.487 106.688 164.681 106.22 164.83C106.22 164.83 106.58 164.42 107.41 163.93C108.592 163.248 109.891 162.794 111.24 162.59C112.176 162.44 113.126 162.403 114.07 162.48C115.161 162.573 116.234 162.816 117.26 163.2C117.819 163.403 118.361 163.65 118.88 163.94C119.423 164.231 119.941 164.565 120.43 164.94C121.461 165.74 122.359 166.698 123.09 167.78C123.468 168.33 123.802 168.908 124.09 169.51C124.359 170.092 124.583 170.694 124.76 171.31C124.927 171.906 125.047 172.515 125.12 173.13C125.196 173.72 125.223 174.315 125.2 174.91C125.173 176.002 124.998 177.085 124.68 178.13C124.398 179.036 124.008 179.906 123.52 180.72C122.825 181.898 121.916 182.935 120.84 183.78C120.485 184.137 120.059 184.416 119.59 184.6Z" fill="#E0E0E0"/>
<path d="M107.65 179.66L105.91 180.79L104.91 179.24L106.6 178.14C105.741 176.736 105.301 175.116 105.33 173.47L107.77 173.09C107.728 174.387 108.025 175.672 108.63 176.82L111.22 175.13C110.52 173.13 109.84 170.84 112.06 169.4C113.7 168.33 115.89 168.6 117.76 170.87L119.48 169.75L120.48 171.3L118.79 172.4C119.451 173.548 119.832 174.837 119.9 176.16L117.48 176.63C117.432 175.624 117.184 174.638 116.75 173.73L114.11 175.45C114.83 177.45 115.49 179.7 113.3 181.12C111.69 182.17 109.52 181.9 107.65 179.66ZM113.49 173.66L115.69 172.22C114.97 171.52 114.31 171.49 113.8 171.82C113.29 172.15 113.26 172.82 113.49 173.65V173.66ZM111.49 178.76C112.03 178.4 112.03 177.76 111.83 176.94L109.69 178.34C110.37 179 111 179.07 111.49 178.75V178.76Z" fill="#E0E0E0"/>
<path d="M540 59.14C537.392 60.7948 534.351 61.6385 531.263 61.5643C528.174 61.4901 525.178 60.5013 522.652 58.7232C520.126 56.945 518.184 54.4573 517.073 51.5751C515.962 48.6929 515.73 45.5458 516.408 42.5321C517.086 39.5184 518.644 36.7736 520.882 34.6453C523.121 32.5169 525.941 31.1007 528.985 30.5758C532.029 30.0509 535.161 30.4411 537.983 31.6968C540.805 32.9525 543.192 35.0174 544.84 37.63C545.936 39.3598 546.68 41.2886 547.03 43.3062C547.38 45.3238 547.328 47.3906 546.879 49.3883C546.429 51.3861 545.59 53.2756 544.41 54.9489C543.23 56.6222 541.731 58.0463 540 59.14Z" fill="#F5F5F5"/>
<path d="M538 56C536.012 57.2624 533.693 57.9064 531.339 57.8503C528.984 57.7942 526.699 57.0406 524.773 55.685C522.847 54.3294 521.366 52.4327 520.519 50.235C519.671 48.0374 519.495 45.6378 520.012 43.3399C520.53 41.0421 521.717 38.9495 523.425 37.3271C525.132 35.7046 527.283 34.6254 529.604 34.226C531.925 33.8266 534.313 34.125 536.464 35.0834C538.616 36.0419 540.434 37.6172 541.69 39.61C543.374 42.2728 543.931 45.4955 543.239 48.5692C542.547 51.6429 540.663 54.3158 538 56Z" fill="#EBEBEB"/>
<path d="M538.3 55.8C538.3 55.74 538.67 55.42 539.3 54.8C540.241 53.8928 541.034 52.8433 541.65 51.69C542.079 50.9052 542.415 50.0729 542.65 49.21C542.915 48.2315 543.056 47.2236 543.07 46.21C543.089 45.639 543.065 45.0675 543 44.5C542.923 43.9316 542.803 43.3699 542.64 42.82C542.476 42.2472 542.265 41.6887 542.01 41.15C541.751 40.5946 541.45 40.0597 541.11 39.55C540.776 39.0468 540.405 38.5688 540 38.12C539.595 37.6804 539.153 37.2757 538.68 36.91C538.233 36.5365 537.754 36.2019 537.25 35.91C536.772 35.634 536.274 35.3933 535.76 35.19C534.798 34.8103 533.789 34.5614 532.76 34.45C531.873 34.3501 530.977 34.3501 530.09 34.45C528.792 34.5849 527.523 34.9223 526.33 35.45C525.903 35.6924 525.45 35.887 524.98 36.03C524.98 36.03 525.34 35.62 526.17 35.13C527.355 34.4659 528.654 34.0284 530 33.84C530.935 33.689 531.886 33.6554 532.83 33.74C533.921 33.8293 534.994 34.0682 536.02 34.45C536.579 34.653 537.121 34.9004 537.64 35.19C538.752 35.8025 539.764 36.5815 540.64 37.5C541.082 37.9678 541.486 38.4694 541.85 39C542.227 39.5501 542.562 40.1285 542.85 40.73C543.115 41.3124 543.336 41.9141 543.51 42.53C543.682 43.1253 543.802 43.7342 543.87 44.35C543.946 44.9401 543.973 45.5355 543.95 46.13C543.923 47.2218 543.748 48.305 543.43 49.35C543.146 50.2781 542.75 51.168 542.25 52C541.552 53.1554 540.647 54.1723 539.58 55C539.213 55.3515 538.777 55.6238 538.3 55.8Z" fill="#E0E0E0"/>
<path d="M526.36 50.86L524.62 52L523.62 50.45L525.31 49.35C524.44 47.945 523.986 46.3224 524 44.67L526.44 44.29C526.403 45.5864 526.699 46.8707 527.3 48.02L529.89 46.33C529.19 44.33 528.51 42.04 530.73 40.6C532.37 39.53 534.56 39.8 536.43 42.07L538.19 41L539.19 42.55L537.5 43.65C538.159 44.8024 538.536 46.0942 538.6 47.42L536.19 47.88C536.136 46.8774 535.884 45.8953 535.45 44.99L532.81 46.7C533.53 48.7 534.19 50.95 532 52.37C530.4 53.37 528.24 53.1 526.36 50.86ZM532.2 44.86L534.4 43.43C533.68 42.72 533.02 42.69 532.51 43.02C532 43.35 532 44 532.2 44.85V44.86ZM530.2 49.96C530.74 49.6 530.74 48.96 530.54 48.15L528.4 49.54C529.08 50.19 529.7 50.27 530.2 50V49.96Z" fill="#E0E0E0"/>
<path d="M710.26 470.36C710.26 470.5 560.15 470.62 375.02 470.62C189.89 470.62 39.74 470.5 39.74 470.36C39.74 470.22 189.82 470.1 375.02 470.1C560.22 470.1 710.26 470.21 710.26 470.36Z" fill="#263238"/>
<path d="M669 134.64H288.28C286.719 134.64 285.173 134.948 283.731 135.545C282.289 136.143 280.979 137.019 279.876 138.123C278.773 139.227 277.898 140.538 277.301 141.981C276.705 143.423 276.399 144.969 276.4 146.53V415.44C276.4 418.591 277.652 421.613 279.88 423.84C282.108 426.068 285.129 427.32 288.28 427.32H434.4C434.4 427.32 443.7 456.06 414.88 470.94H551.51C551.51 470.94 519 459.78 527.34 427.32H669C672.151 427.32 675.173 426.068 677.4 423.84C679.628 421.613 680.88 418.591 680.88 415.44V146.53C680.881 144.969 680.575 143.423 679.979 141.981C679.382 140.538 678.507 139.227 677.404 138.123C676.301 137.019 674.991 136.143 673.549 135.545C672.107 134.948 670.561 134.64 669 134.64Z" fill="#263238"/>
<path d="M483.72 399C488.9 406.4 480.8 414.51 473.39 409.33C473.144 409.155 472.931 408.939 472.76 408.69C467.59 401.29 475.69 393.2 483.09 398.37C483.334 398.544 483.546 398.756 483.72 399Z" fill="#455A64"/>
<path d="M292.65 139.57H664.65C667.223 139.57 669.69 140.592 671.509 142.411C673.328 144.23 674.35 146.697 674.35 149.27V378.13H283V149.27C283 146.706 284.015 144.246 285.823 142.429C287.632 140.611 290.086 139.583 292.65 139.57Z" fill="white"/>
<path d="M328.95 193.42H316.11V336.78H328.95V193.42Z" fill="#1F074D"/>
<path d="M353.73 242.11H340.89V336.78H353.73V242.11Z" fill="#1F074D"/>
<path d="M378.51 211.24H365.67V337.51H378.51V211.24Z" fill="#1F074D"/>
<path d="M403.3 198.96H390.46V336.78H403.3V198.96Z" fill="#1F074D"/>
<path d="M428.08 245.03H415.24V336.78H428.08V245.03Z" fill="#1F074D"/>
<path d="M452.86 263.02H440.02V336.78H452.86V263.02Z" fill="#1F074D"/>
<path d="M477.64 208.14H464.8V336.78H477.64V208.14Z" fill="#1F074D"/>
<path d="M502.42 231.33H489.58V336.78H502.42V231.33Z" fill="#1F074D"/>
<path d="M527.21 212.8H514.37V336.78H527.21V212.8Z" fill="#1F074D"/>
<path d="M551.99 252.31H539.15V336.78H551.99V252.31Z" fill="#1F074D"/>
<path d="M601.42 208.14H588.58V336.78H601.42V208.14Z" fill="#1F074D"/>
<path d="M654.05 290.91H641.21V334.93H654.05V290.91Z" fill="#1F074D"/>
<path d="M628.39 252.31H615.55V336.78H628.39V252.31Z" fill="#1F074D"/>
<path d="M576.77 236.24H563.93V336.78H576.77V236.24Z" fill="#1F074D"/>
<path d="M657.65 211.7C657.273 211.667 656.899 211.606 656.53 211.52L653.26 210.85C651.496 210.473 649.714 210.189 647.92 210C645.483 209.66 643.029 209.456 640.57 209.39C633.825 209.164 627.078 209.742 620.47 211.11C611.735 212.984 603.334 216.167 595.55 220.55C586.117 225.864 577.593 232.649 570.3 240.65C562.44 249.27 555.81 259.92 549.03 271.19C542.25 282.46 535.21 294.56 525.12 305C520.073 310.395 514.111 314.854 507.51 318.17C504.084 319.833 500.42 320.953 496.65 321.49C492.818 322 488.928 321.868 485.14 321.1C477.52 319.42 470.77 315.42 465.09 310.59C459.519 305.79 454.534 300.349 450.24 294.38C441.62 282.78 435.5 270.28 428.95 258.89C422.4 247.5 415.83 236.78 407.68 228.43C403.821 224.364 399.391 220.881 394.53 218.09C392.245 216.772 389.869 215.619 387.42 214.64C385.053 213.766 382.631 213.048 380.17 212.49C371.466 210.503 362.399 210.757 353.82 213.23C347.34 215.083 341.223 218.025 335.73 221.93C332.295 224.456 329.113 227.309 326.23 230.45L324 232.92C323.756 233.215 323.489 233.489 323.2 233.74C323.396 233.415 323.624 233.11 323.88 232.83L325.99 230.23C328.807 226.988 331.954 224.049 335.38 221.46C340.881 217.431 347.039 214.386 353.58 212.46C362.279 209.847 371.501 209.503 380.37 211.46C390.24 213.46 400.3 219.1 408.51 227.56C416.72 236.02 423.56 246.75 430.08 258.19C436.6 269.63 442.82 282.06 451.35 293.51C455.586 299.398 460.5 304.768 465.99 309.51C471.55 314.24 478.11 318.1 485.41 319.71C489.031 320.439 492.748 320.564 496.41 320.08C500.036 319.56 503.561 318.484 506.86 316.89C513.325 313.644 519.165 309.28 524.11 304C534.06 293.77 541.02 281.69 547.9 270.5C554.78 259.31 561.42 248.5 569.42 239.84C576.835 231.793 585.487 224.98 595.05 219.66C602.945 215.28 611.463 212.134 620.31 210.33C626.983 209.003 633.794 208.499 640.59 208.83C643.066 208.932 645.534 209.182 647.98 209.58C649.778 209.806 651.562 210.14 653.32 210.58L656.56 211.39C656.931 211.464 657.295 211.568 657.65 211.7Z" fill="#263238"/>
<path d="M302 346.77C301.71 346.77 301.47 305.89 301.47 255.47C301.47 205.05 301.71 164.17 302 164.17C302.29 164.17 302.53 205.04 302.53 255.47C302.53 305.9 302.27 346.77 302 346.77Z" fill="#263238"/>
<path d="M654 346.77C654 347.06 577 347.29 482 347.29C387 347.29 310 347.06 310 346.77C310 346.48 387 346.24 482 346.24C577 346.24 654 346.48 654 346.77Z" fill="#263238"/>
<path d="M334.42 358.05C334.42 358.34 330.16 358.58 324.9 358.58C319.64 358.58 315.37 358.34 315.37 358.05C315.37 357.76 319.63 357.52 324.9 357.52C330.17 357.52 334.42 357.76 334.42 358.05Z" fill="#263238"/>
<path d="M366 358.62C366 358.92 360.9 359.15 354.62 359.15C348.34 359.15 343.23 358.92 343.23 358.62C343.23 358.32 348.33 358.1 354.62 358.1C360.91 358.1 366 358.33 366 358.62Z" fill="#263238"/>
<path d="M393 358.62C393 358.92 387.9 359.15 381.62 359.15C375.34 359.15 370.23 358.92 370.23 358.62C370.23 358.32 375.33 358.1 381.62 358.1C387.91 358.1 393 358.33 393 358.62Z" fill="#263238"/>
<path d="M419.92 358.62C419.92 358.92 414.82 359.15 408.54 359.15C402.26 359.15 397.15 358.92 397.15 358.62C397.15 358.32 402.25 358.1 408.54 358.1C414.83 358.1 419.92 358.33 419.92 358.62Z" fill="#263238"/>
<path d="M446.87 358.62C446.87 358.92 441.78 359.15 435.49 359.15C429.2 359.15 424.1 358.92 424.1 358.62C424.1 358.32 429.2 358.1 435.49 358.1C441.78 358.1 446.87 358.33 446.87 358.62Z" fill="#263238"/>
<path d="M473.83 358.62C473.83 358.92 468.73 359.15 462.44 359.15C456.15 359.15 451.06 358.92 451.06 358.62C451.06 358.32 456.15 358.1 462.44 358.1C468.73 358.1 473.83 358.33 473.83 358.62Z" fill="#263238"/>
<path d="M500.78 358.62C500.78 358.92 495.68 359.15 489.39 359.15C483.1 359.15 478.01 358.92 478.01 358.62C478.01 358.32 483.1 358.1 489.39 358.1C495.68 358.1 500.78 358.33 500.78 358.62Z" fill="#263238"/>
<path d="M527.73 358.62C527.73 358.92 522.63 359.15 516.34 359.15C510.05 359.15 504.96 358.92 504.96 358.62C504.96 358.32 510.06 358.1 516.34 358.1C522.62 358.1 527.73 358.33 527.73 358.62Z" fill="#263238"/>
<path d="M554.68 358.62C554.68 358.92 549.58 359.15 543.3 359.15C537.02 359.15 531.91 358.92 531.91 358.62C531.91 358.32 537.01 358.1 543.3 358.1C549.59 358.1 554.68 358.33 554.68 358.62Z" fill="#263238"/>
<path d="M581.63 358.62C581.63 358.92 576.53 359.15 570.25 359.15C563.97 359.15 558.86 358.92 558.86 358.62C558.86 358.32 563.96 358.1 570.25 358.1C576.54 358.1 581.63 358.33 581.63 358.62Z" fill="#263238"/>
<path d="M606.7 358.63C606.7 358.93 601.6 359.16 595.31 359.16C589.02 359.16 583.93 358.93 583.93 358.63C583.93 358.33 589.03 358.11 595.31 358.11C601.59 358.11 606.7 358.34 606.7 358.63Z" fill="#263238"/>
<path d="M631.77 358.64C631.77 358.93 626.67 359.17 620.38 359.17C614.09 359.17 609 358.93 609 358.64C609 358.35 614.09 358.12 620.38 358.12C626.67 358.12 631.77 358.35 631.77 358.64Z" fill="#263238"/>
<path d="M656.83 358.65C656.83 358.94 651.73 359.18 645.45 359.18C639.17 359.18 634.06 358.94 634.06 358.65C634.06 358.36 639.16 358.12 645.45 358.12C651.74 358.12 656.83 358.36 656.83 358.65Z" fill="#263238"/>
<path d="M433 260.17C433 259.95 434.58 260.5 435.08 262.65C435.4 263.891 435.258 265.206 434.68 266.35C434.291 267.104 433.618 267.672 432.81 267.93C431.933 268.176 430.995 268.065 430.2 267.62C429.48 267.218 428.889 266.621 428.495 265.897C428.1 265.173 427.918 264.353 427.97 263.53C428.017 262.883 428.201 262.253 428.509 261.683C428.818 261.112 429.244 260.613 429.76 260.22C430.098 259.944 430.493 259.747 430.917 259.643C431.341 259.539 431.783 259.531 432.21 259.62C432.81 259.8 433.01 260.09 432.97 260.15C432.93 260.21 431.67 259.75 430.41 261C429.718 261.683 429.317 262.608 429.29 263.58C429.285 264.143 429.43 264.696 429.709 265.185C429.989 265.673 430.393 266.079 430.88 266.36C431.098 266.496 431.341 266.586 431.594 266.625C431.848 266.664 432.107 266.652 432.355 266.588C432.604 266.525 432.837 266.411 433.041 266.255C433.244 266.099 433.414 265.903 433.54 265.68C434.017 264.811 434.206 263.813 434.08 262.83C433.91 261 432.89 260.34 433 260.17Z" fill="#263238"/>
<path d="M601.94 213C601.94 212.92 602.35 212.79 603.06 213C604.04 213.367 604.854 214.078 605.35 215C605.747 215.672 606.001 216.418 606.098 217.192C606.194 217.966 606.13 218.752 605.91 219.5C605.65 220.478 605.083 221.346 604.293 221.978C603.503 222.609 602.531 222.971 601.52 223.01C600.978 222.985 600.447 222.843 599.965 222.592C599.483 222.342 599.062 221.99 598.73 221.56C598.147 220.83 597.743 219.974 597.55 219.06C597.358 218.305 597.323 217.519 597.447 216.75C597.571 215.982 597.851 215.246 598.27 214.59C599.85 212.36 601.8 212.47 601.73 212.59C601.82 212.8 600.19 213.11 599.14 215.06C598.584 216.188 598.473 217.484 598.83 218.69C599.17 220.01 600.19 221.52 601.57 221.53C602.275 221.472 602.947 221.204 603.498 220.76C604.049 220.316 604.454 219.717 604.66 219.04C605.051 217.854 604.976 216.563 604.45 215.43C603.92 214.354 603.033 213.495 601.94 213Z" fill="#263238"/>
<path d="M456.29 66.8099H198.68V267.3H456.29V66.8099Z" fill="white"/>
<path d="M456.29 267.3C456.29 265.3 456.2 187.8 456.05 66.81L456.29 67.05H198.71L199 66.76C199 139.03 199 207.38 199 267.25L198.74 266.99L456.35 267.25L198.74 267.51H198.48V267.25C198.48 207.38 198.48 139.03 198.48 66.76V66.47H198.8H456.38H456.62V66.71C456.39 187.8 456.3 265.3 456.29 267.3Z" fill="#263238"/>
<path d="M252.95 93.15H211.25V95.47H252.95V93.15Z" fill="#263238"/>
<path d="M231.86 98.58H211.25V100.9H231.86V98.58Z" fill="#263238"/>
<path d="M242.57 238.49H235.02V240.67H242.57V238.49Z" fill="#263238"/>
<path d="M261.77 250.13H252.11V252.31H261.77V250.13Z" fill="#263238"/>
<path d="M295.4 250.13H285.74V252.31H295.4V250.13Z" fill="#263238"/>
<path d="M329.03 250.13H319.37V252.31H329.03V250.13Z" fill="#263238"/>
<path d="M362.66 250.13H353V252.31H362.66V250.13Z" fill="#263238"/>
<path d="M396.29 250.13H386.63V252.31H396.29V250.13Z" fill="#263238"/>
<path d="M429.92 250.13H420.26V252.31H429.92V250.13Z" fill="#263238"/>
<path d="M242.57 209.42H235.02V211.6H242.57V209.42Z" fill="#263238"/>
<path d="M242.57 154.7H235.02V156.88H242.57V154.7Z" fill="#263238"/>
<path d="M242.57 127.2H235.02V129.38H242.57V127.2Z" fill="#263238"/>
<path d="M242.96 182.06H235.41V184.24H242.96V182.06Z" fill="#263238"/>
<path d="M429.65 240.67C429.65 240.67 429.38 240.67 428.84 240.67H426.46L417.32 240.72L383.71 240.81L272.8 240.88H246.26V240.62C246.26 203.53 246.33 170.89 246.35 147.51C246.35 135.83 246.41 126.51 246.43 120.01C246.43 116.8 246.43 114.31 246.43 112.61C246.43 111.77 246.43 111.14 246.43 110.69C246.43 110.24 246.43 110.04 246.43 110.04C246.43 110.04 246.43 110.26 246.43 110.69C246.43 111.12 246.43 111.77 246.43 112.61C246.43 114.31 246.43 116.8 246.43 120.01C246.43 126.47 246.43 135.83 246.51 147.51C246.51 170.89 246.56 203.51 246.6 240.62L246.34 240.36H272.8L383.71 240.44L417.32 240.52L426.46 240.57H428.84L429.65 240.67Z" fill="#263238"/>
<path d="M431.78 183.15C431.78 183.29 391.94 183.41 342.78 183.41C293.62 183.41 253.78 183.29 253.78 183.15C253.78 183.01 293.61 182.89 342.78 182.89C391.95 182.89 431.78 183 431.78 183.15Z" fill="#263238"/>
<path d="M431.78 155.79C431.78 155.93 391.94 156.05 342.78 156.05C293.62 156.05 253.78 155.93 253.78 155.79C253.78 155.65 293.61 155.53 342.78 155.53C391.95 155.53 431.78 155.65 431.78 155.79Z" fill="#263238"/>
<path d="M431.78 128.29C431.78 128.44 391.94 128.55 342.78 128.55C293.62 128.55 253.78 128.44 253.78 128.29C253.78 128.14 293.61 128.03 342.78 128.03C391.95 128.03 431.78 128.15 431.78 128.29Z" fill="#263238"/>
<path d="M431.78 210.51C431.78 210.65 391.94 210.77 342.78 210.77C293.62 210.77 253.78 210.65 253.78 210.51C253.78 210.37 293.61 210.25 342.78 210.25C391.95 210.25 431.78 210.37 431.78 210.51Z" fill="#263238"/>
<path d="M255.66 234.78V210.51L270.79 187L281.06 194.88L302.13 162.15L314.56 170.9L331.85 140.7L345.85 152.15L367 112.11L389.7 156.88L408 134.48L429.61 128.29V234.78H255.66Z" fill="#455A64"/>
<path d="M431.78 119.67C431.653 119.679 431.526 119.679 431.4 119.67H430.27H425.89L409.3 119.74L409.41 119.68L391.63 143L391.56 143.08H391.46H346.96L347.18 142.96L328.47 174.1C322.1 184.7 315.93 194.95 310.1 204.63L309.91 204.96L309.69 204.65L285.57 171.52H285.92L264 205.8L257.89 215.28C257.19 216.36 256.65 217.19 256.27 217.76C255.89 218.33 255.7 218.6 255.7 218.6C255.7 218.6 255.87 218.3 256.22 217.73L257.78 215.22C259.17 213.01 261.2 209.78 263.78 205.67L285.58 171.3L285.75 171.04L285.94 171.29L310.11 204.38H309.69L328 173.86L346.73 142.72L346.8 142.6H347L391.5 142.65L391.34 142.73L409.23 119.59V119.53H409.3L425.89 119.6H430.27H431.4L431.78 119.67Z" fill="#263238"/>
<path d="M293 179.19C293.014 179.531 292.926 179.868 292.746 180.158C292.567 180.449 292.305 180.679 291.994 180.819C291.683 180.959 291.338 181.003 291.001 180.945C290.665 180.887 290.354 180.73 290.108 180.494C289.862 180.258 289.692 179.954 289.62 179.62C289.548 179.287 289.577 178.939 289.705 178.623C289.832 178.306 290.051 178.035 290.333 177.844C290.616 177.653 290.949 177.55 291.29 177.55C291.734 177.542 292.163 177.71 292.483 178.017C292.804 178.324 292.989 178.746 293 179.19Z" fill="#263238"/>
<path d="M344.36 150C344.374 150.341 344.285 150.679 344.106 150.969C343.926 151.26 343.664 151.49 343.352 151.63C343.04 151.77 342.694 151.813 342.358 151.755C342.021 151.696 341.71 151.538 341.464 151.301C341.218 151.064 341.049 150.758 340.978 150.424C340.908 150.09 340.939 149.742 341.067 149.426C341.196 149.109 341.417 148.839 341.7 148.649C341.984 148.459 342.318 148.358 342.66 148.36C342.879 148.356 343.097 148.395 343.301 148.476C343.506 148.556 343.692 148.676 343.85 148.828C344.008 148.98 344.134 149.162 344.221 149.363C344.309 149.564 344.356 149.781 344.36 150Z" fill="#263238"/>
<path d="M382.56 144.49C383.504 144.49 384.27 143.756 384.27 142.85C384.27 141.944 383.504 141.21 382.56 141.21C381.616 141.21 380.85 141.944 380.85 142.85C380.85 143.756 381.616 144.49 382.56 144.49Z" fill="#263238"/>
<path d="M209.45 75.0599C209.45 75.4555 209.333 75.8422 209.113 76.1711C208.893 76.5 208.581 76.7563 208.215 76.9077C207.85 77.0591 207.448 77.0987 207.06 77.0215C206.672 76.9443 206.315 76.7539 206.036 76.4742C205.756 76.1944 205.566 75.8381 205.488 75.4501C205.411 75.0622 205.451 74.66 205.602 74.2946C205.754 73.9291 206.01 73.6168 206.339 73.397C206.668 73.1772 207.054 73.0599 207.45 73.0599C207.98 73.0599 208.489 73.2707 208.864 73.6457C209.239 74.0208 209.45 74.5295 209.45 75.0599Z" fill="#263238"/>
<path d="M215.21 75.0599C215.21 75.4555 215.093 75.8422 214.873 76.1711C214.653 76.5 214.341 76.7563 213.975 76.9077C213.61 77.0591 213.208 77.0987 212.82 77.0215C212.432 76.9443 212.075 76.7539 211.796 76.4742C211.516 76.1944 211.326 75.8381 211.248 75.4501C211.171 75.0622 211.211 74.66 211.362 74.2946C211.514 73.9291 211.77 73.6168 212.099 73.397C212.428 73.1772 212.814 73.0599 213.21 73.0599C213.74 73.0599 214.249 73.2707 214.624 73.6457C214.999 74.0208 215.21 74.5295 215.21 75.0599Z" fill="#263238"/>
<path d="M221 75.0599C221 75.4555 220.883 75.8422 220.663 76.1711C220.443 76.5 220.131 76.7563 219.765 76.9077C219.4 77.0591 218.998 77.0987 218.61 77.0215C218.222 76.9443 217.865 76.7539 217.586 76.4742C217.306 76.1944 217.116 75.8381 217.038 75.4501C216.961 75.0622 217.001 74.66 217.152 74.2946C217.304 73.9291 217.56 73.6168 217.889 73.397C218.218 73.1772 218.604 73.0599 219 73.0599C219.53 73.0599 220.039 73.2707 220.414 73.6457C220.789 74.0208 221 74.5295 221 75.0599Z" fill="#263238"/>
<path d="M456.08 82.87C456.08 83.01 398.52 83.13 327.53 83.13C256.54 83.13 199 83 199 82.87C199 82.74 256.55 82.61 327.56 82.61C398.57 82.61 456.08 82.72 456.08 82.87Z" fill="#263238"/>
<path d="M39.92 386.57L45.33 406C46.8179 411.276 50.1931 415.821 54.8135 418.771C59.434 421.721 64.9776 422.87 70.39 422C70.39 422 80.63 436.6 85 439L88.94 470.13H112.31L114.16 457.52C130.957 464.572 149.112 467.8 167.31 466.97C196.9 465.4 203.99 456.73 203.99 456.73L207.53 470.13H233.93L238.27 435.85C238.27 435.85 270.57 407.09 262.27 373.6C262.27 373.6 285.51 357.73 277.63 335.13L272.9 333C272.9 333 265.41 346.39 257.53 349.15C257.53 349.15 236.33 280.99 156.53 286.51C156.53 286.51 129.9 285.33 104.68 297.14C104.68 297.14 76.68 282.57 55.83 293.2C55.83 293.2 55.44 317.2 67.25 331.03C67.25 331.03 57.01 353.88 56.25 358.61L53.2 359.83C48.0807 361.868 43.8941 365.724 41.4432 370.659C38.9924 375.594 38.45 381.26 39.92 386.57Z" fill="#E0E0E0"/>
<path d="M96.3699 357.29C96.3699 358.582 95.987 359.844 95.2694 360.918C94.5519 361.992 93.5321 362.829 92.3389 363.323C91.1457 363.817 89.8327 363.946 88.566 363.695C87.2993 363.443 86.1358 362.821 85.2225 361.907C84.3093 360.994 83.6874 359.831 83.4354 358.564C83.1834 357.297 83.3128 355.984 83.807 354.791C84.3012 353.598 85.1382 352.578 86.2121 351.861C87.2859 351.143 88.5484 350.76 89.8399 350.76C91.5718 350.76 93.2327 351.448 94.4573 352.673C95.682 353.897 96.3699 355.558 96.3699 357.29Z" fill="#263238"/>
<g opacity="0.6">
<path d="M126.45 303.81L129.38 312.03C129.38 312.03 164.89 301.46 187.78 312.03L191.01 303.81C191.01 303.81 163.13 290.9 126.45 303.81Z" fill="black"/>
</g>
<path d="M193.89 315.8C193.665 315.688 193.448 315.561 193.24 315.42C192.82 315.15 192.19 314.78 191.38 314.31C189.074 313 186.655 311.902 184.15 311.03C180.435 309.744 176.593 308.859 172.69 308.39C167.905 307.832 163.083 307.651 158.27 307.85C153.45 307.986 148.64 308.37 143.86 309C139.96 309.502 136.12 310.397 132.4 311.67C129.895 312.534 127.488 313.66 125.22 315.03C123.61 316.03 122.79 316.64 122.75 316.59C122.932 316.413 123.13 316.252 123.34 316.11C123.905 315.66 124.496 315.242 125.11 314.86C127.357 313.413 129.763 312.229 132.28 311.33C136.007 309.994 139.865 309.056 143.79 308.53C148.588 307.877 153.419 307.486 158.26 307.36C163.098 307.159 167.944 307.353 172.75 307.94C176.683 308.441 180.549 309.37 184.28 310.71C186.786 311.624 189.197 312.779 191.48 314.16C192.29 314.66 192.9 315.07 193.29 315.36C193.501 315.491 193.702 315.638 193.89 315.8Z" fill="#263238"/>
<g opacity="0.2">
<path d="M54.8599 377.93C54.4837 376.914 53.8858 375.996 53.1099 375.24C52.7164 374.868 52.2225 374.62 51.6893 374.526C51.1562 374.431 50.6071 374.495 50.1099 374.71C49.3511 375.311 48.8216 376.155 48.6099 377.1C47.2919 383.052 48.3275 389.284 51.4999 394.49C51.7144 394.854 52.0035 395.169 52.3482 395.414C52.6928 395.658 53.0853 395.828 53.4999 395.91C55.2899 396.22 56.2299 394.59 56.6699 393.11C58.1799 388.12 56.9999 382.69 54.8599 377.93Z" fill="black"/>
</g>
<path d="M69.1999 394C69.1497 393.505 69.1497 393.005 69.1999 392.51C69.233 391.927 69.233 391.343 69.1999 390.76C69.1999 390.08 69.1999 389.3 69.1999 388.44C69.1999 387.58 69.1099 386.65 68.9799 385.65C68.8499 384.65 68.6899 383.59 68.4999 382.47C67.5844 377.635 65.8061 373.005 63.2499 368.8C62.6399 367.8 62.0899 366.92 61.4799 366.12C60.8699 365.32 60.3199 364.56 59.7699 363.89C59.2199 363.22 58.6999 362.66 58.2499 362.15C57.7999 361.64 57.3899 361.22 57.0499 360.88C56.6853 360.547 56.3507 360.182 56.0499 359.79C56.4642 360.071 56.8525 360.389 57.2099 360.74C57.6544 361.12 58.0783 361.524 58.4799 361.95C59.0409 362.49 59.5717 363.061 60.0699 363.66C60.6399 364.31 61.2499 365.03 61.8499 365.86C62.4499 366.69 63.0499 367.59 63.6799 368.55C64.9785 370.658 66.0895 372.877 66.9999 375.18C67.8734 377.507 68.5426 379.906 68.9999 382.35C69.1699 383.48 69.3599 384.55 69.4299 385.57C69.4999 386.59 69.5699 387.57 69.5899 388.39C69.6099 389.21 69.5899 390.04 69.5899 390.73C69.5791 391.315 69.5357 391.899 69.4599 392.48C69.4145 392.993 69.3276 393.501 69.1999 394Z" fill="#263238"/>
<path d="M76.37 380C76.27 380 75.8899 378.35 74.7799 375.82C74.1264 374.347 73.3608 372.926 72.4899 371.57C71.4001 369.947 70.1758 368.418 68.8299 367C67.45 365.59 65.9512 364.302 64.3499 363.15C63.033 362.223 61.6455 361.4 60.1999 360.69C57.7299 359.48 56.0599 359.03 56.0999 358.93C56.4997 358.97 56.8928 359.061 57.2699 359.2C57.7295 359.32 58.1805 359.47 58.6199 359.65C59.2127 359.854 59.7936 360.091 60.3599 360.36C61.8501 361.035 63.2788 361.838 64.6299 362.76C66.2722 363.906 67.8024 365.205 69.1999 366.64C70.5792 368.098 71.8149 369.685 72.8899 371.38C73.76 372.765 74.5062 374.224 75.12 375.74C75.4 376.38 75.58 376.99 75.76 377.51C75.9149 377.955 76.0419 378.409 76.1399 378.87C76.2645 379.235 76.3418 379.615 76.37 380Z" fill="#263238"/>
<path d="M49.1599 377C49.1176 376.818 49.1271 376.628 49.1871 376.451C49.2472 376.275 49.3556 376.118 49.4999 376C49.8207 375.681 50.2402 375.48 50.6899 375.43C50.9889 375.401 51.2907 375.432 51.5775 375.521C51.8644 375.61 52.1304 375.756 52.3599 375.95C53.3914 377.016 54.1616 378.306 54.6099 379.72C55.9712 383.034 56.6514 386.588 56.6099 390.17C56.7199 391.654 56.4479 393.141 55.8199 394.49C55.5657 394.942 55.1826 395.308 54.7196 395.541C54.2565 395.774 53.7344 395.865 53.2199 395.8C52.4799 395.66 52.2199 395.24 52.2799 395.25C52.584 395.438 52.9252 395.557 53.2799 395.6C53.7414 395.622 54.1995 395.511 54.6 395.28C55.0005 395.05 55.3266 394.71 55.5399 394.3C56.0866 392.996 56.303 391.578 56.1699 390.17C56.1633 388.415 55.9925 386.664 55.6599 384.94C55.3343 383.216 54.8523 381.526 54.2199 379.89C53.8106 378.536 53.111 377.287 52.1699 376.23C51.8368 375.918 51.4014 375.737 50.945 375.723C50.4886 375.708 50.0425 375.86 49.6899 376.15C49.4274 376.37 49.2417 376.667 49.1599 377Z" fill="#263238"/>
<path d="M99.4199 381.61C99.4199 381.61 99.5799 381.8 99.7599 382.21C99.9901 382.79 100.138 383.399 100.2 384.02C100.322 385.055 100.23 386.104 99.9321 387.103C99.6338 388.101 99.1345 389.029 98.465 389.827C97.7955 390.626 96.9698 391.28 96.0386 391.748C95.1074 392.216 94.0904 392.489 93.0499 392.55C92.4274 392.598 91.8011 392.558 91.1899 392.43C90.7599 392.33 90.5399 392.24 90.5399 392.2C91.3623 392.255 92.1875 392.255 93.0099 392.2C94.9774 391.99 96.7871 391.026 98.0587 389.51C99.3304 387.994 99.9653 386.044 99.8299 384.07C99.7434 383.242 99.6065 382.421 99.4199 381.61Z" fill="#263238"/>
<path d="M95.7199 341.35C93.6557 340.512 91.4906 339.947 89.2799 339.67C87.0539 339.565 84.8239 339.76 82.6499 340.25C83.2164 339.89 83.8485 339.645 84.5099 339.53C86.0824 339.146 87.7066 339.017 89.3199 339.15C90.9338 339.286 92.5146 339.684 93.9999 340.33C94.6317 340.56 95.2151 340.906 95.7199 341.35Z" fill="#263238"/>
<path d="M205.83 298.2L205.58 298.12L204.85 297.84L202.06 296.73L200.06 295.91C199.32 295.62 198.5 295.36 197.63 295.06C195.87 294.48 193.91 293.71 191.63 293.14L188.11 292.14C186.89 291.81 185.59 291.57 184.25 291.27C181.6 290.61 178.7 290.21 175.67 289.71C169.041 288.84 162.353 288.506 155.67 288.71C149.004 288.999 142.373 289.825 135.84 291.18C132.84 291.89 129.99 292.51 127.39 293.36C126.09 293.76 124.8 294.09 123.61 294.52L120.17 295.76C117.96 296.49 116.06 297.4 114.35 298.11C113.5 298.48 112.7 298.8 111.99 299.11L110.05 300.11L107.35 301.43L106.65 301.76C106.573 301.808 106.489 301.842 106.4 301.86C106.4 301.86 106.47 301.86 106.62 301.72L107.3 301.34L109.96 299.93L111.88 298.93C112.59 298.58 113.39 298.24 114.23 297.86C115.93 297.13 117.83 296.19 120.04 295.43L123.48 294.16C124.68 293.72 125.96 293.38 127.27 292.96C129.88 292.09 132.74 291.46 135.74 290.73C142.296 289.343 148.955 288.497 155.65 288.2C162.335 288.012 169.023 288.37 175.65 289.27C178.7 289.78 181.6 290.2 184.27 290.87C185.6 291.19 186.91 291.44 188.13 291.79L191.65 292.79C193.91 293.38 195.87 294.18 197.65 294.79C198.52 295.1 199.34 295.38 200.08 295.67L202.08 296.54L204.83 297.75L205.54 298.08C205.76 298.15 205.84 298.19 205.83 298.2Z" fill="#D9D9D9"/>
<path d="M217.72 304.83C216.632 304.659 215.576 304.322 214.59 303.83C213.536 303.489 212.544 302.983 211.65 302.33C212.741 302.503 213.8 302.84 214.79 303.33C215.839 303.675 216.827 304.181 217.72 304.83Z" fill="#D9D9D9"/>
<path d="M51.5 364.91C51.5 365 50.59 365.38 49.21 366.25C45.6067 368.543 42.9292 372.035 41.65 376.11C41.17 377.67 41.05 378.68 40.95 378.67C40.9088 378.432 40.9088 378.188 40.95 377.95C41.0062 377.291 41.1233 376.638 41.3 376C41.846 373.894 42.8088 371.918 44.1313 370.19C45.4539 368.462 47.1094 367.017 49 365.94C49.5656 365.607 50.1617 365.329 50.78 365.11C51.0063 365.001 51.2501 364.934 51.5 364.91Z" fill="#D9D9D9"/>
<path d="M112.93 464.29C112.93 464.29 112.75 464.05 112.33 463.73C111.702 463.289 110.931 463.1 110.17 463.2C109.586 463.261 109.025 463.458 108.53 463.773C108.035 464.089 107.621 464.516 107.32 465.02C106.572 466.375 106.226 467.915 106.32 469.46H105.86C105.941 468.673 105.851 467.879 105.598 467.13C105.344 466.381 104.932 465.695 104.39 465.12C103.786 464.496 103.008 464.067 102.158 463.889C101.308 463.711 100.424 463.791 99.62 464.12C99.1048 464.34 98.6522 464.684 98.3031 465.122C97.954 465.561 97.7193 466.079 97.62 466.63C97.4972 467.144 97.4994 467.68 97.6265 468.194C97.7535 468.707 98.0016 469.182 98.35 469.58L97.94 469.83C97.4088 467.92 96.4398 466.16 95.11 464.69C94.5852 464.136 93.9274 463.726 93.1992 463.499C92.471 463.271 91.6967 463.234 90.95 463.39C90.4687 463.526 90.0239 463.768 89.6484 464.099C89.2729 464.429 88.9762 464.84 88.78 465.3C88.6611 465.646 88.5871 466.005 88.56 466.37C88.462 465.999 88.4865 465.606 88.63 465.25C88.8084 464.743 89.103 464.284 89.4902 463.911C89.8773 463.537 90.3464 463.26 90.86 463.1C91.6628 462.901 92.5034 462.915 93.2993 463.139C94.0952 463.364 94.8191 463.791 95.4 464.38C96.8066 465.876 97.8352 467.686 98.4 469.66L98.81 470.78L98 469.9C97.5932 469.446 97.3017 468.901 97.1503 468.311C96.9988 467.721 96.9919 467.103 97.13 466.51C97.2485 465.873 97.5235 465.275 97.9302 464.771C98.3369 464.266 98.8626 463.871 99.46 463.62C100.362 463.251 101.353 463.161 102.307 463.361C103.26 463.56 104.132 464.041 104.81 464.74C105.395 465.372 105.837 466.122 106.106 466.94C106.375 467.758 106.465 468.624 106.37 469.48H105.91C105.826 467.856 106.219 466.243 107.04 464.84C107.407 464.256 107.912 463.772 108.51 463.43C109.028 463.157 109.596 462.993 110.18 462.95C110.998 462.874 111.813 463.122 112.45 463.64C112.661 463.814 112.826 464.037 112.93 464.29Z" fill="#263238"/>
<path d="M252.27 462.37L250.55 469.61C250.55 469.61 238.7 485 235.05 484.24C232.65 483.75 235.6 479.74 240.05 468.05L241.05 463.23L252.27 462.37Z" fill="#455A64"/>
<path d="M234.57 482C234.713 482.263 234.933 482.476 235.2 482.61C235.571 482.77 235.98 482.825 236.38 482.769C236.781 482.712 237.158 482.547 237.47 482.29C239.543 480.549 241.51 478.686 243.36 476.71C245.55 474.41 247.36 472.19 248.69 470.56L250.2 468.61C250.35 468.42 250.49 468.25 250.61 468.08C250.657 468.015 250.711 467.954 250.77 467.9C250.723 467.965 250.669 468.025 250.61 468.08L250.23 468.64C249.9 469.12 249.4 469.8 248.77 470.64C247.116 472.801 245.347 474.87 243.47 476.84C241.603 478.835 239.598 480.696 237.47 482.41C237.074 482.688 236.612 482.857 236.13 482.9C235.766 482.92 235.403 482.841 235.08 482.67C234.874 482.565 234.701 482.406 234.58 482.21C234.566 482.141 234.562 482.07 234.57 482Z" fill="#263238"/>
<path d="M236.24 477C236.557 476.873 236.903 476.835 237.24 476.89C238.034 476.968 238.797 477.232 239.47 477.66C240.168 478.061 240.732 478.659 241.09 479.38C241.252 479.671 241.341 479.997 241.35 480.33C241.35 480.33 241.24 479.97 240.96 479.45C240.578 478.785 240.026 478.232 239.36 477.85C238.711 477.433 237.982 477.158 237.22 477.04C236.894 477.01 236.567 476.996 236.24 477Z" fill="#263238"/>
<path d="M247.46 473.42C247.39 473.313 247.339 473.195 247.31 473.07C247.212 472.742 247.135 472.408 247.08 472.07C246.913 470.94 247.105 469.785 247.63 468.77C248.149 467.751 248.994 466.934 250.03 466.45C250.346 466.3 250.684 466.199 251.03 466.15C251.153 466.13 251.278 466.13 251.4 466.15C250.958 466.266 250.526 466.42 250.11 466.61C249.132 467.116 248.338 467.917 247.84 468.9C247.339 469.88 247.134 470.985 247.25 472.08C247.33 472.9 247.49 473.41 247.46 473.42Z" fill="#263238"/>
<path d="M251.52 463.6C251.52 463.6 251.3 464.6 251.08 465.91C250.988 466.697 250.779 467.465 250.46 468.19C250.46 468.19 250.65 467.19 250.87 465.87C250.966 465.084 251.185 464.318 251.52 463.6Z" fill="#263238"/>
<path d="M239.89 469.07C240.387 468.932 240.913 468.932 241.41 469.07C241.92 469.149 242.396 469.375 242.78 469.72C242.78 469.78 242.16 469.46 241.36 469.28C240.56 469.1 239.9 469.14 239.89 469.07Z" fill="#263238"/>
<path d="M239.65 470.31C240.064 470.163 240.516 470.163 240.93 470.31C241.366 470.373 241.765 470.594 242.05 470.93C242.05 470.98 241.54 470.67 240.88 470.52C240.22 470.37 239.66 470.38 239.65 470.31Z" fill="#263238"/>
<path d="M238.7 471.87C238.897 471.749 239.117 471.671 239.347 471.642C239.576 471.613 239.809 471.632 240.03 471.7C240.259 471.733 240.477 471.815 240.671 471.941C240.864 472.068 241.028 472.234 241.15 472.43C240.783 472.208 240.39 472.034 239.98 471.91C239.557 471.844 239.127 471.831 238.7 471.87Z" fill="#263238"/>
<path d="M240.71 468.55C240.71 468.55 241.25 468.41 242.1 468.08C242.592 467.884 243.07 467.653 243.53 467.39C243.78 467.24 244.05 467.07 244.31 466.89C244.57 466.71 244.82 466.45 244.81 466.17C244.8 465.89 244.45 465.73 244.18 465.8C243.898 465.897 243.647 466.066 243.45 466.29C243.01 466.7 242.64 467.09 242.34 467.43C241.73 468.11 241.4 468.56 241.34 468.54C241.391 468.418 241.458 468.304 241.54 468.2C241.68 467.99 241.9 467.69 242.19 467.33C242.533 466.918 242.897 466.524 243.28 466.15C243.499 465.896 243.782 465.706 244.1 465.6C244.195 465.57 244.296 465.561 244.395 465.574C244.495 465.587 244.59 465.621 244.675 465.674C244.759 465.727 244.831 465.798 244.886 465.882C244.94 465.966 244.976 466.061 244.99 466.16C244.97 466.345 244.908 466.523 244.807 466.679C244.706 466.835 244.57 466.966 244.41 467.06C244.147 467.242 243.873 467.409 243.59 467.56C243.121 467.823 242.629 468.044 242.12 468.22C241.777 468.34 241.426 468.437 241.07 468.51C240.85 468.56 240.71 468.57 240.71 468.55Z" fill="#263238"/>
<path d="M241.33 468.4C241.234 467.964 241.161 467.523 241.11 467.08C241.035 466.608 240.9 466.148 240.71 465.71C240.596 465.457 240.448 465.222 240.27 465.01C240.09 464.81 239.81 464.63 239.59 464.76C239.37 464.89 239.34 465.22 239.37 465.49C239.415 465.762 239.492 466.027 239.6 466.28C239.796 466.713 240.056 467.114 240.37 467.47C240.92 468.08 241.37 468.37 241.37 468.4C241.37 468.43 241.25 468.4 241.06 468.22C240.788 468.03 240.533 467.816 240.3 467.58C239.956 467.222 239.672 466.81 239.46 466.36C239.339 466.088 239.252 465.803 239.2 465.51C239.159 465.34 239.168 465.161 239.226 464.996C239.285 464.831 239.39 464.686 239.53 464.58C239.695 464.516 239.877 464.509 240.046 464.562C240.215 464.615 240.361 464.723 240.46 464.87C240.653 465.099 240.811 465.355 240.93 465.63C241.12 466.087 241.244 466.568 241.3 467.06C241.35 467.47 241.37 467.81 241.38 468.06C241.379 468.175 241.362 468.289 241.33 468.4Z" fill="#263238"/>
<path d="M309 465.73L309.05 456.07L291 455.85L290.75 470L291.87 470.09C296.87 470.43 317.26 471.45 320.61 470.48C324.35 469.38 309 465.73 309 465.73Z" fill="#455A64"/>
<path d="M290.5 469.57H290.81L291.71 469.64L294.99 469.82C297.77 469.96 301.61 470.09 305.85 470.15C310.09 470.21 313.93 470.15 316.71 470.15L320 470.06H320.89H321.2H320.89H320H316.71C313.94 470.06 310.1 470.06 305.86 470.06C301.62 470.06 297.79 469.89 295.01 469.8L291.72 469.68H290.83L290.5 469.57Z" fill="#263238"/>
<path d="M314.87 470.37C315.025 469.829 315.236 469.306 315.5 468.81C315.833 468.356 316.216 467.94 316.64 467.57C316.075 467.764 315.604 468.164 315.32 468.69C314.967 469.175 314.807 469.774 314.87 470.37Z" fill="#263238"/>
<path d="M309.57 467.6C309.62 467.6 309.88 467.32 310.14 466.91C310.4 466.5 310.59 466.14 310.54 466.1C310.49 466.06 310.23 466.38 309.96 466.79C309.69 467.2 309.51 467.56 309.57 467.6Z" fill="#263238"/>
<path d="M308.11 466.8C308.11 466.85 308.44 466.66 308.75 466.39C309.06 466.12 309.29 465.85 309.25 465.8C309.21 465.75 308.92 465.95 308.61 466.22C308.3 466.49 308.07 466.76 308.11 466.8Z" fill="#263238"/>
<path d="M307.21 465.08C307.509 465.196 307.83 465.244 308.15 465.22C308.486 465.267 308.828 465.236 309.15 465.13C308.832 465.008 308.489 464.963 308.15 465C307.835 464.958 307.514 464.986 307.21 465.08Z" fill="#263238"/>
<path d="M306.9 463.88C307.213 464.083 307.577 464.193 307.95 464.2C308.319 464.267 308.7 464.219 309.04 464.06C308.696 464.011 308.348 463.991 308 464C307.638 463.924 307.27 463.884 306.9 463.88Z" fill="#263238"/>
<path d="M310.2 466C310.584 466.064 310.976 466.064 311.36 466C311.781 465.961 312.197 465.877 312.6 465.75C312.847 465.682 313.086 465.585 313.31 465.46C313.451 465.386 313.559 465.261 313.61 465.11C313.63 465.024 313.625 464.933 313.594 464.85C313.564 464.766 313.511 464.694 313.44 464.64C312.998 464.417 312.493 464.353 312.01 464.461C311.526 464.569 311.095 464.84 310.79 465.23C310.607 465.456 310.474 465.719 310.4 466C310.374 466.102 310.374 466.208 310.4 466.31C310.52 465.947 310.703 465.609 310.94 465.31C311.206 465.009 311.553 464.79 311.94 464.68C312.167 464.603 312.407 464.573 312.646 464.592C312.885 464.611 313.118 464.678 313.33 464.79C313.51 464.93 313.44 465.14 313.23 465.26C313.022 465.376 312.8 465.467 312.57 465.53C312.179 465.662 311.777 465.762 311.37 465.83C310.64 466 310.2 466 310.2 466Z" fill="#263238"/>
<path d="M310.5 466.09C310.647 465.847 310.697 465.558 310.64 465.28C310.611 464.976 310.508 464.684 310.34 464.43C310.241 464.25 310.096 464.099 309.921 463.992C309.746 463.885 309.545 463.826 309.34 463.82C309.222 463.846 309.117 463.917 309.049 464.017C308.98 464.117 308.952 464.24 308.97 464.36C308.997 464.545 309.061 464.722 309.16 464.88C309.31 465.138 309.491 465.377 309.7 465.59C309.879 465.8 310.105 465.965 310.36 466.07C310.36 466.07 310.13 465.86 309.82 465.48C309.634 465.266 309.473 465.031 309.34 464.78C309.18 464.53 309.08 464.09 309.34 464.04C309.6 463.99 309.93 464.31 310.1 464.54C310.26 464.767 310.369 465.027 310.42 465.3C310.468 465.561 310.495 465.825 310.5 466.09Z" fill="#263238"/>
<path d="M290.94 464.62C290.94 464.62 291.45 464.62 292.27 464.68C293.335 464.811 294.341 465.241 295.171 465.921C296.001 466.6 296.622 467.502 296.96 468.52C297.23 469.3 297.25 469.82 297.29 469.82C297.31 469.697 297.31 469.572 297.29 469.45C297.27 469.111 297.209 468.775 297.11 468.45C296.8 467.382 296.173 466.434 295.312 465.731C294.452 465.027 293.398 464.601 292.29 464.51C291.957 464.478 291.623 464.478 291.29 464.51C291.168 464.525 291.049 464.562 290.94 464.62Z" fill="#263238"/>
<path d="M292.91 457.12C292.764 458.351 292.694 459.59 292.7 460.83C292.627 462.069 292.627 463.311 292.7 464.55C292.839 463.315 292.906 462.073 292.9 460.83C292.973 459.594 292.976 458.356 292.91 457.12Z" fill="#263238"/>
<path d="M299.61 468.19C300.475 468.395 301.362 468.493 302.25 468.48C303.138 468.541 304.029 468.48 304.9 468.3C304.9 468.24 303.71 468.3 302.26 468.3C300.81 468.3 299.62 468.12 299.61 468.19Z" fill="#263238"/>
<path d="M296.07 468.14C296.02 468.14 296.16 468.39 296.28 468.66C296.4 468.93 296.46 469.17 296.52 469.17C296.58 469.17 296.62 468.89 296.52 468.57C296.42 468.25 296.11 468.09 296.07 468.14Z" fill="#263238"/>
<path d="M294.75 466.46C294.75 466.46 294.82 466.69 295.01 466.88C295.2 467.07 295.38 467.19 295.42 467.15C295.46 467.11 295.35 466.92 295.17 466.73C294.99 466.54 294.8 466.41 294.75 466.46Z" fill="#263238"/>
<path d="M292.85 465.67C292.85 465.73 293.1 465.73 293.37 465.83C293.64 465.93 293.82 466.07 293.87 466.03C293.92 465.99 293.77 465.74 293.44 465.62C293.11 465.5 292.83 465.62 292.85 465.67Z" fill="#263238"/>
<path d="M291.49 465.3C291.49 465.35 291.57 465.45 291.72 465.51C291.87 465.57 292.01 465.57 292.03 465.51C292.05 465.45 291.95 465.36 291.81 465.3C291.67 465.24 291.52 465.24 291.49 465.3Z" fill="#263238"/>
<path d="M321.23 280.76L314.29 462.07L286.11 462.66L290.79 305.57L259.11 463.86H232.32L266.83 281.13L321.23 280.76Z" fill="#263238"/>
<path d="M297.28 287.36C297.258 288.367 297.151 289.371 296.96 290.36C296.7 292.19 296.3 294.73 295.83 297.51C295.65 298.839 295.382 300.156 295.03 301.45C294.71 302.538 294.069 303.503 293.19 304.22C292.599 304.699 291.892 305.012 291.14 305.13C290.871 305.199 290.589 305.199 290.32 305.13C291.29 304.988 292.203 304.584 292.96 303.96C293.747 303.256 294.313 302.339 294.59 301.32C294.912 300.042 295.163 298.746 295.34 297.44C295.81 294.65 296.26 292.13 296.61 290.31C296.755 289.31 296.979 288.324 297.28 287.36Z" fill="#455A64"/>
<path d="M291.42 288.23C291.48 288.23 291.25 288.57 291.42 289.04C291.454 289.168 291.513 289.287 291.594 289.392C291.675 289.497 291.775 289.584 291.89 289.65C292.034 289.701 292.19 289.712 292.34 289.682C292.49 289.652 292.629 289.583 292.743 289.48C292.856 289.378 292.94 289.247 292.985 289.1C293.031 288.954 293.036 288.799 293 288.65C292.953 288.527 292.881 288.415 292.788 288.322C292.695 288.229 292.583 288.157 292.46 288.11C292 287.91 291.68 288.11 291.65 288.04C291.62 287.97 291.91 287.63 292.57 287.77C292.759 287.816 292.935 287.905 293.084 288.03C293.233 288.155 293.351 288.312 293.43 288.49C293.513 288.727 293.521 288.983 293.453 289.225C293.385 289.467 293.245 289.681 293.05 289.84C292.869 290.012 292.639 290.123 292.392 290.159C292.145 290.195 291.893 290.153 291.67 290.04C291.503 289.939 291.362 289.8 291.258 289.636C291.154 289.471 291.09 289.284 291.07 289.09C291 288.43 291.4 288.17 291.42 288.23Z" fill="#455A64"/>
<path d="M276.29 290.82C275.96 290.007 275.836 289.124 275.931 288.252C276.025 287.379 276.334 286.544 276.83 285.82C276.96 285.88 276.55 286.95 276.42 288.32C276.29 289.69 276.43 290.78 276.29 290.82Z" fill="#455A64"/>
<path d="M279.68 290.6C279.267 289.779 279.123 288.848 279.27 287.94C279.257 287.017 279.529 286.112 280.05 285.35C280.18 285.35 279.86 286.54 279.77 287.97C279.786 288.848 279.756 289.725 279.68 290.6Z" fill="#455A64"/>
<path d="M308.8 291.34C308.773 290.43 308.827 289.52 308.96 288.62C308.926 287.708 308.966 286.795 309.08 285.89C309.456 286.755 309.584 287.707 309.45 288.64C309.484 289.582 309.259 290.516 308.8 291.34Z" fill="#455A64"/>
<path d="M312.48 291.14C312.34 291.08 312.78 289.89 312.88 288.37C312.98 286.85 312.72 285.62 312.88 285.58C313.282 286.466 313.457 287.437 313.391 288.408C313.324 289.378 313.018 290.317 312.5 291.14H312.48Z" fill="#455A64"/>
<path d="M282 205.33L299.4 203.94C299.51 201.94 299.4 194.06 299.4 194.06C299.4 194.06 306.64 192.93 306.73 185.7C306.82 178.47 305.56 161.85 305.56 161.85C301.44 160.065 296.917 159.416 292.461 159.97C288.004 160.524 283.778 162.261 280.22 165L279.15 165.83L282 205.33Z" fill="#FFBE9D"/>
<path d="M299.34 194C296 194.068 292.715 193.134 289.91 191.32C289.91 191.32 292.14 196.53 299.36 195.88L299.34 194Z" fill="#EB996E"/>
<path d="M302.67 173.19C302.67 173.455 302.565 173.71 302.377 173.897C302.19 174.085 301.935 174.19 301.67 174.19C301.539 174.199 301.407 174.183 301.282 174.141C301.157 174.1 301.041 174.034 300.942 173.947C300.842 173.861 300.761 173.756 300.702 173.638C300.644 173.52 300.609 173.391 300.6 173.26C300.6 172.995 300.705 172.74 300.893 172.553C301.081 172.365 301.335 172.26 301.6 172.26C301.731 172.25 301.863 172.267 301.988 172.309C302.113 172.35 302.229 172.416 302.328 172.503C302.428 172.589 302.509 172.694 302.568 172.812C302.626 172.93 302.661 173.059 302.67 173.19Z" fill="#263238"/>
<path d="M304.12 172C303.99 172.13 303.21 171.55 302.12 171.55C301.03 171.55 300.19 172.11 300.07 171.98C299.95 171.85 300.14 171.67 300.5 171.41C300.984 171.082 301.556 170.908 302.14 170.91C302.718 170.908 303.282 171.09 303.75 171.43C304.07 171.72 304.18 172 304.12 172Z" fill="#263238"/>
<path d="M291.44 173.45C291.44 173.715 291.335 173.97 291.147 174.157C290.96 174.345 290.705 174.45 290.44 174.45C290.309 174.459 290.177 174.443 290.052 174.401C289.927 174.36 289.811 174.294 289.712 174.207C289.612 174.121 289.531 174.016 289.472 173.898C289.414 173.78 289.379 173.651 289.37 173.52C289.37 173.255 289.475 173 289.663 172.813C289.851 172.625 290.105 172.52 290.37 172.52C290.502 172.51 290.634 172.527 290.758 172.569C290.883 172.61 290.999 172.676 291.098 172.763C291.198 172.849 291.279 172.954 291.338 173.072C291.396 173.19 291.431 173.319 291.44 173.45Z" fill="#263238"/>
<path d="M293.19 172.23C293.06 172.37 292.28 171.79 291.19 171.79C290.1 171.79 289.26 172.35 289.14 172.21C289.02 172.07 289.21 171.91 289.57 171.65C290.049 171.313 290.624 171.138 291.21 171.15C291.788 171.148 292.352 171.33 292.82 171.67C293.14 171.93 293.26 172.17 293.19 172.23Z" fill="#263238"/>
<path d="M297.23 180.48C297.815 180.298 298.419 180.188 299.03 180.15C299.32 180.15 299.59 180.07 299.63 179.87C299.656 179.577 299.589 179.283 299.44 179.03C299.18 178.363 298.9 177.643 298.6 176.87C297.823 175.04 297.194 173.151 296.72 171.22C297.644 172.985 298.426 174.821 299.06 176.71C299.34 177.46 299.6 178.19 299.86 178.88C300.037 179.225 300.087 179.622 300 180C299.959 180.101 299.895 180.191 299.814 180.264C299.732 180.337 299.635 180.39 299.53 180.42C299.374 180.465 299.213 180.489 299.05 180.49C298.445 180.562 297.834 180.559 297.23 180.48Z" fill="#263238"/>
<path d="M294 181.25C294.18 181.25 294.18 182.44 295.21 183.3C296.24 184.16 297.53 184.03 297.54 184.19C297.55 184.35 297.25 184.43 296.71 184.44C296.005 184.452 295.318 184.214 294.77 183.77C294.227 183.343 293.869 182.724 293.77 182.04C293.74 181.54 293.87 181.24 294 181.25Z" fill="#263238"/>
<path d="M293.48 167.88C293.37 168.18 292.26 168.03 290.96 168.19C289.66 168.35 288.6 168.71 288.42 168.43C288.35 168.3 288.53 168.02 288.95 167.73C289.518 167.37 290.162 167.144 290.83 167.069C291.499 166.995 292.176 167.074 292.81 167.3C293.29 167.49 293.53 167.73 293.48 167.88Z" fill="#263238"/>
<path d="M303.71 168.81C303.52 169.06 302.71 168.81 301.83 168.81C300.95 168.81 300.13 168.98 299.95 168.71C299.77 168.44 299.95 168.33 300.34 168.09C300.794 167.795 301.33 167.651 301.87 167.68C302.409 167.691 302.932 167.866 303.37 168.18C303.69 168.42 303.8 168.68 303.71 168.81Z" fill="#263238"/>
<path d="M280 173.34C279.88 173.29 275 171.87 275.19 176.82C275.38 181.77 280.28 180.59 280.29 180.45C280.3 180.31 280 173.34 280 173.34Z" fill="#FFBE9D"/>
<path d="M278.75 178.62C278.75 178.62 278.67 178.68 278.53 178.75C278.322 178.835 278.088 178.835 277.88 178.75C277.563 178.552 277.304 178.274 277.128 177.944C276.953 177.614 276.867 177.244 276.88 176.87C276.851 176.444 276.92 176.016 277.08 175.62C277.121 175.465 277.199 175.323 277.307 175.204C277.415 175.086 277.55 174.995 277.7 174.94C277.799 174.912 277.904 174.918 277.999 174.958C278.093 174.998 278.172 175.069 278.22 175.16C278.29 175.3 278.22 175.4 278.29 175.41C278.36 175.42 278.39 175.32 278.35 175.12C278.316 174.997 278.242 174.888 278.14 174.81C277.999 174.715 277.828 174.676 277.66 174.7C277.458 174.747 277.272 174.845 277.12 174.985C276.967 175.126 276.854 175.303 276.79 175.5C276.588 175.934 276.499 176.412 276.53 176.89C276.519 177.331 276.64 177.765 276.876 178.138C277.113 178.51 277.456 178.803 277.86 178.98C277.993 179.015 278.132 179.019 278.267 178.993C278.402 178.968 278.53 178.912 278.64 178.83C278.75 178.74 278.77 178.63 278.75 178.62Z" fill="#EB996E"/>
<path d="M308.26 155.6C307.733 154.558 306.974 153.65 306.042 152.947C305.11 152.243 304.029 151.762 302.882 151.541C301.735 151.32 300.553 151.365 299.426 151.671C298.299 151.978 297.257 152.538 296.38 153.31C295.831 152.215 295.021 151.271 294.022 150.561C293.023 149.851 291.865 149.398 290.65 149.24C289.435 149.082 288.2 149.225 287.052 149.655C285.905 150.086 284.881 150.791 284.07 151.71C282.68 153.29 281.96 155.42 280.34 156.71C278.93 157.86 277.03 158.24 275.61 159.37C274.826 159.998 274.231 160.831 273.89 161.776C273.548 162.721 273.475 163.742 273.676 164.726C273.878 165.71 274.347 166.62 275.032 167.354C275.718 168.089 276.592 168.62 277.56 168.89C277.204 169.601 276.997 170.378 276.95 171.172C276.904 171.966 277.019 172.762 277.289 173.51C277.56 174.258 277.979 174.943 278.523 175.524C279.066 176.106 279.722 176.57 280.45 176.89L281.17 176.59C282.517 175.058 283.379 173.16 283.646 171.138C283.913 169.115 283.573 167.059 282.67 165.23C282.757 165.235 282.843 165.235 282.93 165.23C284.174 165.924 285.632 166.132 287.021 165.815C288.409 165.497 289.631 164.676 290.45 163.51C291.453 164.212 292.635 164.612 293.858 164.664C295.08 164.715 296.292 164.415 297.35 163.8C297.647 163.575 297.987 163.414 298.35 163.33C298.808 163.337 299.255 163.472 299.64 163.72C300.713 164.3 301.936 164.544 303.15 164.42C303.709 164.351 304.243 164.143 304.7 163.815C305.158 163.486 305.526 163.048 305.77 162.54H305.86C306.552 162.382 307.187 162.038 307.696 161.544C308.206 161.05 308.57 160.426 308.75 159.74C309.11 158.347 308.936 156.87 308.26 155.6Z" fill="#263238"/>
<path d="M319.24 242.44L319.88 209.84C314.09 204.15 311 202.45 302.94 201.5L300.75 201.25L300.06 195.88L280.3 194.76L281.3 201.14C278.44 201.26 276.06 202.14 273.63 202.61C265.95 204.08 260.42 209.67 258.89 214.84C257.62 219.09 249.51 250.6 249.51 250.6L247.86 260.11L266 253.53V260.38V285.54H321C321.19 279.54 319.24 242.44 319.24 242.44Z" fill="#1F074D"/>
<g opacity="0.2">
<path d="M319.24 242.44L319.88 209.84C314.09 204.15 311 202.45 302.94 201.5L300.75 201.25L300.06 195.88L280.3 194.76L281.3 201.14C278.44 201.26 276.06 202.14 273.63 202.61C265.95 204.08 260.42 209.67 258.89 214.84C257.62 219.09 249.51 250.6 249.51 250.6L247.86 260.11L266 253.53V260.38V285.54H321C321.19 279.54 319.24 242.44 319.24 242.44Z" fill="black"/>
</g>
<path d="M256.12 251.05L283.25 247.2L288.41 256.44L263.19 267.81C261.784 268.455 260.257 268.795 258.71 268.81C256.545 268.805 254.43 268.154 252.636 266.941C250.843 265.728 249.451 264.008 248.64 262L247.82 260L256.12 251.05Z" fill="#1F074D"/>
<g opacity="0.2">
<path d="M256.12 251.05L283.25 247.2L288.41 256.44L263.19 267.81C261.784 268.455 260.257 268.795 258.71 268.81C256.545 268.805 254.43 268.154 252.636 266.941C250.843 265.728 249.451 264.008 248.64 262L247.82 260L256.12 251.05Z" fill="black"/>
</g>
<path d="M311.56 203.49C311.56 203.49 319.23 206.1 322.45 213.49C324.55 218.31 327.64 241.49 327.64 241.49L331.53 249C332.466 250.801 332.953 252.801 332.95 254.83V255.98C332.953 258.894 331.95 261.72 330.11 263.98C329.043 265.293 327.723 266.378 326.228 267.172C324.734 267.965 323.096 268.451 321.41 268.6C317.52 268.95 312.82 269.1 311.82 267.96C310.05 265.96 307.39 260.49 307.39 260.49L318.72 254.49L313.84 245.49L311.56 203.49Z" fill="#1F074D"/>
<g opacity="0.2">
<path d="M311.56 203.49C311.56 203.49 319.23 206.1 322.45 213.49C324.55 218.31 327.64 241.49 327.64 241.49L331.53 249C332.466 250.801 332.953 252.801 332.95 254.83V255.98C332.953 258.894 331.95 261.72 330.11 263.98C329.043 265.293 327.723 266.378 326.228 267.172C324.734 267.965 323.096 268.451 321.41 268.6C317.52 268.95 312.82 269.1 311.82 267.96C310.05 265.96 307.39 260.49 307.39 260.49L318.72 254.49L313.84 245.49L311.56 203.49Z" fill="black"/>
</g>
<path d="M265.08 267C265.08 267 265.22 266.9 265.52 266.75L266.82 266.12L271.69 263.84L288.31 256.25L288.2 256.6L285.02 250.9L283.02 247.36L283.26 247.48L263.38 249.43L257.48 249.96L255.88 250.08C255.695 250.109 255.506 250.109 255.32 250.08C255.5 250.031 255.684 249.997 255.87 249.98L257.46 249.78L263.35 249.1L283.23 247H283.39L283.47 247.14L285.47 250.68L288.64 256.38L288.77 256.61L288.53 256.72L271.84 264.15L266.91 266.29L265.57 266.85C265.412 266.915 265.248 266.965 265.08 267Z" fill="#263238"/>
<path d="M269.9 248.37C269.76 248.37 269.65 243.52 269.65 237.54C269.65 231.56 269.76 226.71 269.9 226.71C270.04 226.71 270.15 231.56 270.15 237.54C270.15 243.52 270 248.37 269.9 248.37Z" fill="#263238"/>
<path d="M316.6 255.62C316.6 255.62 316.89 255.53 317.42 255.49C318.186 255.418 318.957 255.462 319.71 255.62C320.26 255.738 320.76 256.024 321.14 256.44C321.536 256.938 321.795 257.531 321.89 258.16C322.013 258.854 321.951 259.568 321.71 260.23C321.436 260.939 320.96 261.551 320.34 261.99C319.14 262.722 317.802 263.199 316.41 263.39C315.299 263.605 314.171 263.716 313.04 263.72C311.995 263.809 310.944 263.627 309.99 263.19C310.999 263.345 312.02 263.405 313.04 263.37C314.143 263.317 315.24 263.174 316.32 262.94C317.64 262.74 318.908 262.281 320.05 261.59C320.572 261.217 320.978 260.706 321.224 260.114C321.47 259.522 321.545 258.872 321.44 258.24C321.368 257.684 321.158 257.155 320.83 256.7C320.508 256.339 320.087 256.082 319.62 255.96C318.9 255.78 318.162 255.686 317.42 255.68C317.145 255.692 316.87 255.671 316.6 255.62Z" fill="#263238"/>
<path d="M321.1 268.73C320.453 268.926 319.775 269.004 319.1 268.96C317.502 269.011 315.908 268.749 314.41 268.19C313.582 267.877 312.799 267.457 312.08 266.94C311.497 266.502 311.007 265.951 310.64 265.32C310.266 264.766 310.026 264.133 309.94 263.47C310.02 263.47 310.28 264.15 310.94 265.13C311.325 265.692 311.806 266.183 312.36 266.58C313.059 267.047 313.811 267.43 314.6 267.72C316.045 268.258 317.569 268.559 319.11 268.61C319.775 268.603 320.44 268.643 321.1 268.73Z" fill="#263238"/>
<path d="M326.52 245.23C326.13 245.811 325.681 246.351 325.18 246.84C324.31 247.79 323.08 249.09 321.7 250.5C320.32 251.91 319.06 253.18 318.12 254.07C317.65 254.591 317.119 255.054 316.54 255.45C316.916 254.858 317.363 254.314 317.87 253.83C318.74 252.83 319.97 251.57 321.34 250.16C322.938 248.386 324.67 246.738 326.52 245.23Z" fill="#263238"/>
<path d="M314.16 240.17C313.91 238.117 313.826 236.047 313.91 233.98C313.826 231.91 313.91 229.837 314.16 227.78C314.41 229.837 314.494 231.91 314.41 233.98C314.494 236.047 314.411 238.117 314.16 240.17Z" fill="#263238"/>
<path d="M318.2 207.69C318.2 207.83 305.99 207.95 290.93 207.95C275.87 207.95 263.66 207.83 263.66 207.69C263.66 207.55 275.87 207.43 290.93 207.43C305.99 207.43 318.2 207.54 318.2 207.69Z" fill="#FAFAFA"/>
<path d="M300.21 201.44C297.08 201.682 293.938 201.752 290.8 201.65C287.663 201.722 284.525 201.615 281.4 201.33C284.527 201.094 287.665 201.028 290.8 201.13C293.94 201.064 297.081 201.167 300.21 201.44Z" fill="#263238"/>
<path d="M324.13 218.71C324.13 218.85 309.31 218.97 291.02 218.97C272.73 218.97 257.9 218.85 257.9 218.71C257.9 218.57 272.73 218.44 291.02 218.44C309.31 218.44 324.13 218.56 324.13 218.71Z" fill="#FAFAFA"/>
<path d="M326.18 230C326.18 230.15 310.18 230.26 290.39 230.26C270.6 230.26 254.6 230.15 254.6 230C254.6 229.85 270.6 229.74 290.39 229.74C310.18 229.74 326.18 229.89 326.18 230Z" fill="#FAFAFA"/>
<path d="M327.46 241.05C327.46 241.19 310.55 241.31 289.69 241.31C268.83 241.31 251.92 241.19 251.92 241.05C251.92 240.91 268.83 240.79 289.69 240.79C310.55 240.79 327.46 240.9 327.46 241.05Z" fill="#FAFAFA"/>
<path d="M332.57 259C332.57 259.14 313.78 259.26 290.57 259.26C267.36 259.26 248.57 259.14 248.57 259C248.57 258.86 267.36 258.74 290.57 258.74C313.78 258.74 332.57 258.84 332.57 259Z" fill="#FAFAFA"/>
<path d="M320.52 271.57C320.52 271.71 308.12 271.83 292.83 271.83C277.54 271.83 265.14 271.71 265.14 271.57C265.14 271.43 277.53 271.31 292.83 271.31C308.13 271.31 320.52 271.42 320.52 271.57Z" fill="#FAFAFA"/>
<path d="M307.7 242.76L307.11 242.32C305.6 241.187 303.87 240.381 302.031 239.956C300.192 239.53 298.284 239.494 296.43 239.85C293.378 240.435 290.521 241.776 288.12 243.75L283.47 247.58L288.41 256.44L291.78 251.73C291.78 251.73 294.92 255.99 295.48 255.54C295.978 255.009 296.393 254.405 296.71 253.75L294.47 250.61L299.85 251.73L307.7 248.14L304.33 243.88L307.7 245V242.76Z" fill="#FFBE9D"/>
<path d="M299.41 241.95L282.14 262.86L283.47 264.29L311.49 260.02L325.39 239.11L324.1 237.95L299.41 241.95Z" fill="#263238"/>
<path d="M317.73 247.47C317.192 247.468 316.666 247.63 316.221 247.933C315.776 248.237 315.434 248.668 315.24 249.17C314.937 250.214 314.348 251.153 313.54 251.88C312.29 252.56 310.14 253.1 309.01 252.55C307.88 252 303.35 247.92 302.56 248.37C301.77 248.82 301.09 249.84 301.88 250.75C302.67 251.66 306.88 254.37 306.07 255.28C305.26 256.19 296.44 252.2 295.07 252.55C293.7 252.9 292.92 253.73 293.71 254.28C294.5 254.83 300.5 257.09 300.84 257.88C300.84 257.88 291.78 255.5 291.44 256.07C291.1 256.64 290.54 257.54 291.44 257.88C292.34 258.22 300.16 260.26 300.84 260.6C301.963 261.061 303.133 261.396 304.33 261.6C305.566 261.921 306.784 262.305 307.98 262.75C309.812 263.391 311.815 263.338 313.61 262.6L314.53 262.23C315.226 261.945 315.815 261.45 316.215 260.813C316.615 260.176 316.806 259.43 316.76 258.68L316.58 255.6L317.58 253.05L317.73 247.47Z" fill="#FFBE9D"/>
<path d="M325.44 239.3C325.273 239.365 325.098 239.408 324.92 239.43L323.42 239.69L317.9 240.58L309.7 241.83L304.86 242.56C303.151 242.748 301.528 243.405 300.17 244.46C298.925 245.671 297.784 246.986 296.76 248.39C295.69 249.71 294.67 250.99 293.69 252.21L288.48 258.66L284.93 263L283.93 264.16C283.822 264.3 283.697 264.428 283.56 264.54C283.56 264.54 283.64 264.38 283.85 264.1L284.76 262.88L288.18 258.46L293.31 251.93L296.31 248.09C297.354 246.66 298.518 245.322 299.79 244.09C301.217 242.98 302.923 242.288 304.72 242.09L309.57 241.39L317.79 240.24L323.34 239.51L324.85 239.34C325.043 239.294 325.243 239.28 325.44 239.3Z" fill="#455A64"/>
<path d="M312.33 243.88C312.031 244.036 311.765 244.25 311.55 244.51C311.452 244.647 311.4 244.812 311.4 244.98C311.4 245.148 311.452 245.313 311.55 245.45C311.711 245.591 311.917 245.668 312.13 245.668C312.343 245.668 312.55 245.591 312.71 245.45C312.936 245.29 313.093 245.051 313.15 244.78C313.179 244.646 313.174 244.506 313.133 244.375C313.093 244.244 313.02 244.125 312.92 244.03C312.811 243.946 312.678 243.9 312.54 243.9C312.403 243.9 312.269 243.946 312.16 244.03" fill="#FAFAFA"/>
<path d="M230.53 196.86L225.45 187.86C228.592 182.758 229.712 176.665 228.589 170.779C227.466 164.893 224.183 159.64 219.383 156.053C214.584 152.465 208.616 150.803 202.653 151.392C196.691 151.981 191.164 154.78 187.16 159.238C183.155 163.695 180.964 169.489 181.015 175.481C181.066 181.473 183.357 187.229 187.437 191.617C191.516 196.005 197.09 198.709 203.062 199.196C209.035 199.683 214.973 197.919 219.71 194.25L230.53 196.86Z" fill="#1F074D"/>
<path d="M196.73 172.46C196.73 170.3 198.03 168.93 199.88 168.93C201.73 168.93 203.01 170.28 203.01 172.46C203.01 174.64 201.72 176 199.88 176C198.04 176 196.73 174.63 196.73 172.46ZM201.2 172.46C201.2 171.09 200.67 170.46 199.88 170.46C199.09 170.46 198.56 171.14 198.56 172.46C198.56 173.78 199.1 174.46 199.88 174.46C200.66 174.46 201.2 173.84 201.2 172.46ZM207.42 169.07H209.57L200.93 181.9H198.78L207.42 169.07ZM205.34 178.51C205.34 176.35 206.64 174.97 208.47 174.97C210.3 174.97 211.61 176.35 211.61 178.51C211.61 180.67 210.31 182.05 208.47 182.05C206.63 182.05 205.34 180.67 205.34 178.51ZM209.79 178.51C209.79 177.15 209.26 176.51 208.47 176.51C207.68 176.51 207.15 177.17 207.15 178.51C207.15 179.85 207.69 180.51 208.47 180.51C209.25 180.51 209.79 179.87 209.79 178.51Z" fill="white"/>
</svg>
