<svg width="113" height="101" viewBox="0 0 113 101" fill="none" xmlns="http://www.w3.org/2000/svg">
<path d="M23.6051 12.8384C23.6051 14.256 22.4563 15.4069 21.0365 15.4069H13.4514C12.0338 15.4069 10.8829 14.2582 10.8829 12.8384C10.8829 11.4186 12.0316 10.2698 13.4514 10.2698H21.0365C22.4542 10.2698 23.6051 11.4186 23.6051 12.8384Z" fill="#CA9A6F"/>
<path d="M6.02552 15.4048H2.56853C1.15089 15.4048 0 14.2561 0 12.8363C0 11.4165 1.14874 10.2678 2.56853 10.2678H6.02552C7.44316 10.2678 8.59405 11.4165 8.59405 12.8363C8.59405 14.2561 7.44531 15.4048 6.02552 15.4048Z" fill="#CA9A6F"/>
<path d="M103.047 0H23.5857C22.166 0 21.0151 1.14874 21.0151 2.56638C21.0151 3.27628 21.3033 3.91734 21.7658 4.382C22.2348 4.85096 22.8737 5.13277 23.5857 5.13277H44.2244C44.9343 5.13277 45.5753 5.42533 46.04 5.88784C46.509 6.3525 46.7908 6.99571 46.7908 7.70346C46.7908 9.1211 45.642 10.2698 44.2244 10.2698H28.4647C27.0449 10.2698 25.894 11.4186 25.894 12.8362C25.894 14.2539 27.0427 15.4069 28.4647 15.4069H34.9721C35.6777 15.4112 36.3144 15.6995 36.7791 16.1534C37.2437 16.6223 37.5298 17.2612 37.5298 17.9733C37.5298 19.3909 36.3811 20.544 34.9635 20.544H32.7413C32.7284 20.544 32.7198 20.5397 32.709 20.5397H30.3018C30.2609 20.5397 30.2158 20.5397 30.1749 20.5354L30.1706 20.5397H15.7037C14.2839 20.5397 13.1331 21.6884 13.1331 23.1104C13.1331 24.5323 14.2818 25.6768 15.7037 25.6768H94.5281L103.047 0Z" fill="#CA9A6F"/>
<path d="M103.047 0H77.2453L68.7309 25.6768L55.0643 66.8658L80.84 66.9411L94.5302 25.6768L103.047 0Z" fill="#CA9A6F"/>
<path d="M88.8877 87.7734C88.8877 86.3557 90.0364 85.2048 91.4562 85.2048H99.0414C100.459 85.2048 101.61 86.3536 101.61 87.7734C101.61 89.1932 100.461 90.3419 99.0414 90.3419H91.4562C90.0386 90.3419 88.8877 89.1932 88.8877 87.7734Z" fill="#CA9A6F"/>
<path d="M106.467 85.207H109.924C111.342 85.207 112.493 86.3557 112.493 87.7755C112.493 89.1953 111.344 90.344 109.924 90.344H106.467C105.05 90.344 103.899 89.1953 103.899 87.7755C103.899 86.3557 105.048 85.207 106.467 85.207Z" fill="#CA9A6F"/>
<path d="M9.44598 100.612H88.9071C90.3269 100.612 91.4778 99.4631 91.4778 98.0454C91.4778 97.3355 91.1895 96.6945 90.727 96.2298C90.258 95.7608 89.6191 95.479 88.9071 95.479H68.2685C67.5586 95.479 66.9175 95.1865 66.4528 94.724C65.9839 94.2593 65.7021 93.6161 65.7021 92.9084C65.7021 91.4907 66.8508 90.342 68.2685 90.342H84.0282C85.448 90.342 86.5989 89.1932 86.5989 87.7756C86.5989 86.3579 85.4501 85.2049 84.0282 85.2049H77.5208C76.8152 85.2006 76.1784 84.9123 75.7138 84.4584C75.2491 83.9895 74.963 83.3506 74.963 82.6385C74.963 81.2209 76.1117 80.0678 77.5294 80.0678H79.7516C79.7645 80.0678 79.7731 80.0721 79.7838 80.0721H82.191C82.2319 80.0721 82.2771 80.0721 82.318 80.0764L82.3223 80.0721H96.7891C98.2089 80.0721 99.3598 78.9234 99.3598 77.5014C99.3598 76.0795 98.211 74.9351 96.7891 74.9351H17.9626L9.44598 100.612Z" fill="#CA9A6F"/>
<path d="M9.44598 100.612H35.2454L43.762 74.935L57.4264 33.7459L31.6528 33.6707L17.9626 74.935L9.44598 100.612Z" fill="#CA9A6F"/>
</svg>
