<?xml version="1.0" encoding="UTF-8"?>
<svg id="Calque_1" data-name="Calque 1" xmlns="http://www.w3.org/2000/svg" viewBox="80 0 527 467.7">
  <defs>
    <style>
      .cls-1 {
        fill: #ca9a6f;
      }
    </style>
  </defs>
  <g>
    <path class="cls-1" d="M193.14,59.68c0,6.59-5.34,11.94-11.94,11.94h-35.26c-6.59,0-11.94-5.34-11.94-11.94s5.34-11.94,11.94-11.94h35.26c6.59,0,11.94,5.34,11.94,11.94Z"/>
    <path class="cls-1" d="M111.42,71.61h-16.07c-6.59,0-11.94-5.34-11.94-11.94s5.34-11.94,11.94-11.94h16.07c6.59,0,11.94,5.34,11.94,11.94s-5.34,11.94-11.94,11.94Z"/>
    <path class="cls-1" d="M562.43,0H193.05c-6.6,0-11.95,5.34-11.95,11.93,0,3.3,1.34,6.28,3.49,8.44,2.18,2.18,5.15,3.49,8.46,3.49h95.94c3.3,0,6.28,1.36,8.44,3.51,2.18,2.16,3.49,5.15,3.49,8.44,0,6.59-5.34,11.93-11.93,11.93h-73.26c-6.6,0-11.95,5.34-11.95,11.93s5.34,11.95,11.95,11.95h30.25c3.28,.02,6.24,1.36,8.4,3.47,2.16,2.18,3.49,5.15,3.49,8.46,0,6.59-5.34,11.95-11.93,11.95h-10.33c-.06,0-.1-.02-.15-.02h-11.19c-.19,0-.4,0-.59-.02l-.02,.02h-67.25c-6.6,0-11.95,5.34-11.95,11.95s5.34,11.93,11.95,11.93h366.42L562.43,0Z"/>
  </g>
  <polygon class="cls-1" points="562.43 0 442.49 0 402.91 119.36 339.38 310.83 459.2 311.18 522.84 119.36 562.43 0"/>
  <g>
    <path class="cls-1" d="M496.61,408.02c0-6.59,5.34-11.94,11.94-11.94h35.26c6.59,0,11.94,5.34,11.94,11.94s-5.34,11.94-11.94,11.94h-35.26c-6.59,0-11.94-5.34-11.94-11.94Z"/>
    <path class="cls-1" d="M578.33,396.09h16.07c6.59,0,11.94,5.34,11.94,11.94s-5.34,11.94-11.94,11.94h-16.07c-6.59,0-11.94-5.34-11.94-11.94s5.34-11.94,11.94-11.94Z"/>
    <path class="cls-1" d="M127.32,467.7H496.7c6.6,0,11.95-5.34,11.95-11.93,0-3.3-1.34-6.28-3.49-8.44-2.18-2.18-5.15-3.49-8.46-3.49h-95.94c-3.3,0-6.28-1.36-8.44-3.51-2.18-2.16-3.49-5.15-3.49-8.44,0-6.59,5.34-11.93,11.93-11.93h73.26c6.6,0,11.95-5.34,11.95-11.93s-5.34-11.95-11.95-11.95h-30.25c-3.28-.02-6.24-1.36-8.4-3.47-2.16-2.18-3.49-5.15-3.49-8.46,0-6.59,5.34-11.95,11.93-11.95h10.33c.06,0,.1,.02,.15,.02h11.19c.19,0,.4,0,.59,.02l.02-.02h67.25c6.6,0,11.95-5.34,11.95-11.95s-5.34-11.93-11.95-11.93H166.91l-39.59,119.36Z"/>
  </g>
  <polygon class="cls-1" points="127.32 467.7 247.25 467.7 286.84 348.34 350.36 156.87 230.55 156.52 166.91 348.34 127.32 467.7"/>
</svg>