<svg width="888" height="878" viewBox="0 0 888 878" fill="none" xmlns="http://www.w3.org/2000/svg">
<path d="M888 679.142H0V679.586H888V679.142Z" fill="#EBEBEB"/>
<path d="M799.022 707.718H740.201V708.162H799.022V707.718Z" fill="#EBEBEB"/>
<path d="M588.247 712.549H572.813V712.993H588.247V712.549Z" fill="#EBEBEB"/>
<path d="M738.425 691.237H704.344V691.681H738.425V691.237Z" fill="#EBEBEB"/>
<path d="M169.874 694.221H93.1689V694.665H169.874V694.221Z" fill="#EBEBEB"/>
<path d="M196.94 694.221H185.698V694.665H196.94V694.221Z" fill="#EBEBEB"/>
<path d="M399.866 701.715H233.49V702.159H399.866V701.715Z" fill="#EBEBEB"/>
<path d="M420.912 599.933H77.9845C75.2981 599.928 72.7232 598.858 70.8253 596.956C68.9273 595.055 67.8613 592.478 67.8613 589.792V107.732C67.8847 105.061 68.961 102.507 70.8565 100.625C72.7519 98.7428 75.3134 97.6845 77.9845 97.6799H420.912C423.602 97.6799 426.181 98.7484 428.083 100.65C429.985 102.552 431.053 105.131 431.053 107.821V589.792C431.053 592.481 429.985 595.061 428.083 596.963C426.181 598.864 423.602 599.933 420.912 599.933ZM77.9845 98.0351C75.4158 98.0398 72.9539 99.0636 71.1392 100.882C69.3245 102.7 68.3053 105.163 68.3053 107.732V589.792C68.3053 592.361 69.3245 594.824 71.1392 596.642C72.9539 598.46 75.4158 599.484 77.9845 599.489H420.912C423.483 599.484 425.946 598.461 427.764 596.643C429.581 594.826 430.605 592.362 430.609 589.792V107.732C430.605 105.162 429.581 102.698 427.764 100.88C425.946 99.063 423.483 98.0398 420.912 98.0351H77.9845Z" fill="#EBEBEB"/>
<path d="M805.079 599.933H462.133C459.445 599.928 456.868 598.858 454.968 596.957C453.067 595.057 451.997 592.48 451.992 589.792V107.732C452.02 105.059 453.1 102.505 454.999 100.624C456.897 98.7422 459.46 97.6845 462.133 97.6799H805.079C807.747 97.6892 810.304 98.7495 812.195 100.631C814.087 102.513 815.161 105.064 815.184 107.732V589.792C815.184 592.475 814.121 595.049 812.227 596.95C810.332 598.851 807.762 599.923 805.079 599.933ZM462.133 98.0351C459.563 98.0398 457.099 99.063 455.282 100.88C453.464 102.698 452.441 105.162 452.436 107.732V589.792C452.441 592.362 453.464 594.826 455.282 596.643C457.099 598.461 459.563 599.484 462.133 599.489H805.079C807.649 599.484 810.113 598.461 811.93 596.643C813.748 594.826 814.771 592.362 814.776 589.792V107.732C814.771 105.162 813.748 102.698 811.93 100.88C810.113 99.063 807.649 98.0398 805.079 98.0351H462.133Z" fill="#EBEBEB"/>
<path d="M134.372 516.088H260.823C263.743 516.088 266.635 516.663 269.332 517.78C272.03 518.898 274.481 520.536 276.546 522.601C278.611 524.665 280.249 527.117 281.366 529.814C282.484 532.512 283.059 535.403 283.059 538.323V651.987C283.059 657.885 280.716 663.54 276.546 667.71C272.376 671.88 266.72 674.223 260.823 674.223H134.372V516.159V516.088Z" fill="#F0F0F0"/>
<path d="M135.42 516.088H133.324C121.044 516.088 111.089 526.043 111.089 538.323V651.916C111.089 664.197 121.044 674.152 133.324 674.152H135.42C147.7 674.152 157.656 664.197 157.656 651.916V538.323C157.656 526.043 147.7 516.088 135.42 516.088Z" fill="#F5F5F5"/>
<path d="M151.297 674.152H316.341V574.394H151.297V674.152Z" fill="#F0F0F0"/>
<path d="M137.747 679.142H435.209C436.416 679.138 437.573 678.655 438.425 677.799C439.277 676.944 439.756 675.786 439.756 674.578V674.152H260.895L133.2 674.578C133.2 675.786 133.679 676.944 134.531 677.799C135.383 678.655 136.539 679.138 137.747 679.142Z" fill="#E0E0E0"/>
<path d="M268.034 450.518H421.587C425.559 450.443 429.501 451.216 433.15 452.786C436.8 454.356 440.072 456.686 442.75 459.62C445.427 462.555 447.448 466.027 448.677 469.805C449.907 473.582 450.316 477.578 449.879 481.527L439.755 596.967H224.185L234.29 481.527C235.149 473.126 239.057 465.331 245.275 459.616C251.493 453.902 259.59 450.665 268.034 450.518Z" fill="#E0E0E0"/>
<path d="M243.774 450.518H400.328C404.106 450.455 407.854 451.197 411.323 452.694C414.793 454.192 417.904 456.41 420.45 459.201C422.997 461.993 424.92 465.294 426.093 468.886C427.266 472.478 427.661 476.279 427.252 480.035L417.005 596.949H201.416L211.664 480.035C212.479 472.039 216.197 464.619 222.114 459.18C228.032 453.741 235.737 450.659 243.774 450.518Z" fill="#F5F5F5"/>
<path d="M164.528 565.283H295.26C298.971 565.283 302.531 566.757 305.156 569.382C307.78 572.006 309.255 575.566 309.255 579.278V591.905C309.257 593.745 308.897 595.566 308.194 597.266C307.492 598.966 306.462 600.511 305.162 601.813C303.862 603.114 302.319 604.146 300.619 604.851C298.92 605.555 297.099 605.918 295.26 605.918H164.528C159.14 605.918 153.972 603.777 150.162 599.967C146.352 596.157 144.211 590.989 144.211 585.6C144.211 580.212 146.352 575.044 150.162 571.234C153.972 567.424 159.14 565.283 164.528 565.283Z" fill="#E0E0E0"/>
<path d="M317.069 516.088H443.521C449.418 516.088 455.073 518.431 459.243 522.601C463.413 526.77 465.756 532.426 465.756 538.323V651.987C465.756 657.885 463.413 663.54 459.243 667.71C455.073 671.88 449.418 674.223 443.521 674.223H317.069V516.159V516.088Z" fill="#F0F0F0"/>
<path d="M318.117 516.088H316.022C303.741 516.088 293.786 526.043 293.786 538.323V651.916C293.786 664.197 303.741 674.152 316.022 674.152H318.117C330.398 674.152 340.353 664.197 340.353 651.916V538.323C340.353 526.043 330.398 516.088 318.117 516.088Z" fill="#F5F5F5"/>
<path d="M666.017 429.206H544.45V679.142H666.017V429.206Z" fill="#F0F0F0"/>
<path d="M562.637 659.677V448.671H559.831V659.677H562.637Z" fill="#E6E6E6"/>
<path d="M648.098 448.671H559.831V452.223H648.098V448.671Z" fill="#E6E6E6"/>
<path d="M790.391 429.206H668.824V679.142H790.391V429.206Z" fill="#F0F0F0"/>
<path d="M790.408 679.142H806.499V429.206H790.408V679.142Z" fill="#E0E0E0"/>
<path d="M687.01 659.677V448.671H684.204V659.677H687.01Z" fill="#E6E6E6"/>
<path d="M668.842 679.142V432.047H666.036V679.142H668.842Z" fill="#E6E6E6"/>
<path d="M772.471 448.671H684.204V452.223H772.471V448.671Z" fill="#E6E6E6"/>
<path d="M660.69 484.493H654.651V539.726H660.69V484.493Z" fill="#E0E0E0"/>
<path d="M680.191 484.493H674.152V539.726H680.191V484.493Z" fill="#E0E0E0"/>
<path d="M756.772 168.578H136.912V389.672H756.772V168.578Z" fill="#E0E0E0"/>
<path d="M751.088 168.578H131.229V389.672H751.088V168.578Z" fill="#F0F0F0"/>
<path d="M732.493 371.077V187.173L149.823 187.173V371.077H732.493Z" fill="#FAFAFA"/>
<path d="M244.413 371.077L283.023 187.173H368.254L329.643 371.077H244.413Z" fill="white"/>
<path d="M365.607 371.077L404.218 187.173H446.842L408.214 371.077H365.607Z" fill="white"/>
<path d="M625.827 371.077L664.437 187.173H707.061L668.433 371.077H625.827Z" fill="white"/>
<path d="M444 759.347C634.179 759.347 788.349 750.346 788.349 739.242C788.349 728.139 634.179 719.138 444 719.138C253.822 719.138 99.6514 728.139 99.6514 739.242C99.6514 750.346 253.822 759.347 444 759.347Z" fill="#F5F5F5"/>
<path d="M294.817 205.377C299.292 195.129 259.652 185.841 247.664 217.418C236.795 246.065 218.751 253.382 227.24 273.22C236.422 294.692 288.37 297.267 310.925 273.468C329.218 254.163 309.362 246.029 311.92 227.879C314.477 209.728 309.113 203.814 294.817 205.377Z" fill="#263238"/>
<path d="M222.605 266.862C220.544 255.673 224.7 251.055 229.957 245.212C237.061 238.004 241.928 228.893 243.97 218.981C245.029 213.567 247.735 208.614 251.719 204.798C255.703 200.983 260.769 198.493 266.223 197.669C277.945 195.502 290.359 199.338 293.645 204.204C294.168 204.89 294.466 205.721 294.498 206.583C294.529 207.445 294.293 208.295 293.822 209.017L292.33 208.058C292.618 207.629 292.757 207.118 292.729 206.602C292.7 206.086 292.504 205.594 292.17 205.199C289.258 200.866 277.43 197.402 266.561 199.427C258.799 200.866 248.801 205.483 245.71 219.371C243.606 229.581 238.591 238.963 231.271 246.384C226.157 252.068 222.391 256.188 224.363 266.524L222.605 266.862Z" fill="#263238"/>
<path d="M198.184 258.355L197.083 254.803C196.323 252.389 194.945 250.216 193.087 248.498L189.535 245.266C188.412 244.227 186.961 243.614 185.433 243.533C183.905 243.452 182.397 243.908 181.17 244.822L177.369 247.663C176.675 248.182 176.09 248.834 175.649 249.581C175.208 250.328 174.92 251.155 174.801 252.014C174.682 252.873 174.735 253.747 174.956 254.585C175.178 255.424 175.563 256.21 176.091 256.898L178.542 260.095C178.542 260.095 184.296 269.828 192.625 273.202L194.543 271.568C196.378 269.965 197.702 267.858 198.349 265.508C198.996 263.159 198.939 260.672 198.184 258.355Z" fill="#FFC3BD"/>
<path d="M267.217 320.018L266.08 320.888L265.157 321.563L263.381 322.806C262.191 323.587 260.983 324.315 259.829 325.026C257.412 326.415 254.922 327.672 252.369 328.791C247.12 331.106 241.601 332.753 235.941 333.693C229.966 334.697 223.867 334.733 217.88 333.799C214.816 333.317 211.806 332.538 208.893 331.473C208.165 331.242 207.437 330.94 206.726 330.638L205.661 330.194L205.128 329.963L204.542 329.714L203.796 329.359C202.246 328.565 200.817 327.555 199.551 326.358C198.642 325.511 197.804 324.591 197.047 323.605C195.038 320.88 193.412 317.892 192.216 314.725C191.151 312.097 190.334 309.575 189.606 307.106C188.281 302.329 187.208 297.486 186.391 292.596C184.769 283.147 183.86 273.588 183.674 264.002C183.454 262.208 183.927 260.397 184.995 258.939C186.064 257.481 187.649 256.485 189.426 256.155C191.204 255.824 193.04 256.184 194.562 257.16C196.083 258.136 197.175 259.656 197.615 261.41V261.605C200.706 270.112 203.672 278.832 206.797 287.108C208.413 291.229 209.976 295.331 211.752 299.061C212.605 300.926 213.528 302.702 214.399 304.247C214.991 305.379 215.752 306.415 216.654 307.319C216.654 307.319 216.654 307.319 216.53 307.07C216.121 306.646 215.64 306.297 215.109 306.04L214.772 305.863C214.665 305.863 214.452 305.738 214.576 305.774H214.86L215.411 305.916C215.777 306.03 216.151 306.119 216.53 306.182C218.029 306.482 219.549 306.666 221.076 306.733C224.274 306.831 227.47 306.496 230.578 305.738C233.989 304.878 237.308 303.689 240.488 302.186C242.14 301.441 243.774 300.57 245.372 299.7C246.171 299.256 246.953 298.777 247.699 298.315L249.475 297.178L250.86 296.308C253.981 294.324 257.748 293.626 261.373 294.362C264.997 295.097 268.195 297.208 270.296 300.251C272.396 303.294 273.236 307.033 272.639 310.682C272.042 314.332 270.054 317.607 267.093 319.822L267.217 320.018Z" fill="#FFC3BD"/>
<path d="M298.368 731.499C309.61 727.787 319.076 720.186 317.176 706.848C316.341 701.129 334.687 698.892 334.687 698.892C332.609 717.06 334.883 720.204 337.067 724.306C339.252 728.409 339.127 733.435 335.291 733.879C330.745 734.429 329.732 733.879 324.085 734.678C317.478 735.548 313.198 738.994 300.002 738.994C292.88 738.994 294.816 732.671 298.368 731.499Z" fill="#CA9A6E"/>
<path d="M332.556 537.435C333.853 446.433 325.452 396.829 325.452 396.829L258.124 400.186C258.124 400.186 268.087 483.445 285.776 544.77C290.501 577.679 301.139 633.339 308.509 670.724C319.445 669.788 330.258 667.741 340.779 664.615C343.354 631.776 343.816 584.304 332.556 537.435Z" fill="#CA9A6E"/>
<path d="M334.013 707.807C334.013 707.807 336.642 690.615 338.418 664.615C329.483 667.726 320.214 669.776 310.801 670.724C314.637 693.421 317.372 707.878 317.372 707.878C322.754 709.814 328.647 709.789 334.013 707.807Z" fill="#FFC3BD"/>
<path d="M304.833 659.837C305.419 662.963 307.053 670.795 308.669 673.548C308.763 673.707 308.891 673.842 309.045 673.944C309.199 674.046 309.374 674.111 309.557 674.134C322.114 675.715 334.652 673.193 339.749 670.919C339.892 670.862 340.021 670.776 340.128 670.666C340.235 670.555 340.318 670.424 340.371 670.28C341.792 666.515 342.307 658.594 342.467 655.255C342.475 655.075 342.443 654.894 342.372 654.728C342.3 654.562 342.192 654.414 342.055 654.296C341.918 654.178 341.756 654.092 341.581 654.046C341.406 654 341.223 653.994 341.046 654.03C329.409 656.186 317.655 657.657 305.845 658.434C305.684 658.453 305.528 658.505 305.387 658.588C305.247 658.67 305.125 658.781 305.03 658.913C304.935 659.045 304.868 659.195 304.834 659.354C304.8 659.513 304.8 659.678 304.833 659.837Z" fill="#263238"/>
<path d="M259.012 293.182C249.031 294.958 233.811 303.394 233.811 303.394C233.811 303.394 225.801 322.575 235.391 336.392C244.84 338.63 249.599 336.801 249.599 336.801L259.012 293.182Z" fill="#263238"/>
<path opacity="0.2" d="M235.392 336.392C244.84 338.63 249.6 336.801 249.6 336.801L249.262 310.924C242.851 319.556 237.505 328.116 235.392 336.392Z" fill="black"/>
<path opacity="0.2" d="M332.201 483.747C324.67 465.33 316.572 450.163 313.464 436.31C308.136 473.979 312.327 508.629 332.591 533.457C332.822 515.129 332.627 498.541 332.201 483.747Z" fill="black"/>
<path d="M435.12 628.171L408.249 647.281C386.316 618.705 353.424 575.051 345.468 556.048C325.257 507.829 284.622 401.536 284.622 401.536L337.369 389.281C337.369 389.281 370.652 420.184 392.123 536.796C410.096 562.335 425.228 599.915 435.12 628.171Z" fill="#CA9A6E"/>
<path d="M433.575 718.747C440.27 705.658 440.359 691.237 433.131 679.871C430.023 675.004 445.811 665.396 445.811 665.396C451.388 682.819 455.935 683.831 459.806 686.531C463.678 689.23 464.069 695.038 460.801 697.009C457.235 699.105 454.197 701.991 451.921 705.445C447.872 710.773 445.598 718.09 439.791 722.654C436.079 725.549 430.627 724.484 433.575 718.747Z" fill="#CA9A6E"/>
<path d="M448.743 673.388C448.743 673.388 444.107 657.085 435.014 632.665C428.147 639.169 420.548 644.855 412.37 649.608C425.211 668.717 434.606 682.446 434.606 682.446C440.065 680.792 444.958 677.656 448.743 673.388Z" fill="#FFC3BD"/>
<path d="M402.442 642.148C404.218 644.741 408.977 651.224 411.588 653.053C411.741 653.161 411.916 653.233 412.1 653.264C412.285 653.294 412.474 653.283 412.654 653.231C424.73 649.501 435.12 642.024 438.921 637.815C439.027 637.702 439.108 637.567 439.157 637.42C439.206 637.273 439.222 637.117 439.205 636.962C438.956 632.966 436.15 625.525 434.925 622.417C434.858 622.252 434.754 622.104 434.623 621.985C434.491 621.865 434.335 621.776 434.164 621.725C433.994 621.674 433.814 621.662 433.638 621.689C433.463 621.717 433.295 621.783 433.149 621.884C423.457 628.646 413.375 634.831 402.957 640.408C402.799 640.478 402.658 640.581 402.544 640.71C402.429 640.84 402.345 640.993 402.296 641.159C402.247 641.324 402.235 641.499 402.26 641.67C402.285 641.84 402.347 642.004 402.442 642.148Z" fill="#263238"/>
<path d="M243.774 319.68C246.189 335.398 236.83 347.581 251.233 354.827C248.835 366.78 252.387 390.649 258.088 400.115C266.098 404.466 305.277 398.037 337.298 389.264C336.836 375.588 325.594 348.682 328.72 303.891C328.888 301.441 328.54 298.983 327.697 296.676C326.854 294.369 325.536 292.265 323.828 290.5C322.12 288.735 320.061 287.349 317.783 286.431C315.505 285.513 313.059 285.084 310.605 285.172C307.834 285.172 304.886 285.439 301.902 285.705C291.412 286.379 280.984 287.803 270.698 289.968C267.377 290.749 263.949 291.637 260.699 292.561C255.049 294.229 250.207 297.909 247.088 302.907C243.969 307.904 242.79 313.872 243.774 319.68Z" fill="#263238"/>
<path d="M266.4 307.727C266.4 307.727 276.435 304.069 281.692 313.055C290.447 308.136 302.755 287.339 301.885 285.758C287.233 289.79 266.4 307.727 266.4 307.727Z" fill="white"/>
<path d="M266.401 307.727C266.401 307.727 258.782 306.822 256.633 313.571C256.633 300.251 265.619 291.868 269.544 290.305C268.177 293.786 266.401 307.727 266.401 307.727Z" fill="white"/>
<path d="M298.049 250.505C296.93 260.894 296.752 277.589 301.903 285.776C301.903 285.776 282.367 299.15 266.383 307.728C261.356 296.095 269.526 290.305 269.526 290.305C277.145 287.392 277.074 277.642 276.044 270.183L298.049 250.505Z" fill="#FFC3BD"/>
<path opacity="0.2" d="M276.079 270.183L288.511 258.994C288.929 261.082 288.794 263.243 288.12 265.263C285.967 271.084 281.829 275.958 276.434 279.027C276.63 276.075 276.511 273.11 276.079 270.183Z" fill="black"/>
<path d="M302.062 231.2C300.286 248.072 300.02 255.229 291.317 263.576C278.21 276.132 258.266 270.378 254.98 253.364C252.014 238.037 255.265 213.031 271.746 206.939C288.227 200.848 303.696 214.345 302.062 231.2Z" fill="#FFC3BD"/>
<path d="M298.368 243.543C295.764 241.05 294.242 237.635 294.129 234.032C294.016 230.428 295.321 226.924 297.764 224.273C302.204 219.78 308.42 229.086 308.42 229.086L298.368 243.543Z" fill="#263238"/>
<path d="M277.785 235.871C277.785 237.256 276.95 238.339 276.009 238.304C275.068 238.268 274.428 237.114 274.482 235.746C274.535 234.379 275.316 233.278 276.258 233.313C277.199 233.349 277.838 234.432 277.785 235.871Z" fill="#263238"/>
<path d="M260.842 235.462C260.842 236.83 260.025 237.913 259.066 237.877C258.107 237.842 257.485 236.705 257.538 235.32C257.592 233.935 258.355 232.869 259.314 232.905C260.273 232.94 260.895 234.077 260.842 235.462Z" fill="#263238"/>
<path d="M259.704 232.994L256.437 231.91C256.437 231.91 258.035 234.556 259.704 232.994Z" fill="#263238"/>
<path d="M265.016 235.995C263.643 239.091 261.85 241.984 259.688 244.591C260.37 245.117 261.159 245.488 261.999 245.678C262.84 245.868 263.711 245.873 264.554 245.692L265.016 235.995Z" fill="#ED847E"/>
<path d="M272.35 251.091C271.58 251.2 270.801 251.235 270.024 251.197C269.918 251.193 269.819 251.148 269.746 251.072C269.673 250.996 269.633 250.894 269.633 250.789C269.635 250.735 269.648 250.683 269.671 250.634C269.693 250.585 269.725 250.542 269.765 250.505C269.804 250.469 269.851 250.441 269.901 250.422C269.952 250.404 270.005 250.396 270.059 250.398C271.769 250.5 273.479 250.2 275.052 249.521C276.625 248.843 278.017 247.805 279.117 246.491C279.145 246.447 279.182 246.41 279.226 246.381C279.269 246.351 279.318 246.331 279.369 246.321C279.421 246.311 279.474 246.312 279.525 246.323C279.576 246.334 279.624 246.355 279.667 246.384C279.712 246.415 279.749 246.454 279.779 246.499C279.808 246.543 279.828 246.594 279.838 246.647C279.848 246.699 279.848 246.754 279.837 246.806C279.825 246.859 279.804 246.909 279.774 246.953C277.932 249.246 275.269 250.731 272.35 251.091Z" fill="#263238"/>
<path d="M304.868 245.337C304.209 246.732 303.26 247.97 302.084 248.968C300.908 249.967 299.532 250.703 298.049 251.126C294.266 252.068 292.507 247.912 293.68 243.756C294.727 240.009 297.977 235.018 301.707 235.924C305.437 236.83 306.698 241.696 304.868 245.337Z" fill="#FFC3BD"/>
<path d="M293.325 207.206C281.369 214.665 267.945 219.456 253.969 221.254C253.969 209.124 277.696 195.502 293.325 207.206Z" fill="#263238"/>
<path d="M284.16 208.68C281.407 219.336 309.024 238.872 303.696 257.662C312.718 243.614 306.218 212.001 306.218 212.001C306.218 212.001 282.953 197.278 284.16 208.68Z" fill="#263238"/>
<path d="M281.319 226.813C281.211 226.798 281.108 226.76 281.016 226.702C280.924 226.644 280.846 226.567 280.786 226.476C280.238 225.619 279.496 224.905 278.619 224.389C277.743 223.874 276.757 223.573 275.743 223.51C275.637 223.515 275.532 223.498 275.433 223.461C275.334 223.424 275.243 223.367 275.167 223.294C275.091 223.221 275.03 223.133 274.988 223.036C274.947 222.939 274.925 222.834 274.926 222.728C274.921 222.62 274.938 222.513 274.976 222.412C275.014 222.31 275.072 222.218 275.147 222.14C275.221 222.062 275.311 222 275.411 221.958C275.51 221.915 275.617 221.893 275.725 221.894C277.007 221.949 278.257 222.312 279.37 222.952C280.483 223.592 281.425 224.49 282.118 225.57C282.179 225.657 282.221 225.755 282.243 225.859C282.265 225.963 282.266 226.07 282.246 226.174C282.226 226.278 282.186 226.377 282.127 226.466C282.069 226.554 281.993 226.63 281.905 226.689C281.821 226.747 281.725 226.788 281.625 226.809C281.524 226.831 281.42 226.832 281.319 226.813Z" fill="#263238"/>
<path d="M253.346 226.227C253.139 226.212 252.944 226.124 252.796 225.978C252.721 225.904 252.661 225.815 252.62 225.718C252.58 225.62 252.559 225.516 252.559 225.41C252.559 225.304 252.58 225.2 252.62 225.102C252.661 225.004 252.721 224.916 252.796 224.842C253.682 223.911 254.778 223.206 255.992 222.786C257.206 222.365 258.504 222.242 259.776 222.426C259.984 222.473 260.166 222.6 260.282 222.779C260.398 222.958 260.44 223.176 260.397 223.385C260.376 223.49 260.334 223.589 260.275 223.677C260.215 223.765 260.138 223.84 260.048 223.898C259.959 223.956 259.859 223.995 259.754 224.014C259.649 224.033 259.542 224.03 259.438 224.007C258.43 223.878 257.406 223.99 256.449 224.332C255.492 224.675 254.63 225.239 253.933 225.978C253.778 226.135 253.567 226.225 253.346 226.227Z" fill="#263238"/>
<path d="M276.648 233.402L273.38 232.336C273.38 232.336 274.961 234.983 276.648 233.402Z" fill="#263238"/>
<path opacity="0.2" d="M328.294 312.576C327.975 322.058 328.289 331.552 329.235 340.992C320.355 331.615 309.202 313.908 308.474 305.028L328.294 312.576Z" fill="black"/>
<path d="M386.28 279.223L388.216 267.945L405.745 274.712C405.745 274.712 401.678 285.208 394.201 289.843L392.123 288.529C390.494 287.537 389.118 286.18 388.104 284.565C387.09 282.95 386.465 281.121 386.28 279.223Z" fill="#FFC3BD"/>
<path d="M399.157 261.658L404.929 264.802C406.19 265.486 407.129 266.641 407.541 268.015C407.954 269.389 407.806 270.871 407.131 272.136L405.763 274.712L388.234 267.945L392.408 262.954C393.213 261.997 394.324 261.345 395.552 261.109C396.781 260.873 398.054 261.067 399.157 261.658Z" fill="#FFC3BD"/>
<path d="M325.168 292.099L327.406 294.407L329.839 296.876C331.491 298.492 333.143 300.144 334.848 301.707C338.222 304.886 341.703 307.834 345.202 310.587C348.502 313.175 352.006 315.491 355.68 317.513C358.489 319.093 361.546 320.186 364.72 320.746L359.942 321.634C358.77 322.202 358.841 322.45 359.09 322.255C359.57 321.934 360.011 321.558 360.404 321.136C361.704 319.784 362.892 318.329 363.956 316.785C366.372 313.357 368.822 309.468 371.06 305.436C373.298 301.405 375.678 297.267 377.969 293.004L384.806 280.359V280.253C385.608 278.746 386.92 277.573 388.507 276.944C390.094 276.315 391.852 276.272 393.469 276.82C395.085 277.369 396.454 278.475 397.33 279.94C398.206 281.405 398.532 283.133 398.251 284.817C397.434 289.932 396.315 294.763 395.072 299.682C393.829 304.602 392.497 309.468 390.721 314.352C388.98 319.388 386.916 324.306 384.54 329.075C383.162 331.76 381.601 334.347 379.869 336.818C378.776 338.343 377.552 339.769 376.211 341.081C374.224 343.061 371.88 344.646 369.302 345.752C368.037 346.291 366.681 346.586 365.306 346.622H364.525C357.507 346.663 350.562 345.203 344.154 342.342C341.325 341.133 338.563 339.775 335.878 338.275C333.308 336.759 330.828 335.19 328.436 333.568C323.789 330.314 319.363 326.754 315.187 322.912C313.145 321.03 311.12 319.129 309.184 317.122C308.225 316.128 307.249 315.133 306.307 314.086C305.366 313.038 304.531 312.079 303.377 310.747C300.824 307.92 299.498 304.196 299.691 300.392C299.885 296.589 301.581 293.018 304.407 290.465C307.233 287.912 310.958 286.586 314.761 286.779C318.565 286.972 322.136 288.669 324.689 291.495L325.168 292.099Z" fill="#FFC3BD"/>
<path d="M311.387 285.261C324.405 285.652 337.352 301.245 337.352 301.245C337.352 301.245 332.344 321.936 318.082 330.851C310.055 324.6 303.253 319.591 303.253 319.591C291.904 302.95 295.687 291.903 311.387 285.261Z" fill="#263238"/>
<path d="M255.495 398.961C256.454 404.52 257.609 408.889 257.982 410.221C258.018 410.362 258.082 410.495 258.17 410.611C258.259 410.726 258.37 410.823 258.497 410.895C260.397 411.943 269.064 416.223 284.977 415.282C302.737 414.323 328.791 404.626 342.306 394.308C342.503 394.155 342.645 393.942 342.709 393.702C342.773 393.461 342.756 393.206 342.661 392.976C341.618 390.661 340.4 388.429 339.021 386.298C338.886 386.093 338.688 385.938 338.458 385.855C338.228 385.771 337.976 385.765 337.742 385.836C331.917 387.612 295.242 398.108 256.614 397.646C256.45 397.647 256.288 397.683 256.14 397.752C255.991 397.821 255.859 397.921 255.753 398.046C255.646 398.171 255.568 398.317 255.524 398.475C255.48 398.633 255.47 398.799 255.495 398.961Z" fill="#CA9A6E"/>
<path opacity="0.3" d="M255.495 398.961C256.454 404.52 257.609 408.889 257.982 410.221C258.018 410.362 258.082 410.495 258.17 410.611C258.259 410.726 258.37 410.823 258.497 410.895C260.397 411.943 269.064 416.223 284.977 415.282C302.737 414.323 328.791 404.626 342.306 394.308C342.503 394.155 342.645 393.942 342.709 393.702C342.773 393.461 342.756 393.206 342.661 392.976C341.618 390.661 340.4 388.429 339.021 386.298C338.886 386.093 338.688 385.938 338.458 385.855C338.228 385.771 337.976 385.765 337.742 385.836C331.917 387.612 295.242 398.108 256.614 397.646C256.45 397.647 256.288 397.683 256.14 397.752C255.991 397.821 255.859 397.921 255.753 398.046C255.646 398.171 255.568 398.317 255.524 398.475C255.48 398.633 255.47 398.799 255.495 398.961Z" fill="white"/>
<path d="M611.424 686.264H377.596C373.271 686.304 368.985 685.449 365.007 683.752C361.028 682.055 357.445 679.553 354.48 676.403C351.516 673.254 349.236 669.525 347.782 665.452C346.329 661.378 345.735 657.048 346.036 652.733L374.452 166.731C375.101 157.71 379.109 149.26 385.686 143.052C392.263 136.844 400.929 133.328 409.972 133.2H643.854C648.179 133.16 652.465 134.016 656.443 135.713C660.421 137.41 664.005 139.912 666.969 143.061C669.934 146.21 672.214 149.939 673.667 154.013C675.12 158.086 675.715 162.416 675.413 166.731L646.908 652.733C646.261 661.748 642.257 670.193 635.688 676.401C629.119 682.608 620.461 686.128 611.424 686.264Z" fill="#CA9A6E"/>
<path opacity="0.8" d="M611.424 686.264H377.596C373.271 686.304 368.985 685.449 365.007 683.752C361.028 682.055 357.445 679.553 354.48 676.403C351.516 673.254 349.236 669.525 347.782 665.452C346.329 661.378 345.735 657.048 346.036 652.733L374.452 166.731C375.101 157.71 379.109 149.26 385.686 143.052C392.263 136.844 400.929 133.328 409.972 133.2H643.854C648.179 133.16 652.465 134.016 656.443 135.713C660.421 137.41 664.005 139.912 666.969 143.061C669.934 146.21 672.214 149.939 673.667 154.013C675.12 158.086 675.715 162.416 675.413 166.731L646.908 652.733C646.261 661.748 642.257 670.193 635.688 676.401C629.119 682.608 620.461 686.128 611.424 686.264Z" fill="white"/>
<path d="M610.038 676.532H382.71C379.671 676.561 376.66 675.961 373.864 674.77C371.069 673.579 368.55 671.822 366.466 669.61C364.383 667.398 362.78 664.779 361.758 661.917C360.736 659.056 360.317 656.013 360.528 652.982L388.944 169.093C389.399 162.77 392.203 156.847 396.804 152.486C401.404 148.125 407.47 145.642 413.808 145.526H641.136C644.175 145.499 647.187 146.101 649.983 147.294C652.778 148.487 655.297 150.246 657.38 152.459C659.463 154.672 661.066 157.293 662.088 160.155C663.11 163.018 663.529 166.061 663.318 169.093L634.902 652.982C634.446 659.303 631.642 665.225 627.041 669.583C622.44 673.941 616.374 676.42 610.038 676.532Z" fill="#CA9A6E"/>
<path d="M607.588 673.939H380.26C377.22 673.966 374.208 673.364 371.413 672.17C368.617 670.977 366.099 669.219 364.015 667.005C361.932 664.792 360.329 662.172 359.307 659.309C358.285 656.446 357.867 653.403 358.077 650.371L386.493 166.482C386.949 160.159 389.753 154.236 394.353 149.875C398.954 145.514 405.019 143.031 411.357 142.915H638.685C641.725 142.888 644.737 143.49 647.533 144.683C650.328 145.876 652.847 147.635 654.93 149.848C657.013 152.061 658.616 154.682 659.638 157.544C660.66 160.407 661.078 163.45 660.868 166.482L632.452 650.371C631.996 656.694 629.193 662.618 624.592 666.979C619.991 671.339 613.926 673.822 607.588 673.939Z" fill="white"/>
<path opacity="0.1" d="M600.946 655.948H388.944C387.066 655.965 385.205 655.593 383.477 654.855C381.749 654.118 380.193 653.032 378.905 651.664C377.617 650.296 376.627 648.677 375.995 646.908C375.363 645.139 375.104 643.259 375.234 641.385L387.168 439.542C387.448 435.626 389.187 431.956 392.041 429.26C394.896 426.563 398.658 425.036 402.584 424.979H614.496C616.375 424.962 618.236 425.334 619.964 426.071C621.692 426.809 623.248 427.895 624.536 429.263C625.824 430.631 626.814 432.25 627.446 434.019C628.078 435.788 628.337 437.668 628.207 439.542L616.361 641.385C616.082 645.301 614.343 648.971 611.488 651.667C608.634 654.364 604.872 655.891 600.946 655.948Z" fill="#CA9A6E"/>
<path opacity="0.1" d="M553.864 178.808H492.077C491.405 178.814 490.74 178.682 490.122 178.419C489.504 178.155 488.948 177.767 488.487 177.278C488.027 176.79 487.672 176.211 487.447 175.578C487.221 174.946 487.128 174.274 487.175 173.604C487.273 172.2 487.895 170.883 488.918 169.916C489.941 168.949 491.29 168.401 492.698 168.383H554.467C555.146 168.366 555.821 168.491 556.449 168.751C557.076 169.011 557.643 169.4 558.111 169.891C558.579 170.383 558.94 170.968 559.169 171.607C559.397 172.246 559.49 172.927 559.44 173.604C559.341 175.016 558.711 176.338 557.676 177.304C556.641 178.269 555.279 178.807 553.864 178.808Z" fill="#CA9A6E"/>
<path opacity="0.1" d="M578.444 373.614C616.491 336.667 619.088 277.629 584.246 241.749C549.403 205.869 490.314 206.734 452.266 243.682C414.219 280.63 411.622 339.668 446.465 375.548C481.308 411.428 540.397 410.562 578.444 373.614Z" fill="#CA9A6E"/>
<path d="M450.039 370.42C442.264 362.144 436.284 352.35 432.473 341.653C428.662 330.957 427.102 319.588 427.892 308.26H429.668C428.898 319.345 430.426 330.468 434.154 340.935C437.882 351.402 443.731 360.986 451.335 369.088L450.039 370.42Z" fill="#CA9A6E"/>
<path d="M602.81 309.024L601.034 308.918C601.519 301.094 600.921 293.241 599.258 285.581L601.034 285.19C602.732 293.013 603.33 301.036 602.81 309.024Z" fill="#CA9A6E"/>
<path d="M594.107 270.13C589.761 260.486 583.543 251.802 575.815 244.579C568.086 237.357 559.001 231.741 549.086 228.056L549.707 226.387C559.849 230.147 569.141 235.889 577.042 243.277C584.942 250.665 591.293 259.552 595.724 269.419L594.107 270.13Z" fill="#CA9A6E"/>
<path d="M570.327 365.256C603.484 333.058 605.751 281.611 575.391 250.348C545.03 219.084 493.54 219.841 460.383 252.04C427.226 284.238 424.96 335.685 455.32 366.948C485.68 398.212 537.171 397.455 570.327 365.256Z" fill="#CA9A6E"/>
<path d="M506.32 319.68C510.227 318.81 512.056 315.471 512.891 311.67C512.98 311.262 513.051 310.871 513.122 310.48V310.125C513.335 308.541 513.453 306.946 513.477 305.348C509.694 304.973 506.181 303.221 503.607 300.424C501.033 297.627 499.578 293.981 499.518 290.181C499.322 282.644 500.993 275.176 504.384 268.442C503.511 268.556 502.684 268.9 501.986 269.437C501.919 269.488 501.841 269.524 501.758 269.543C501.675 269.561 501.59 269.561 501.507 269.543C501.353 269.517 501.214 269.435 501.116 269.313C501.021 269.179 500.982 269.014 501.005 268.853C501.028 268.691 501.112 268.544 501.24 268.442C502.345 267.608 503.692 267.158 505.076 267.164C505.343 266.737 505.591 266.293 505.858 265.885C504.721 265.885 503.62 265.885 502.554 265.885C503.727 257.68 519.515 250.789 530.278 257.005C535.073 257.964 542.994 264.819 542.994 264.819C543.153 269.186 543.028 273.558 542.621 277.908C541.911 285.332 540.152 294.052 535.872 298.918C536.937 296.429 537.329 293.704 537.009 291.015C535.983 292.03 534.709 292.758 533.315 293.129C532.809 294.217 532.215 295.262 531.539 296.254C529.869 303.873 528.679 314.014 531.219 319.857C533.51 320 535.73 320.213 537.844 320.444L538.359 320.532C539.753 319.713 541.094 318.806 542.372 317.815C558.356 305.383 541.396 290.784 545.392 277.411C549.388 264.038 546.013 258.958 535.091 258.532C539.62 251.304 510.848 239.76 498.203 262.191C486.748 282.526 483.054 292.685 487.174 308.58C488.723 313.775 492.233 318.164 496.96 320.817C497.765 320.596 498.584 320.43 499.411 320.319C501.667 320.106 504.011 319.857 506.32 319.68Z" fill="#263238"/>
<path d="M481.474 350.938C480.822 349.785 480.229 348.599 479.698 347.386C478.49 350.938 477.3 354.49 476.146 358.042C475.044 361.239 473.997 364.435 472.895 367.49L471.244 371.806L470.533 373.582C470.285 374.061 470.533 373.777 470.533 373.919C469.776 374.801 468.938 375.61 468.029 376.335C467.834 376.53 467.585 376.708 467.372 376.885C472.286 380.2 477.574 382.924 483.125 385.001C483.25 376.885 484.244 368.449 485.31 366.194C478.916 361.754 479.875 356.976 481.474 350.938Z" fill="#FFC3BD"/>
<path d="M487.69 326.979L487.246 327.601C487.388 327.388 487.548 327.193 487.708 326.997L487.69 326.979Z" fill="#263238"/>
<path d="M483.587 338.879C483.561 334.969 484.746 331.147 486.979 327.938C483.574 333.295 480.774 339.013 478.632 344.988C478.632 344.988 478.952 345.929 479.626 347.403C480.158 348.617 480.751 349.802 481.402 350.955C482.669 347.046 483.404 342.984 483.587 338.879Z" fill="#263238"/>
<path d="M545.499 364.648C543.393 361.555 541.523 358.307 539.904 354.934C539.372 355.218 538.821 355.502 538.253 355.75C532.925 350.121 528.378 345.574 528.378 345.574C521.736 331.721 525.838 323.836 538.43 320.621C540.384 321.023 542.249 321.775 543.936 322.841C542.275 321.674 540.366 320.907 538.359 320.603L537.844 320.515C535.731 320.284 533.511 320.071 531.22 319.929C531.717 321.225 520.315 337.689 513.158 340.299C510.227 332.911 502.004 332.414 502.004 332.414C502.004 332.414 494.332 330.833 491.952 335.664C493.515 325.683 503.123 320.426 506.32 319.68C504.011 319.875 501.667 320.124 499.412 320.408C498.584 320.519 497.766 320.685 496.961 320.905C493.306 321.908 490.065 324.048 487.708 327.015C487.548 327.21 487.388 327.406 487.246 327.619L486.98 327.956C484.746 331.165 483.561 334.987 483.587 338.896C483.425 342.992 482.715 347.048 481.474 350.955C479.876 356.923 478.916 361.771 485.186 366.211C484.12 368.467 483.126 376.867 483.001 385.019C491.827 388.291 501.169 389.951 510.583 389.921C522.635 389.903 534.544 387.292 545.499 382.266C545.194 375.656 545.247 369.033 545.659 362.428C545.605 363.139 545.534 363.92 545.499 364.648Z" fill="#263238"/>
<path d="M502.004 332.414C502.004 332.414 510.227 332.911 513.157 340.299C520.261 337.6 531.716 321.225 531.219 319.929C531.219 319.929 515.04 327.779 502.004 332.414Z" fill="white"/>
<path d="M506.355 319.68C503.158 320.444 493.55 325.701 491.987 335.664C494.367 330.833 502.039 332.414 502.039 332.414C499.553 323.072 506.355 319.68 506.355 319.68Z" fill="white"/>
<path d="M531.539 296.326C529.995 298.565 528.043 300.493 525.785 302.009C524.835 302.692 523.824 303.287 522.765 303.785C520.439 307.519 516.969 310.403 512.873 312.008V311.706C512.038 315.506 510.209 318.81 506.302 319.716C506.302 319.716 499.5 323.126 501.951 332.467C515.004 327.832 531.166 320.035 531.166 320.035C528.679 314.103 529.869 303.945 531.539 296.326Z" fill="#FFC3BD"/>
<path d="M512.927 311.653C513.016 311.244 513.087 310.853 513.158 310.463C513.087 310.8 513.016 311.244 512.927 311.653Z" fill="#263238"/>
<path opacity="0.2" d="M512.927 311.653C513.016 311.244 513.087 310.853 513.158 310.463C513.087 310.8 513.016 311.244 512.927 311.653Z" fill="black"/>
<path d="M513.566 305.33C513.542 306.928 513.424 308.523 513.211 310.107C513.432 308.524 513.551 306.928 513.566 305.33Z" fill="#263238"/>
<path opacity="0.2" d="M513.566 305.33C513.542 306.928 513.424 308.523 513.211 310.107C513.432 308.524 513.551 306.928 513.566 305.33Z" fill="black"/>
<path d="M522.765 303.696C519.905 305.066 516.721 305.62 513.566 305.294C513.55 306.893 513.431 308.489 513.21 310.072V310.427C513.21 310.818 513.068 311.209 512.979 311.617V311.919C517.037 310.294 520.466 307.413 522.765 303.696Z" fill="#FFC3BD"/>
<path opacity="0.2" d="M522.765 303.696C519.905 305.066 516.721 305.62 513.566 305.294C513.55 306.893 513.431 308.489 513.21 310.072V310.427C513.21 310.818 513.068 311.209 512.979 311.617V311.919C517.037 310.294 520.466 307.413 522.765 303.696Z" fill="black"/>
<path d="M522.766 303.696C523.824 303.198 524.835 302.603 525.785 301.92C528.043 300.404 529.995 298.476 531.539 296.237C532.215 295.245 532.809 294.199 533.315 293.111C532.978 293.111 532.64 293.289 532.32 293.324C529.355 293.59 528.52 290.252 529.87 287.268C530.326 286.259 530.924 285.32 531.646 284.48C530.87 281.944 531.06 279.211 532.178 276.807C529.479 271.266 526.619 266.151 526.353 262.439C519.708 264.494 512.811 265.623 505.858 265.796C505.592 266.205 505.343 266.649 505.077 267.075C505.679 267.072 506.278 267.162 506.853 267.341C506.927 267.369 506.996 267.411 507.055 267.465C507.113 267.52 507.16 267.585 507.193 267.658C507.226 267.73 507.245 267.809 507.247 267.889C507.25 267.969 507.236 268.048 507.208 268.123C507.152 268.274 507.039 268.398 506.893 268.468C506.747 268.537 506.58 268.547 506.426 268.496C505.788 268.302 505.114 268.253 504.455 268.354C501.11 275.093 499.482 282.554 499.713 290.074C499.773 293.875 501.229 297.521 503.803 300.317C506.377 303.114 509.89 304.867 513.672 305.241C516.788 305.563 519.932 305.029 522.766 303.696ZM518.805 268.815C519.772 269.005 520.679 269.428 521.446 270.047C522.214 270.666 522.819 271.462 523.21 272.367C523.278 272.516 523.287 272.686 523.234 272.841C523.181 272.997 523.071 273.126 522.925 273.202C522.778 273.263 522.611 273.263 522.464 273.202C522.384 273.18 522.31 273.14 522.248 273.084C522.187 273.029 522.139 272.96 522.108 272.882C521.786 272.165 521.294 271.537 520.675 271.051C520.057 270.566 519.33 270.237 518.556 270.094C518.396 270.068 518.252 269.982 518.153 269.853C518.054 269.724 518.008 269.563 518.024 269.401C518.031 269.31 518.058 269.222 518.103 269.143C518.149 269.064 518.211 268.995 518.285 268.943C518.36 268.89 518.445 268.855 518.535 268.839C518.625 268.823 518.717 268.827 518.805 268.851V268.815ZM518.183 277.589C518.48 277.811 518.699 278.121 518.811 278.475C518.922 278.828 518.92 279.208 518.805 279.56C518.61 280.59 517.899 281.336 517.224 281.176C516.55 281.016 516.159 280.111 516.354 279.081C516.452 278.558 516.721 278.084 517.118 277.731C516.564 277.438 516.131 276.96 515.892 276.381L518.183 277.589ZM503.62 276.843C503.716 276.329 503.978 275.861 504.366 275.511C503.822 275.203 503.396 274.722 503.158 274.143L505.485 275.333C505.772 275.564 505.983 275.874 506.094 276.225C506.205 276.576 506.209 276.951 506.107 277.305C505.894 278.335 505.201 279.081 504.526 278.938C503.851 278.796 503.425 277.908 503.62 276.878V276.843ZM507.741 285.474C507.082 285.513 506.423 285.408 505.809 285.165C505.196 284.923 504.643 284.55 504.189 284.071C506.09 282.348 507.751 280.377 509.126 278.21L507.741 285.474ZM511.168 290.234C511.089 290.213 511.022 290.163 510.979 290.093C510.936 290.024 510.921 289.941 510.937 289.861C510.954 289.783 511.001 289.716 511.068 289.673C511.134 289.629 511.215 289.614 511.293 289.63C512.574 289.906 513.903 289.876 515.171 289.543C516.44 289.21 517.611 288.582 518.592 287.712C518.62 287.683 518.653 287.659 518.69 287.643C518.727 287.627 518.767 287.618 518.808 287.617C518.848 287.617 518.888 287.624 518.926 287.638C518.964 287.653 518.998 287.675 519.027 287.703C519.056 287.731 519.08 287.764 519.096 287.801C519.112 287.839 519.121 287.878 519.122 287.919C519.122 287.959 519.115 287.999 519.101 288.037C519.086 288.075 519.064 288.109 519.036 288.138C517.385 289.658 515.205 290.474 512.962 290.411C512.361 290.406 511.762 290.359 511.168 290.269V290.234Z" fill="#FFC3BD"/>
<path d="M534.576 282.384C533.83 280.608 532.978 278.708 532.108 276.932C530.99 279.336 530.8 282.068 531.575 284.604C532.363 283.613 533.398 282.847 534.576 282.384Z" fill="#263238"/>
<path d="M517.083 277.784C516.686 278.137 516.417 278.612 516.319 279.134C516.124 280.164 516.514 281.105 517.189 281.23C517.864 281.354 518.574 280.644 518.77 279.613C518.885 279.261 518.887 278.882 518.775 278.528C518.664 278.175 518.445 277.865 518.148 277.642C517.998 277.756 517.821 277.83 517.634 277.855C517.447 277.88 517.257 277.855 517.083 277.784Z" fill="#263238"/>
<path d="M506.16 277.358C506.263 277.005 506.258 276.629 506.148 276.278C506.037 275.927 505.825 275.617 505.539 275.386C505.385 275.499 505.206 275.573 505.017 275.601C504.828 275.629 504.635 275.61 504.455 275.546C504.067 275.896 503.805 276.364 503.71 276.878C503.514 277.908 503.905 278.85 504.58 278.992C505.255 279.134 505.858 278.388 506.16 277.358Z" fill="#263238"/>
<path d="M505.45 275.386L503.123 274.197C503.361 274.775 503.786 275.257 504.331 275.564C504.517 275.631 504.717 275.65 504.913 275.619C505.109 275.588 505.293 275.508 505.45 275.386Z" fill="#263238"/>
<path d="M504.206 284.16C504.66 284.639 505.213 285.012 505.827 285.254C506.44 285.497 507.1 285.602 507.758 285.563L509.161 278.299C507.781 280.467 506.114 282.438 504.206 284.16Z" fill="#ED847E"/>
<path d="M519 287.712C518.941 287.654 518.861 287.622 518.778 287.622C518.695 287.622 518.616 287.654 518.556 287.712C517.58 288.577 516.414 289.201 515.152 289.534C513.891 289.868 512.569 289.9 511.292 289.63C511.215 289.614 511.134 289.63 511.067 289.673C511.001 289.716 510.954 289.784 510.937 289.861C510.921 289.941 510.936 290.024 510.979 290.093C511.021 290.163 511.089 290.213 511.168 290.234C511.755 290.334 512.349 290.394 512.944 290.411C515.188 290.474 517.367 289.658 519.018 288.138C519.068 288.077 519.094 288 519.091 287.922C519.087 287.843 519.055 287.768 519 287.712Z" fill="#263238"/>
<path d="M534.576 282.384C533.398 282.847 532.363 283.613 531.575 284.604C530.854 285.445 530.256 286.383 529.799 287.392C528.449 290.376 529.284 293.715 532.25 293.449C532.57 293.449 532.907 293.306 533.244 293.235C534.639 292.865 535.912 292.136 536.938 291.122C536.567 288.113 535.771 285.171 534.576 282.384Z" fill="#FFC3BD"/>
<path d="M526.691 259.864C526.797 257.307 528.254 256.685 530.243 257.076C519.48 250.789 503.692 257.68 502.52 265.956C503.585 265.956 504.686 265.956 505.823 265.956C512.776 265.783 519.673 264.653 526.318 262.599C526.215 261.671 526.343 260.731 526.691 259.864Z" fill="#263238"/>
<path d="M526.691 259.864C526.354 260.709 526.226 261.623 526.318 262.528C526.584 266.293 529.443 271.408 532.143 276.896C533.013 278.672 533.919 280.448 534.612 282.348C535.807 285.135 536.602 288.077 536.974 291.086C537.294 293.775 536.902 296.5 535.837 298.99C540.117 294.123 541.875 285.403 542.586 277.979C542.993 273.629 543.118 269.257 542.959 264.89C542.959 264.89 535.038 258.035 530.243 257.076C528.254 256.685 526.797 257.307 526.691 259.864Z" fill="#263238"/>
<path d="M518.592 270.076C519.365 270.22 520.092 270.548 520.711 271.034C521.329 271.519 521.821 272.148 522.144 272.865C522.174 272.942 522.222 273.011 522.283 273.067C522.345 273.122 522.419 273.162 522.499 273.184C522.647 273.246 522.813 273.246 522.961 273.184C523.106 273.108 523.217 272.979 523.27 272.824C523.323 272.669 523.314 272.499 523.245 272.35C522.854 271.445 522.249 270.648 521.481 270.03C520.714 269.411 519.808 268.988 518.84 268.798C518.678 268.778 518.514 268.822 518.385 268.922C518.255 269.022 518.17 269.168 518.148 269.331C518.114 269.488 518.141 269.652 518.224 269.79C518.306 269.929 518.437 270.031 518.592 270.076Z" fill="#263238"/>
<path d="M506.319 268.584C506.473 268.636 506.64 268.626 506.786 268.556C506.932 268.487 507.045 268.363 507.101 268.211C507.129 268.137 507.143 268.057 507.14 267.978C507.138 267.898 507.119 267.819 507.086 267.747C507.053 267.674 507.006 267.609 506.948 267.554C506.889 267.5 506.821 267.458 506.746 267.43C506.171 267.251 505.572 267.161 504.97 267.164C503.585 267.158 502.238 267.608 501.134 268.442C501.005 268.544 500.921 268.691 500.898 268.853C500.875 269.015 500.915 269.179 501.009 269.313C501.107 269.435 501.246 269.517 501.4 269.543C501.483 269.561 501.569 269.561 501.651 269.543C501.734 269.524 501.812 269.488 501.879 269.437C502.577 268.9 503.404 268.557 504.277 268.442C504.96 268.331 505.659 268.38 506.319 268.584Z" fill="#263238"/>
<path d="M517.082 277.784C517.257 277.855 517.447 277.88 517.634 277.855C517.821 277.83 517.998 277.756 518.148 277.642L515.821 276.452C516.072 277.031 516.518 277.502 517.082 277.784Z" fill="#263238"/>
<path d="M545.499 364.648C545.499 363.92 545.605 363.139 545.641 362.393C544.646 360.812 543.634 359.214 542.586 357.633L540.544 354.596L539.904 354.934C541.523 358.307 543.393 361.555 545.499 364.648Z" fill="#263238"/>
<path opacity="0.2" d="M545.499 364.648C545.499 363.92 545.605 363.139 545.641 362.393C544.646 360.812 543.634 359.214 542.586 357.633L540.544 354.596L539.904 354.934C541.523 358.307 543.393 361.555 545.499 364.648Z" fill="black"/>
<path d="M550.773 379.354V379.638C557.857 375.81 564.382 371.03 570.167 365.43C569.197 362.565 568.058 359.76 566.757 357.029C565.034 353.315 563.119 349.693 561.021 346.178C559.245 343.123 557.362 340.21 555.426 337.298C553.65 341.01 548.606 349.943 540.597 354.543L542.639 357.58C543.687 359.16 544.699 360.759 545.694 362.339C546.564 363.725 547.47 365.128 548.198 366.513C549.565 368.911 550.844 371.326 551.75 373.617L551.572 374.825C551.359 376.299 551.093 377.808 550.773 379.354Z" fill="#FFC3BD"/>
<path d="M528.378 345.574C528.378 345.574 532.925 350.121 538.253 355.751C538.821 355.502 539.372 355.218 539.904 354.934L540.544 354.596C548.553 349.996 553.562 341.063 555.373 337.351C555.888 336.303 556.155 335.664 556.155 335.664C556.155 335.664 551.004 327.139 543.936 322.841C542.249 321.776 540.384 321.024 538.43 320.621C525.838 323.836 521.736 331.721 528.378 345.574Z" fill="#263238"/>
<path d="M613.537 167.424H638.561C639.245 167.412 639.899 167.145 640.395 166.675C640.892 166.205 641.194 165.566 641.243 164.884C641.265 164.559 641.219 164.233 641.11 163.927C641 163.62 640.827 163.34 640.604 163.103C640.381 162.866 640.111 162.678 639.811 162.55C639.511 162.423 639.189 162.359 638.863 162.362H613.821C613.141 162.373 612.489 162.638 611.993 163.104C611.497 163.571 611.192 164.205 611.14 164.884C611.115 165.212 611.159 165.541 611.269 165.851C611.378 166.161 611.552 166.444 611.777 166.683C612.003 166.922 612.276 167.112 612.579 167.239C612.882 167.367 613.208 167.429 613.537 167.424Z" fill="#CA9A6E"/>
<path d="M613.022 176.144H638.046C638.729 176.132 639.384 175.865 639.88 175.395C640.376 174.925 640.679 174.286 640.727 173.604C640.752 173.278 640.709 172.95 640.6 172.641C640.491 172.333 640.32 172.05 640.096 171.811C639.872 171.572 639.601 171.383 639.3 171.254C638.999 171.126 638.675 171.061 638.348 171.064H613.324C612.637 171.072 611.978 171.337 611.478 171.807C610.978 172.278 610.673 172.919 610.624 173.604C610.605 173.931 610.653 174.258 610.764 174.565C610.876 174.873 611.05 175.154 611.274 175.392C611.499 175.63 611.77 175.819 612.07 175.949C612.371 176.078 612.695 176.144 613.022 176.144Z" fill="#CA9A6E"/>
<path d="M410.576 176.144H435.599C436.285 176.132 436.941 175.866 437.441 175.396C437.94 174.927 438.246 174.287 438.299 173.604C438.321 173.277 438.275 172.949 438.164 172.64C438.054 172.331 437.88 172.049 437.655 171.81C437.43 171.572 437.158 171.383 436.856 171.254C436.554 171.126 436.229 171.061 435.901 171.064H410.878C410.193 171.072 409.536 171.338 409.039 171.808C408.542 172.279 408.241 172.921 408.196 173.604C408.174 173.93 408.219 174.256 408.329 174.564C408.439 174.871 408.611 175.153 408.834 175.391C409.057 175.629 409.327 175.819 409.626 175.949C409.926 176.078 410.249 176.144 410.576 176.144Z" fill="#CA9A6E"/>
<path d="M612.507 184.846H637.584C638.27 184.839 638.929 184.574 639.429 184.103C639.929 183.633 640.234 182.991 640.283 182.306C640.303 181.98 640.255 181.653 640.143 181.345C640.031 181.038 639.858 180.756 639.633 180.518C639.409 180.28 639.138 180.091 638.837 179.962C638.537 179.832 638.213 179.766 637.886 179.767H612.808C612.123 179.778 611.466 180.044 610.967 180.514C610.468 180.984 610.162 181.623 610.109 182.306C610.087 182.633 610.133 182.962 610.243 183.27C610.354 183.579 610.528 183.861 610.753 184.1C610.978 184.338 611.25 184.528 611.552 184.656C611.854 184.785 612.179 184.849 612.507 184.846Z" fill="#CA9A6E"/>
<path d="M579.616 503.478H428.229C425.402 503.504 422.6 502.946 419.999 501.837C417.399 500.728 415.055 499.093 413.117 497.034C411.179 494.976 409.687 492.539 408.737 489.876C407.786 487.213 407.396 484.383 407.592 481.562C408.018 475.668 410.639 470.147 414.936 466.089C419.233 462.032 424.895 459.733 430.805 459.646H582.191C585.018 459.62 587.82 460.179 590.421 461.288C593.022 462.397 595.365 464.032 597.303 466.09C599.242 468.149 600.733 470.586 601.684 473.248C602.635 475.911 603.024 478.742 602.828 481.562C602.402 487.457 599.782 492.978 595.485 497.035C591.187 501.092 585.525 503.391 579.616 503.478Z" fill="white"/>
<path d="M576.17 562.388H424.766C421.939 562.409 419.138 561.847 416.538 560.735C413.939 559.623 411.597 557.986 409.659 555.927C407.722 553.868 406.23 551.43 405.279 548.768C404.327 546.106 403.936 543.275 404.129 540.455C404.568 534.569 407.194 529.062 411.49 525.015C415.786 520.969 421.441 518.678 427.341 518.592H578.745C581.573 518.566 584.375 519.124 586.975 520.233C589.576 521.342 591.92 522.977 593.858 525.036C595.796 527.094 597.288 529.531 598.238 532.194C599.189 534.857 599.579 537.687 599.383 540.508C598.944 546.395 596.319 551.904 592.023 555.954C587.728 560.003 582.073 562.298 576.17 562.388Z" fill="white"/>
<path d="M572.707 621.28H421.32C418.493 621.307 415.691 620.748 413.09 619.639C410.489 618.53 408.146 616.895 406.208 614.837C404.27 612.778 402.778 610.341 401.827 607.678C400.877 605.016 400.487 602.185 400.683 599.365C401.109 593.468 403.728 587.945 408.025 583.885C412.322 579.825 417.984 577.522 423.895 577.431H575.282C578.11 577.407 580.912 577.968 583.513 579.079C586.114 580.19 588.457 581.827 590.395 583.886C592.333 585.946 593.824 588.385 594.775 591.048C595.725 593.712 596.115 596.543 595.919 599.365C595.493 605.259 592.873 610.78 588.575 614.837C584.278 618.895 578.616 621.194 572.707 621.28Z" fill="white"/>
<path d="M439.99 489.417C444.599 484.941 444.918 477.793 440.702 473.452C436.485 469.11 429.331 469.219 424.722 473.695C420.113 478.17 419.795 485.318 424.011 489.66C428.227 494.002 435.381 493.893 439.99 489.417Z" fill="#CA9A6E"/>
<path d="M431.018 529.781L432.51 535.411C432.596 535.72 432.782 535.992 433.039 536.185C433.296 536.378 433.609 536.48 433.93 536.476H439.844C440.178 536.479 440.501 536.592 440.765 536.796C441.029 537 441.218 537.285 441.305 537.607C441.392 537.929 441.37 538.271 441.245 538.58C441.119 538.889 440.895 539.148 440.608 539.318L435.618 542.87C435.334 543.059 435.116 543.331 434.995 543.65C434.874 543.968 434.856 544.316 434.943 544.646L436.435 550.276C436.523 550.599 436.51 550.942 436.397 551.257C436.284 551.573 436.077 551.846 435.804 552.04C435.53 552.234 435.204 552.339 434.869 552.341C434.534 552.343 434.206 552.242 433.93 552.052L429.348 548.5C429.088 548.317 428.778 548.219 428.46 548.219C428.142 548.219 427.832 548.317 427.572 548.5L422.582 552.052C422.32 552.26 421.996 552.374 421.662 552.376C421.328 552.379 421.003 552.268 420.739 552.064C420.475 551.859 420.287 551.571 420.206 551.247C420.124 550.923 420.154 550.581 420.291 550.276L422.44 544.646C422.572 544.341 422.598 544 422.514 543.679C422.43 543.357 422.242 543.072 421.978 542.87L417.396 539.318C417.144 539.101 416.964 538.812 416.883 538.489C416.801 538.167 416.821 537.827 416.939 537.516C417.058 537.206 417.269 536.939 417.545 536.753C417.82 536.567 418.147 536.47 418.479 536.476H424.393C424.729 536.477 425.056 536.375 425.332 536.184C425.608 535.994 425.819 535.724 425.938 535.411L428.016 529.781C428.111 529.456 428.308 529.17 428.579 528.967C428.849 528.764 429.179 528.654 429.517 528.654C429.855 528.654 430.185 528.764 430.455 528.967C430.726 529.17 430.923 529.456 431.018 529.781Z" fill="#CA9A6E"/>
<path d="M435.12 593.397L434.179 609.203C434.134 609.866 433.84 610.488 433.355 610.942C432.871 611.397 432.232 611.651 431.568 611.654H417.733C417.427 611.637 417.128 611.557 416.853 611.422C416.578 611.286 416.333 611.097 416.133 610.865C415.933 610.633 415.781 610.364 415.686 610.072C415.592 609.781 415.557 609.473 415.584 609.168L416.738 589.49C416.779 588.827 417.068 588.204 417.549 587.746C418.031 587.288 418.667 587.029 419.331 587.021H429.277L435.12 593.397Z" fill="#CA9A6E"/>
<path d="M429.188 587.057L435.174 593.397H431.284C430.968 593.4 430.654 593.338 430.363 593.214C430.072 593.09 429.81 592.907 429.593 592.677C429.376 592.447 429.209 592.174 429.103 591.876C428.997 591.578 428.953 591.262 428.975 590.946L429.188 587.057ZM427.608 582.706L427.359 586.95L427.128 590.84C427.098 591.406 427.181 591.973 427.373 592.507C427.565 593.041 427.862 593.531 428.247 593.948C428.638 594.36 429.109 594.687 429.631 594.91C430.154 595.133 430.716 595.247 431.284 595.244H439.418L436.506 592.136L430.538 585.796L427.608 582.706Z" fill="white"/>
<path opacity="0.2" d="M574.536 479.236H461.245C460.787 479.239 460.333 479.148 459.911 478.968C459.489 478.788 459.109 478.524 458.794 478.19C458.479 477.857 458.236 477.463 458.08 477.031C457.925 476.6 457.859 476.141 457.889 475.684C457.964 474.727 458.393 473.833 459.093 473.176C459.792 472.519 460.712 472.147 461.672 472.132H574.945C575.403 472.129 575.858 472.22 576.279 472.4C576.701 472.579 577.081 472.844 577.396 473.177C577.711 473.511 577.954 473.905 578.11 474.336C578.265 474.768 578.331 475.226 578.301 475.684C578.231 476.639 577.805 477.533 577.108 478.191C576.411 478.848 575.494 479.221 574.536 479.236Z" fill="#CA9A6E"/>
<path opacity="0.2" d="M553.065 491.029H460.571C460.111 491.032 459.656 490.941 459.234 490.761C458.811 490.581 458.43 490.317 458.113 489.984C457.797 489.651 457.553 489.257 457.395 488.825C457.237 488.394 457.169 487.935 457.196 487.477C457.271 486.52 457.701 485.625 458.4 484.969C459.1 484.312 460.019 483.939 460.979 483.925H553.473C553.933 483.919 554.389 484.008 554.813 484.187C555.237 484.366 555.619 484.63 555.936 484.964C556.253 485.297 556.497 485.692 556.654 486.125C556.811 486.557 556.877 487.018 556.848 487.477C556.769 488.432 556.338 489.324 555.639 489.98C554.94 490.636 554.023 491.01 553.065 491.029Z" fill="#CA9A6E"/>
<path opacity="0.2" d="M570.806 542.781H539.548C538.588 542.792 537.666 543.163 536.965 543.82C536.265 544.478 535.837 545.375 535.766 546.333C535.736 546.791 535.802 547.249 535.957 547.681C536.113 548.112 536.356 548.506 536.671 548.84C536.986 549.173 537.366 549.438 537.788 549.618C538.209 549.797 538.664 549.888 539.122 549.885H570.38C571.341 549.874 572.262 549.504 572.963 548.846C573.663 548.188 574.092 547.291 574.163 546.333C574.192 545.876 574.127 545.417 573.971 544.986C573.815 544.554 573.572 544.16 573.257 543.827C572.942 543.493 572.562 543.229 572.141 543.049C571.719 542.869 571.265 542.778 570.806 542.781Z" fill="#CA9A6E"/>
<path opacity="0.2" d="M521.274 542.781H457.533C456.572 542.792 455.65 543.163 454.95 543.82C454.249 544.478 453.821 545.375 453.75 546.333C453.718 546.791 453.782 547.251 453.936 547.683C454.091 548.116 454.334 548.511 454.649 548.845C454.965 549.179 455.346 549.444 455.769 549.623C456.192 549.802 456.648 549.891 457.107 549.885H520.865C521.825 549.87 522.744 549.498 523.444 548.841C524.144 548.184 524.573 547.29 524.648 546.333C524.678 545.874 524.612 545.414 524.455 544.981C524.298 544.549 524.054 544.153 523.737 543.82C523.42 543.486 523.038 543.222 522.614 543.043C522.19 542.864 521.734 542.775 521.274 542.781Z" fill="#CA9A6E"/>
<path opacity="0.2" d="M550.719 531.024H458.208C457.247 531.035 456.325 531.406 455.625 532.063C454.924 532.721 454.496 533.618 454.425 534.576C454.396 535.033 454.461 535.492 454.617 535.923C454.772 536.355 455.015 536.749 455.33 537.082C455.645 537.416 456.025 537.68 456.447 537.86C456.869 538.04 457.323 538.131 457.781 538.128H550.276C551.235 538.113 552.155 537.741 552.854 537.084C553.554 536.427 553.983 535.533 554.058 534.576C554.088 534.12 554.023 533.663 553.868 533.233C553.713 532.803 553.472 532.409 553.159 532.076C552.846 531.743 552.468 531.478 552.048 531.297C551.629 531.116 551.176 531.023 550.719 531.024Z" fill="#CA9A6E"/>
<path opacity="0.2" d="M567.343 601.673H454.07C453.112 601.692 452.194 602.066 451.495 602.722C450.797 603.378 450.366 604.27 450.287 605.225C450.258 605.684 450.323 606.144 450.48 606.577C450.637 607.009 450.882 607.405 451.198 607.738C451.515 608.072 451.898 608.336 452.321 608.515C452.745 608.694 453.202 608.783 453.662 608.777H566.935C567.893 608.762 568.81 608.389 569.507 607.732C570.203 607.075 570.629 606.18 570.7 605.225C570.729 604.768 570.664 604.309 570.508 603.878C570.352 603.446 570.109 603.052 569.795 602.719C569.48 602.385 569.1 602.121 568.678 601.941C568.256 601.761 567.802 601.67 567.343 601.673Z" fill="#CA9A6E"/>
<path opacity="0.2" d="M547.256 589.898H454.762C453.803 589.913 452.883 590.285 452.184 590.942C451.484 591.599 451.055 592.494 450.979 593.45C450.95 593.908 451.015 594.367 451.171 594.798C451.327 595.229 451.57 595.624 451.885 595.957C452.2 596.29 452.58 596.555 453.002 596.735C453.423 596.915 453.878 597.006 454.336 597.002H546.848C547.806 596.987 548.723 596.614 549.42 595.957C550.117 595.3 550.542 594.406 550.613 593.45C550.642 592.993 550.577 592.534 550.421 592.103C550.266 591.672 550.023 591.277 549.708 590.944C549.393 590.611 549.013 590.346 548.591 590.166C548.169 589.986 547.715 589.895 547.256 589.898Z" fill="#CA9A6E"/>
</svg>
