<svg class="animated" id="freepik_stories-windows" xmlns="http://www.w3.org/2000/svg" viewBox="0 0 500 500"
     version="1.1" xmlns:xlink="http://www.w3.org/1999/xlink" xmlns:svgjs="http://svgjs.com/svgjs">
    <style>svg#freepik_stories-windows:not(.animated) .animable {opacity: 0;}svg#freepik_stories-windows.animated
        #freepik--Windows--inject-31 {animation: 3s Infinite linear floating;animation-delay: 0s;} @keyframes floating {
        0% { opacity: 1; transform: translateY(0px); } 50% { transform: translateY(-10px); } 100% { opacity: 1;
        transform: translateY(0px); } }
    </style>
    <g id="freepik--Floor--inject-31" class="animable" style="transform-origin: 245.009px 351.421px;">
        <path id="freepik--floor--inject-31"
              d="M95.5,429.52c82.56,43.13,216.41,43.13,299,0s82.55-113,0-156.18-216.41-43.13-299,0S13,386.39,95.5,429.52Z"
              style="fill: rgb(240, 240, 240); transform-origin: 245.009px 351.421px;" class="animable"></path>
    </g>
    <g id="freepik--Shadow--inject-31" class="animable" style="transform-origin: 241.42px 343.125px;">
        <path id="freepik--shadow--inject-31"
              d="M165.66,440.9l3.7,2.19a4.79,4.79,0,0,0,4.33,0L414.7,304a1.32,1.32,0,0,0,0-2.5L411,299.32a4.79,4.79,0,0,0-4.33,0l-241,139.08A1.32,1.32,0,0,0,165.66,440.9Z"
              style="fill: rgb(224, 224, 224); transform-origin: 290.183px 371.205px;" class="animable"></path>
        <path id="freepik--shadow--inject-31"
              d="M116.9,412.82l3.7,2.19a4.79,4.79,0,0,0,4.33,0l241-139.08a1.32,1.32,0,0,0,0-2.5l-3.7-2.19a4.79,4.79,0,0,0-4.33,0l-241,139.08A1.32,1.32,0,0,0,116.9,412.82Z"
              style="fill: rgb(224, 224, 224); transform-origin: 241.415px 343.125px;" class="animable"></path>
        <path id="freepik--shadow--inject-31"
              d="M68.14,384.74l3.7,2.2a4.79,4.79,0,0,0,4.33,0l241-139.09a1.32,1.32,0,0,0,0-2.5l-3.7-2.19a4.79,4.79,0,0,0-4.33,0l-241,139.08A1.32,1.32,0,0,0,68.14,384.74Z"
              style="fill: rgb(224, 224, 224); transform-origin: 192.655px 315.05px;" class="animable"></path>
    </g>
    <g id="freepik--Plants--inject-31" class="animable" style="transform-origin: 46.7307px 339.273px;">
        <g id="freepik--plants--inject-31" class="animable" style="transform-origin: 46.7307px 339.273px;">
            <path d="M71.71,342.37c.29-.12,1.2-19.75-7.24-31.31S45.79,298.15,39.06,301,33.72,310.7,42,314.84s18.58,11.38,21,24.57Z"
                  style="fill: rgb(224, 224, 224); transform-origin: 53.3364px 321.048px;" id="el8egrznepnhc"
                  class="animable"></path>
            <path d="M68.6,336.62a.62.62,0,0,1-.62-.53c-3.17-19.94-15-29.7-24.93-32.2a.63.63,0,0,1-.46-.76.64.64,0,0,1,.77-.46c10.36,2.59,22.59,12.68,25.86,33.22a.63.63,0,0,1-.52.72Z"
                  style="fill: rgb(255, 255, 255); transform-origin: 55.9px 319.636px;" id="elmsudzx43u2d"
                  class="animable"></path>
            <path d="M70.18,378.82c-1.28-5.18-6.49-8.59-12.64-9.15-6.39-.58-13.83-1.2-15.8-6.6s0-12.7-.9-16.29c-1.1-4.34-2.76-6.93-11.15-9.56-7.52-2.36-11.68-9.55-4.1-12.59a24.21,24.21,0,0,1,14.91-.71c3.17.81,6.2,2.12,9.4,2.82a32.67,32.67,0,0,0,4.5.62c1.75.12,3.5-.47,5.27-.36,4.55.29,8.63,3.42,10.78,7.44,1.51,2.83,1.17,6,1.06,9.1s-.24,6.23-.35,9.35q-.39,10.14-.77,20.3Z"
                  style="fill: rgb(230, 230, 230); transform-origin: 46.5972px 350.945px;" id="el529qs0ppsva"
                  class="animable"></path>
            <path d="M70.18,361.27a.62.62,0,0,1-.59-.42c-6-16.63-30.38-31.68-38.49-32.64a.63.63,0,1,1,.14-1.25c8.34,1,33.42,16.41,39.54,33.47a.64.64,0,0,1-.39.8A.52.52,0,0,1,70.18,361.27Z"
                  style="fill: rgb(255, 255, 255); transform-origin: 50.6574px 344.11px;" id="elrv1am6k30f"
                  class="animable"></path>
            <path d="M61.54,347.63a.32.32,0,0,1-.14,0,.63.63,0,0,1-.4-.8c2.86-8.42,1.46-14.17,1.45-14.23a.62.62,0,0,1,.45-.76.63.63,0,0,1,.77.45c.06.25,1.51,6.15-1.47,14.95A.64.64,0,0,1,61.54,347.63Z"
                  style="fill: rgb(255, 255, 255); transform-origin: 62.521px 339.728px;" id="elz67b9i5uhap"
                  class="animable"></path>
            <path d="M68.6,357.66a.63.63,0,0,1-.3-.07c-4.9-2.66-15.53-.76-15.64-.74a.64.64,0,0,1-.73-.51.63.63,0,0,1,.5-.74c.46-.08,11.18-2,16.47.88a.63.63,0,0,1-.3,1.18Z"
                  style="fill: rgb(255, 255, 255); transform-origin: 60.5705px 356.28px;" id="el2r9cxf597pj"
                  class="animable"></path>
        </g>
        <g id="freepik--plants--inject-31" class="animable" style="transform-origin: 46.7307px 339.273px;">
            <path d="M71.71,342.37c.29-.12,1.2-19.75-7.24-31.31S45.79,298.15,39.06,301,33.72,310.7,42,314.84s18.58,11.38,21,24.57Z"
                  style="fill: rgb(186, 104, 200); transform-origin: 53.3364px 321.048px;" id="elbgu803wmnba"
                  class="animable"></path>
            <g id="el2dzqk9d0f52">
                <g style="opacity: 0.1; transform-origin: 53.3364px 321.048px;" class="animable">
                    <path d="M71.71,342.37c.29-.12,1.2-19.75-7.24-31.31S45.79,298.15,39.06,301,33.72,310.7,42,314.84s18.58,11.38,21,24.57Z"
                          id="elwc9d5s8e7xs" class="animable" style="transform-origin: 53.3364px 321.048px;"></path>
                </g>
            </g>
            <path d="M68.6,336.62a.62.62,0,0,1-.62-.53c-3.17-19.94-15-29.7-24.93-32.2a.63.63,0,0,1-.46-.76.64.64,0,0,1,.77-.46c10.36,2.59,22.59,12.68,25.86,33.22a.63.63,0,0,1-.52.72Z"
                  style="fill: rgb(255, 255, 255); transform-origin: 55.9px 319.636px;" id="elrnqc4lu74n"
                  class="animable"></path>
            <path d="M70.18,378.82c-1.28-5.18-6.49-8.59-12.64-9.15-6.39-.58-13.83-1.2-15.8-6.6s0-12.7-.9-16.29c-1.1-4.34-2.76-6.93-11.15-9.56-7.52-2.36-11.68-9.55-4.1-12.59a24.21,24.21,0,0,1,14.91-.71c3.17.81,6.2,2.12,9.4,2.82a32.67,32.67,0,0,0,4.5.62c1.75.12,3.5-.47,5.27-.36,4.55.29,8.63,3.42,10.78,7.44,1.51,2.83,1.17,6,1.06,9.1s-.24,6.23-.35,9.35q-.39,10.14-.77,20.3Z"
                  style="fill: rgb(186, 104, 200); transform-origin: 46.5972px 350.945px;" id="elcr81r93fogv"
                  class="animable"></path>
            <path d="M70.18,361.27a.62.62,0,0,1-.59-.42c-6-16.63-30.38-31.68-38.49-32.64a.63.63,0,1,1,.14-1.25c8.34,1,33.42,16.41,39.54,33.47a.64.64,0,0,1-.39.8A.52.52,0,0,1,70.18,361.27Z"
                  style="fill: rgb(255, 255, 255); transform-origin: 50.6574px 344.11px;" id="ely8nlhqyydcm"
                  class="animable"></path>
            <path d="M61.54,347.63a.32.32,0,0,1-.14,0,.63.63,0,0,1-.4-.8c2.86-8.42,1.46-14.17,1.45-14.23a.62.62,0,0,1,.45-.76.63.63,0,0,1,.77.45c.06.25,1.51,6.15-1.47,14.95A.64.64,0,0,1,61.54,347.63Z"
                  style="fill: rgb(255, 255, 255); transform-origin: 62.521px 339.728px;" id="elqbyrvsolfff"
                  class="animable"></path>
            <path d="M68.6,357.66a.63.63,0,0,1-.3-.07c-4.9-2.66-15.53-.76-15.64-.74a.64.64,0,0,1-.73-.51.63.63,0,0,1,.5-.74c.46-.08,11.18-2,16.47.88a.63.63,0,0,1-.3,1.18Z"
                  style="fill: rgb(255, 255, 255); transform-origin: 60.5705px 356.28px;" id="elex0mstjhotg"
                  class="animable"></path>
        </g>
    </g>
    <g id="freepik--Windows--inject-31" class="animable animator-active" style="transform-origin: 260.294px 237.745px;">
        <path d="M72.35,384.35a4.65,4.65,0,0,1-2-3.67v-206a4.78,4.78,0,0,1,2.17-3.75L307.81,35.05A4.07,4.07,0,0,1,314,38.64v206a4.78,4.78,0,0,1-2.17,3.75L76.55,384.27A4.64,4.64,0,0,1,72.35,384.35Z"
              style="fill: rgb(186, 104, 200); transform-origin: 192.176px 209.633px;" id="elh58tkr2hvdq"
              class="animable"></path>
        <g id="elfo8zqt20189">
            <path d="M314,38.29c-.15-1.12-1.06-1.53-2.14-.9L76.55,173.24A4.6,4.6,0,0,0,75,174.86L71,172.51a4.48,4.48,0,0,1,1.53-1.61L307.81,35.05a4,4,0,0,1,6.2,3.24Z"
                  style="fill: rgb(255, 255, 255); opacity: 0.4; transform-origin: 192.505px 104.625px;"
                  class="animable"></path>
        </g>
        <path d="M76.14,384.46l-.09,0a.9.9,0,0,1-.21.08l-.16.05a1.32,1.32,0,0,1-.3.07.65.65,0,0,1-.2,0l-.33,0a4.18,4.18,0,0,1-2.49-.43,4.62,4.62,0,0,1-2-3.67V200.29l4.07,2.35V383c0,1,.49,1.55,1.2,1.55a1,1,0,0,0,.29,0h.05A.83.83,0,0,0,76.14,384.46Z"
              style="fill: rgb(240, 240, 240); transform-origin: 73.25px 292.494px;" id="elz1w4udoqoi"
              class="animable"></path>
        <g id="elqdn1r29zwun">
            <path d="M75,174.86a4.4,4.4,0,0,0-.63,2.13v25.65l-4.07-2.35V174.65a2.26,2.26,0,0,1,0-.26,5.07,5.07,0,0,1,.09-.54,5.3,5.3,0,0,1,.54-1.34Z"
                  style="opacity: 0.1; transform-origin: 72.6481px 187.575px;" class="animable"></path>
        </g>
        <path d="M314,38.64V50.21L141.54,149.79c-1.19.69-2.16.13-2.16-1.25v-4.38c0-1.38-1-1.94-2.17-1.25L84.68,173.24A4.78,4.78,0,0,0,82.51,177v4.38a4.8,4.8,0,0,1-2.16,3.75l-6,3.44V177a4.8,4.8,0,0,1,2.16-3.75L311.87,37.39C313.06,36.7,314,37.26,314,38.64Z"
              style="fill: rgb(186, 104, 200); transform-origin: 194.175px 112.832px;" id="el1bs3i1j8o6y"
              class="animable"></path>
        <path d="M314,244.66a4.78,4.78,0,0,1-2.17,3.75L76.55,384.27c-1.19.69-2.16.13-2.16-1.25V188.56l6-3.44c1.19-.69,3.13-11.19,4.33-11.88l51.65-29.82c1.2-.69,4,7.06,5.21,6.37L314,50.21V244.66Z"
              style="fill: rgb(250, 250, 250); transform-origin: 194.195px 217.388px;" id="eltt9a3axlfxd"
              class="animable"></path>
        <path d="M314,50.21V64.29L74.39,202.64V188.56L78.84,186c1.19-.69,1.59-1.74,2.16-3.75L82.51,177c.47-1.82,1-3.06,2.17-3.75l51.65-29.82c1.2-.69,2.14-.77,3,.74l1.85,3.36c.68,1.18,1,1.87,2.21,1.18Z"
              style="fill: rgb(230, 230, 230); transform-origin: 194.195px 126.425px;" id="el1lnln6p99"
              class="animable"></path>
        <path d="M303.88,45.89c1.51-.86,2.73-.16,2.73,1.58a6,6,0,0,1-2.73,4.72c-1.5.86-2.72.16-2.72-1.58A6,6,0,0,1,303.88,45.89Z"
              style="fill: rgb(255, 255, 255); transform-origin: 303.885px 49.04px;" id="elpuivged42n"
              class="animable"></path>
        <g id="els5yyub8ysxp">
            <ellipse cx="294.07" cy="54.69" rx="3.85" ry="2.22"
                     style="fill: rgb(255, 255, 255); transform-origin: 294.07px 54.69px; transform: rotate(-60deg);"
                     class="animable"></ellipse>
        </g>
        <path d="M284.26,57.2c1.51-.86,2.73-.16,2.73,1.58a6,6,0,0,1-2.73,4.72c-1.5.86-2.72.16-2.72-1.58A6,6,0,0,1,284.26,57.2Z"
              style="fill: rgb(255, 255, 255); transform-origin: 284.265px 60.35px;" id="el40jdcp7js7j"
              class="animable"></path>
        <g id="el8mb3rotpqj8">
            <path d="M84.32,189.58l-3.4,2,1.3-2.49a.63.63,0,0,0,0-.61c-.1-.12-.27,0-.38.18L80,192.17h0a.69.69,0,0,0-.05.13l0,.05a1.1,1.1,0,0,0,0,.18.78.78,0,0,0,0,.16l0,0a.22.22,0,0,0,.05.08h0l1.85,1.42a.15.15,0,0,0,.18,0,.56.56,0,0,0,.2-.26c.1-.23.09-.49,0-.58l-1.3-1,3.4-2a.73.73,0,0,0,.27-.58C84.59,189.61,84.47,189.49,84.32,189.58Z"
                  style="fill: rgb(69, 90, 100); opacity: 0.5; transform-origin: 82.273px 191.326px;"
                  class="animable"></path>
        </g>
        <g id="elyeid4r92i78">
            <path d="M87.16,187.94l3.4-2-1.3-1c-.11-.09-.12-.35,0-.58s.27-.35.38-.26l1.85,1.42h0a.22.22,0,0,1,0,.08s0,0,0,0a.78.78,0,0,1,0,.16,1.1,1.1,0,0,1,0,.18s0,0,0,.05a.69.69,0,0,1,0,.13h0l-1.85,3.55a.48.48,0,0,1-.18.21.15.15,0,0,1-.2,0,.63.63,0,0,1,0-.61l1.3-2.49-3.4,2c-.15.09-.27,0-.27-.26A.73.73,0,0,1,87.16,187.94Z"
                  style="fill: rgb(69, 90, 100); opacity: 0.5; transform-origin: 89.192px 186.994px;"
                  class="animable"></path>
        </g>
        <g id="elmickskdpoz">
            <path d="M98.31,178.15c0-.2-.2-.18-.29,0l-.47,1.13c-.79-.08-1.75.69-2.4,2.07-.84,1.78-.84,3.89,0,4.7a1.2,1.2,0,0,0,1.52.09,4.12,4.12,0,0,0,1.53-1.85.57.57,0,0,0,0-.6c-.11-.1-.28,0-.39.22-.62,1.33-1.65,1.93-2.28,1.32s-.62-2.18,0-3.51c.45-1,1.1-1.51,1.66-1.54l-.35.86c-.1.22,0,.43.13.33l1.39-.9a.45.45,0,0,0,.15-.38Z"
                  style="fill: rgb(69, 90, 100); opacity: 0.5; transform-origin: 96.516px 182.188px;"
                  class="animable"></path>
        </g>
        <g id="el3d20sxto408">
            <path d="M134.84,149.85l1.24-2.63a.82.82,0,0,0,0-.81c-.15-.14-.39,0-.53.3l-1.24,2.63-1.24-1.2c-.15-.14-.38,0-.53.31a.79.79,0,0,0,0,.82l1.24,1.19-1.24,2.62a.79.79,0,0,0,0,.82.22.22,0,0,0,.27,0,.76.76,0,0,0,.26-.33l1.24-2.62,1.24,1.19a.21.21,0,0,0,.26,0,.73.73,0,0,0,.27-.32.84.84,0,0,0,0-.82Z"
                  style="fill: rgb(69, 90, 100); opacity: 0.5; transform-origin: 134.306px 150.151px;"
                  class="animable"></path>
        </g>
        <path d="M102.82,181.38V177a4.81,4.81,0,0,1,2.16-3.75L299.69,60.89c1.19-.69,2.16-.13,2.16,1.25v4.38a4.8,4.8,0,0,1-2.16,3.75L105,182.63C103.79,183.32,102.82,182.76,102.82,181.38Z"
              style="fill: rgb(250, 250, 250); transform-origin: 202.335px 121.76px;" id="elxmswc10ubtn"
              class="animable"></path>
        <path d="M296.74,70.61a.53.53,0,0,1-.19,0,.59.59,0,0,1-.33-.65l.21-1.78-.83-.6a.58.58,0,0,1-.23-.49,1,1,0,0,1,.36-.75l1.27-1a.22.22,0,0,0,.05-.1l.57-1.87a.81.81,0,0,1,.64-.6.5.5,0,0,1,.5.3h0l.48,1,1.07-.41a.51.51,0,0,1,.58.13.81.81,0,0,1,0,.88L300,66.38c0,.05,0,.1,0,.11l.21,1.56a1,1,0,0,1-.27.78.6.6,0,0,1-.5.2l-1-.13-1.12,1.43A.64.64,0,0,1,296.74,70.61ZM296.13,67l.83.6a.64.64,0,0,1,.22.6L297,69.38l.75-1a.65.65,0,0,1,.57-.28l1,.13a.37.37,0,0,0,0-.11l-.22-1.57a1,1,0,0,1,.11-.56l.81-1.51-.83.32a.51.51,0,0,1-.66-.27l-.37-.79-.51,1.66a1,1,0,0,1-.31.47l-1.27,1A.17.17,0,0,0,296.13,67Zm3.2-2.74h0Z"
              style="fill: rgb(224, 224, 224); transform-origin: 298.195px 66.6935px;" id="el7eb5mrksmp6"
              class="animable"></path>
        <g id="elzw5dlllg50h">
            <g style="opacity: 0.5; transform-origin: 307.434px 61.39px;" class="animable">
                <path d="M304.4,60.36A.75.75,0,0,1,304,59l6.09-3.52a.75.75,0,1,1,.75,1.3l-6.09,3.52A.75.75,0,0,1,304.4,60.36Z"
                      style="fill: rgb(69, 90, 100); transform-origin: 307.45px 57.8707px;" id="el9l9ezo365el"
                      class="animable"></path>
                <path d="M304.4,63.88a.75.75,0,0,1-.37-1.4L310.12,59a.75.75,0,1,1,.75,1.3l-6.09,3.52A.86.86,0,0,1,304.4,63.88Z"
                      style="fill: rgb(69, 90, 100); transform-origin: 307.45px 61.3908px;" id="elec4mm3q0wnn"
                      class="animable"></path>
                <path d="M304.4,67.4A.75.75,0,0,1,304,66l6.09-3.52a.75.75,0,0,1,1,.27.76.76,0,0,1-.28,1l-6.09,3.52A.86.86,0,0,1,304.4,67.4Z"
                      style="fill: rgb(69, 90, 100); transform-origin: 307.399px 64.8946px;" id="elrwm6gg49c3c"
                      class="animable"></path>
            </g>
        </g>
        <polygon points="74.39 188.56 74.39 202.64 70.32 200.29 70.32 186.22 74.39 188.56"
                 style="fill: rgb(224, 224, 224); transform-origin: 72.355px 194.43px;" id="eldwck4i8onmh"
                 class="animable"></polygon>
        <path d="M84.68,238.92l44.41-25.65c1.19-.69,2.16-.13,2.16,1.25V340.86a4.8,4.8,0,0,1-2.16,3.75L84.67,370.25c-1.19.69-2.16.13-2.16-1.25V242.67A4.78,4.78,0,0,1,84.68,238.92Z"
              style="fill: rgb(240, 240, 240); transform-origin: 106.88px 291.76px;" id="ely7yiuw7j828"
              class="animable"></path>
        <path d="M92.8,243.61,121,227.34c1.2-.69,2.17-.2,2.17,1.1A4.65,4.65,0,0,1,121,232L92.8,248.3c-1.2.69-2.17.2-2.17-1.1A4.64,4.64,0,0,1,92.8,243.61Z"
              style="fill: rgb(224, 224, 224); transform-origin: 106.9px 237.82px;" id="elkad674k2hwt"
              class="animable"></path>
        <path d="M90.63,255.74v1.69c0,.83.58,1.16,1.3.75l1.47-.85a2.88,2.88,0,0,0,1.3-2.25v-1.69c0-.83-.59-1.16-1.3-.75l-1.47.85A2.86,2.86,0,0,0,90.63,255.74Z"
              style="fill: rgb(250, 250, 250); transform-origin: 92.665px 255.41px;" id="elq5pxb41wsyf"
              class="animable"></path>
        <path d="M98.76,251.89c0,1.3,1,1.79,2.16,1.1l20-11.57a4.64,4.64,0,0,0,2.17-3.6c0-1.29-1-1.78-2.17-1.09l-20,11.57A4.65,4.65,0,0,0,98.76,251.89Z"
              style="fill: rgb(224, 224, 224); transform-origin: 110.925px 244.86px;" id="elrwqhfo11vpb"
              class="animable"></path>
        <path d="M90.63,265.13v1.69c0,.83.58,1.16,1.3.75l1.47-.85a2.88,2.88,0,0,0,1.3-2.25v-1.69c0-.83-.59-1.16-1.3-.75l-1.47.85A2.86,2.86,0,0,0,90.63,265.13Z"
              style="fill: rgb(250, 250, 250); transform-origin: 92.665px 264.8px;" id="el3wlhsnabxdx"
              class="animable"></path>
        <path d="M98.76,261.28c0,1.3,1,1.79,2.16,1.1l20-11.57a4.64,4.64,0,0,0,2.17-3.6c0-1.29-1-1.78-2.17-1.09l-20,11.57A4.65,4.65,0,0,0,98.76,261.28Z"
              style="fill: rgb(224, 224, 224); transform-origin: 110.925px 254.25px;" id="elwdsm4egsuj"
              class="animable"></path>
        <path d="M90.63,274.5v1.69c0,.83.58,1.17,1.3.75l1.47-.84a2.9,2.9,0,0,0,1.3-2.25v-1.69c0-.83-.59-1.17-1.3-.75l-1.47.84A2.87,2.87,0,0,0,90.63,274.5Z"
              style="fill: rgb(250, 250, 250); transform-origin: 92.665px 274.175px;" id="elke96d6eovio"
              class="animable"></path>
        <path d="M98.76,270.66c0,1.29,1,1.78,2.16,1.09l20-11.57a4.64,4.64,0,0,0,2.17-3.59c0-1.3-1-1.79-2.17-1.1l-20,11.57A4.65,4.65,0,0,0,98.76,270.66Z"
              style="fill: rgb(224, 224, 224); transform-origin: 110.925px 263.62px;" id="elf7b4fs6zn3q"
              class="animable"></path>
        <path d="M90.63,283.87v1.69c0,.83.58,1.17,1.3.75l1.47-.84a2.9,2.9,0,0,0,1.3-2.25v-1.69c0-.83-.59-1.17-1.3-.75l-1.47.84A2.87,2.87,0,0,0,90.63,283.87Z"
              style="fill: rgb(250, 250, 250); transform-origin: 92.665px 283.545px;" id="elk31a674ajpc"
              class="animable"></path>
        <path d="M98.76,280c0,1.29,1,1.78,2.16,1.09l20-11.57a4.64,4.64,0,0,0,2.17-3.59c0-1.3-1-1.79-2.17-1.1l-20,11.57A4.65,4.65,0,0,0,98.76,280Z"
              style="fill: rgb(224, 224, 224); transform-origin: 110.925px 272.96px;" id="el2j3ukadhjjn"
              class="animable"></path>
        <path d="M92.63,295.29,120.79,279c1.2-.69,2.17-.2,2.17,1.1a4.64,4.64,0,0,1-2.17,3.59L92.63,300c-1.2.69-2.17.2-2.17-1.1A4.64,4.64,0,0,1,92.63,295.29Z"
              style="fill: rgb(224, 224, 224); transform-origin: 106.71px 289.5px;" id="ellzpjo0g769i"
              class="animable"></path>
        <path d="M90.46,307.43v1.69c0,.82.58,1.16,1.3.75l1.46-.85a2.86,2.86,0,0,0,1.3-2.25v-1.69c0-.83-.58-1.16-1.3-.75l-1.46.85A2.86,2.86,0,0,0,90.46,307.43Z"
              style="fill: rgb(250, 250, 250); transform-origin: 92.49px 307.099px;" id="elrbiw3wl2yaa"
              class="animable"></path>
        <path d="M98.58,303.58c0,1.3,1,1.79,2.17,1.1l20-11.58a4.64,4.64,0,0,0,2.17-3.59c0-1.3-1-1.79-2.17-1.1l-20,11.58A4.64,4.64,0,0,0,98.58,303.58Z"
              style="fill: rgb(224, 224, 224); transform-origin: 110.75px 296.545px;" id="elvzac7tcwmjk"
              class="animable"></path>
        <path d="M90.46,316.82v1.69c0,.83.58,1.16,1.3.75l1.46-.85a2.86,2.86,0,0,0,1.3-2.25v-1.69c0-.83-.58-1.16-1.3-.75l-1.46.85A2.86,2.86,0,0,0,90.46,316.82Z"
              style="fill: rgb(250, 250, 250); transform-origin: 92.49px 316.49px;" id="eljdhvvs7gvik"
              class="animable"></path>
        <path d="M98.58,313c0,1.3,1,1.79,2.17,1.1l20-11.58A4.64,4.64,0,0,0,123,298.9c0-1.3-1-1.79-2.17-1.1l-20,11.58A4.64,4.64,0,0,0,98.58,313Z"
              style="fill: rgb(224, 224, 224); transform-origin: 110.79px 305.95px;" id="elgbxct9eha4o"
              class="animable"></path>
        <path d="M90.46,326.19v1.69c0,.83.58,1.17,1.3.75l1.46-.84a2.89,2.89,0,0,0,1.3-2.25v-1.7c0-.82-.58-1.16-1.3-.74l-1.46.84A2.86,2.86,0,0,0,90.46,326.19Z"
              style="fill: rgb(250, 250, 250); transform-origin: 92.49px 325.865px;" id="elkaxsbhmg91r"
              class="animable"></path>
        <path d="M98.58,322.35c0,1.29,1,1.78,2.17,1.09l20-11.57a4.64,4.64,0,0,0,2.17-3.6c0-1.29-1-1.78-2.17-1.09l-20,11.57A4.64,4.64,0,0,0,98.58,322.35Z"
              style="fill: rgb(224, 224, 224); transform-origin: 110.75px 315.31px;" id="elml8ne1pumjp"
              class="animable"></path>
        <path d="M90.46,335.56v1.69c0,.83.58,1.17,1.3.75l1.46-.84a2.89,2.89,0,0,0,1.3-2.25v-1.69c0-.83-.58-1.17-1.3-.75l-1.46.84A2.87,2.87,0,0,0,90.46,335.56Z"
              style="fill: rgb(250, 250, 250); transform-origin: 92.49px 335.235px;" id="elatkscq1vygc"
              class="animable"></path>
        <path d="M98.58,331.72c0,1.29,1,1.78,2.17,1.09l20-11.57a4.64,4.64,0,0,0,2.17-3.6c0-1.29-1-1.78-2.17-1.09l-20,11.57A4.64,4.64,0,0,0,98.58,331.72Z"
              style="fill: rgb(224, 224, 224); transform-origin: 110.75px 324.68px;" id="elez7up1qn9u"
              class="animable"></path>
        <path d="M236.87,195.76v2.32c0,1.38,1,1.94,2.16,1.24l56.61-32.94a4.83,4.83,0,0,0,2.16-3.76v-2c0-1.38-1-1.94-2.17-1.25L239,192A4.8,4.8,0,0,0,236.87,195.76Z"
              style="fill: rgb(224, 224, 224); transform-origin: 267.335px 179.348px;" id="el2f3ydgv941c"
              class="animable"></path>
        <path d="M239,206.08l64.73-37.37c1.19-.69,2.16-.2,2.16,1.1a4.65,4.65,0,0,1-2.16,3.59L239,210.77c-1.19.69-2.16.2-2.16-1.09A4.65,4.65,0,0,1,239,206.08Z"
              style="fill: rgb(235, 235, 235); transform-origin: 271.365px 189.74px;" id="el6jhch6a9875"
              class="animable"></path>
        <path d="M239,215.46l64.73-37.37c1.19-.69,2.16-.2,2.16,1.09a4.65,4.65,0,0,1-2.16,3.6L239,220.15c-1.19.69-2.16.2-2.16-1.1A4.65,4.65,0,0,1,239,215.46Z"
              style="fill: rgb(235, 235, 235); transform-origin: 271.365px 199.12px;" id="elbq9lq2s7lu"
              class="animable"></path>
        <path d="M239,224.83l64.73-37.37c1.19-.69,2.16-.2,2.16,1.1a4.65,4.65,0,0,1-2.16,3.59L239,229.52c-1.19.69-2.16.2-2.16-1.09A4.65,4.65,0,0,1,239,224.83Z"
              style="fill: rgb(235, 235, 235); transform-origin: 271.365px 208.49px;" id="elumh5uld57fb"
              class="animable"></path>
        <path d="M239,234.21l64.73-37.37c1.19-.69,2.16-.2,2.16,1.09a4.65,4.65,0,0,1-2.16,3.6L239,238.9c-1.19.69-2.16.2-2.16-1.1A4.65,4.65,0,0,1,239,234.21Z"
              style="fill: rgb(235, 235, 235); transform-origin: 271.365px 217.87px;" id="el7uvju3y8sq4"
              class="animable"></path>
        <path d="M239,243.58l64.73-37.37c1.19-.69,2.16-.2,2.16,1.1a4.65,4.65,0,0,1-2.16,3.59L239,248.27c-1.19.69-2.16.2-2.16-1.09A4.65,4.65,0,0,1,239,243.58Z"
              style="fill: rgb(235, 235, 235); transform-origin: 271.365px 227.24px;" id="elmc1brs7if5"
              class="animable"></path>
        <path d="M239,253l64.73-37.37c1.19-.69,2.16-.2,2.16,1.09a4.65,4.65,0,0,1-2.16,3.6L239,257.65c-1.19.69-2.16.2-2.16-1.1A4.65,4.65,0,0,1,239,253Z"
              style="fill: rgb(235, 235, 235); transform-origin: 271.365px 236.64px;" id="elx3cvajmy3y"
              class="animable"></path>
        <path d="M239,262.33,303.76,225c1.19-.69,2.16-.2,2.16,1.1a4.67,4.67,0,0,1-2.16,3.6L239,267c-1.19.69-2.16.2-2.16-1.09A4.65,4.65,0,0,1,239,262.33Z"
              style="fill: rgb(235, 235, 235); transform-origin: 271.38px 246px;" id="elpwnl8za24vo"
              class="animable"></path>
        <path d="M239,271.71l64.73-37.37c1.19-.69,2.16-.2,2.16,1.1a4.65,4.65,0,0,1-2.16,3.59L239,276.4c-1.19.69-2.16.2-2.16-1.1A4.65,4.65,0,0,1,239,271.71Z"
              style="fill: rgb(235, 235, 235); transform-origin: 271.365px 255.37px;" id="el6ju283vkl7a"
              class="animable"></path>
        <path d="M141.54,248.3l85-49.1c1.19-.69,2.16-.13,2.16,1.25v84.12a4.8,4.8,0,0,1-2.16,3.75l-85,49.1c-1.19.69-2.16.13-2.16-1.25V252.05A4.8,4.8,0,0,1,141.54,248.3Z"
              style="fill: rgb(240, 240, 240); transform-origin: 184.04px 268.31px;" id="ela32ww084bvf"
              class="animable"></path>
        <path d="M205,246.92l-14.2,25.14,10,12.95-33-28.43-28.43,61.56v18c0,1.38,1,1.94,2.16,1.25l85-49.1a4.8,4.8,0,0,0,2.16-3.75v-16Z"
              style="fill: rgb(224, 224, 224); transform-origin: 184.03px 292.303px;" id="elfw34gcur1h"
              class="animable"></path>
        <path d="M208.43,221c3.54-2,6.4-.38,6.4,3.7a14.14,14.14,0,0,1-6.4,11.09c-3.54,2-6.4.39-6.4-3.69A14.16,14.16,0,0,1,208.43,221Z"
              style="fill: rgb(224, 224, 224); transform-origin: 208.43px 228.396px;" id="elksbgd7um8yk"
              class="animable"></path>
        <path d="M84.67,206.08,303.76,79.59c1.19-.69,2.16-.13,2.16,1.25V104a4.78,4.78,0,0,1-2.17,3.75L84.67,234.22c-1.19.7-2.16.14-2.16-1.25V209.83A4.8,4.8,0,0,1,84.67,206.08Z"
              style="fill: rgb(224, 224, 224); transform-origin: 194.215px 156.908px;" id="el0gfbl3tsx8ya"
              class="animable"></path>
        <path d="M224.68,137.3v4c0,.82.59,1.16,1.3.75l63.69-36.77v-7L226,135.05A2.89,2.89,0,0,0,224.68,137.3Z"
              style="fill: rgb(250, 250, 250); transform-origin: 257.175px 120.252px;" id="elqrn37v466vs"
              class="animable"></path>
        <path d="M296.5,94.34c.72-.41,1.3-.08,1.3.75v4a2.89,2.89,0,0,1-1.3,2.25l-6.83,3.94v-7Z"
              style="fill: rgb(235, 235, 235); transform-origin: 293.735px 99.7221px;" id="elxm4a4nyiavo"
              class="animable"></path>
        <path d="M296,99.87l-.76-.23a4.17,4.17,0,0,0,.12-1,1.79,1.79,0,0,0-.69-1.63,1.09,1.09,0,0,0-1.11,0,3.92,3.92,0,0,0-1.52,3.17,1.81,1.81,0,0,0,.69,1.63,1,1,0,0,0,.49.12,1.25,1.25,0,0,0,.62-.18,3.18,3.18,0,0,0,1.23-1.64l.76.23.09,0a.29.29,0,0,0,.27-.2A.3.3,0,0,0,296,99.87Zm-2.44,1.46a.52.52,0,0,1-.54.06,1.32,1.32,0,0,1-.42-1.14,3.41,3.41,0,0,1,1.24-2.68.74.74,0,0,1,.34-.11.39.39,0,0,1,.21.06,1.34,1.34,0,0,1,.41,1.14A3.39,3.39,0,0,1,293.55,101.33Z"
              style="fill: rgb(250, 250, 250); transform-origin: 294.109px 99.3941px;" id="elektmlaqij8"
              class="animable"></path>
        <path d="M139.38,209.83v27.84c0,1.38,1,1.94,2.16,1.25l162.22-93.66a4.8,4.8,0,0,0,2.16-3.75V113.68c0-1.38-1-1.94-2.16-1.25L141.54,206.08A4.8,4.8,0,0,0,139.38,209.83Z"
              style="fill: rgb(235, 235, 235); transform-origin: 222.65px 175.675px;" id="el0j1rcpq5s8z"
              class="animable"></path>
        <path d="M121.1,412.48a4.63,4.63,0,0,1-2-3.67v-206a4.81,4.81,0,0,1,2.16-3.75L356.55,63.18a4.07,4.07,0,0,1,6.23,3.6v206a4.8,4.8,0,0,1-2.16,3.75L125.29,412.41A4.62,4.62,0,0,1,121.1,412.48Z"
              style="fill: rgb(186, 104, 200); transform-origin: 240.941px 237.753px;" id="elruhsau09bm"
              class="animable"></path>
        <path d="M362.76,66.42c-.15-1.12-1.06-1.53-2.14-.9L125.29,201.38a4.6,4.6,0,0,0-1.53,1.62l-4.06-2.35a4.48,4.48,0,0,1,1.53-1.61L356.56,63.18a4,4,0,0,1,6.2,3.24Z"
              style="fill: rgb(69, 90, 100); transform-origin: 241.23px 132.76px;" id="el8t8lpow7krj"
              class="animable"></path>
        <path d="M124.88,412.59l-.09,0a.9.9,0,0,1-.21.08l-.16.05a1.32,1.32,0,0,1-.3.07.65.65,0,0,1-.2,0l-.33.05a4.18,4.18,0,0,1-2.49-.43,4.62,4.62,0,0,1-2-3.67V228.43l4.07,2.35V411.15c0,1,.49,1.55,1.2,1.55a1,1,0,0,0,.29,0h0A.83.83,0,0,0,124.88,412.59Z"
              style="fill: rgb(240, 240, 240); transform-origin: 121.99px 320.654px;" id="elzwohr4xrt39"
              class="animable"></path>
        <path d="M123.76,203a4.4,4.4,0,0,0-.63,2.13v25.65l-4.07-2.35V202.79a2.26,2.26,0,0,1,0-.26,5.07,5.07,0,0,1,.09-.54,5.3,5.3,0,0,1,.54-1.34Z"
              style="fill: rgb(38, 50, 56); transform-origin: 121.408px 215.715px;" id="elb2hjsiyvzog"
              class="animable"></path>
        <path d="M362.78,66.77V78.34l-172.5,99.59c-1.19.69-2.16.13-2.16-1.25V172.3c0-1.38-1-1.94-2.17-1.25l-52.53,30.33a4.78,4.78,0,0,0-2.17,3.75v4.38a4.8,4.8,0,0,1-2.16,3.75l-6,3.44V205.13a4.8,4.8,0,0,1,2.16-3.75L360.62,65.52C361.81,64.83,362.78,65.39,362.78,66.77Z"
              style="fill: rgb(55, 71, 79); transform-origin: 242.935px 140.962px;" id="elas362rzmiuh"
              class="animable"></path>
        <path d="M362.79,272.8a4.78,4.78,0,0,1-2.17,3.75L125.29,412.4c-1.19.69-2.16.13-2.16-1.25V216.7l6-3.44c1.19-.69,3.13-11.19,4.33-11.88l51.65-29.82c1.2-.69,4,7.06,5.21,6.37l172.5-99.59V272.8Z"
              style="fill: rgb(250, 250, 250); transform-origin: 242.975px 245.518px;" id="elbyjwmav2f4"
              class="animable"></path>
        <path d="M362.78,78.34V92.42L123.13,230.78V216.7l4.45-2.58c1.19-.69,1.59-1.74,2.16-3.75l1.51-5.24c.48-1.82,1-3.06,2.17-3.75l51.65-29.82c1.2-.69,2.14-.77,3.05.74l1.86,3.36c.67,1.17,1,1.86,2.2,1.17Z"
              style="fill: rgb(230, 230, 230); transform-origin: 242.955px 154.56px;" id="elis48tmaqly8"
              class="animable"></path>
        <g id="elzn9zn09bb1e">
            <ellipse cx="352.63" cy="77.17" rx="3.85" ry="2.22"
                     style="fill: rgb(255, 255, 255); transform-origin: 352.63px 77.17px; transform: rotate(-60deg);"
                     class="animable"></ellipse>
        </g>
        <path d="M342.82,79.68c1.5-.86,2.72-.16,2.72,1.58A6,6,0,0,1,342.82,86c-1.51.86-2.73.16-2.73-1.58A6,6,0,0,1,342.82,79.68Z"
              style="fill: rgb(255, 255, 255); transform-origin: 342.815px 82.84px;" id="ela5fk1criocw"
              class="animable"></path>
        <path d="M333,85.34c1.5-.87,2.72-.17,2.72,1.57A6,6,0,0,1,333,91.63c-1.51.87-2.73.17-2.73-1.57A6,6,0,0,1,333,85.34Z"
              style="fill: rgb(255, 255, 255); transform-origin: 332.995px 88.485px;" id="elnc0wjwngtzb"
              class="animable"></path>
        <g id="ellsprj81eho">
            <path d="M133.06,217.71l-3.39,2,1.29-2.5a.61.61,0,0,0,0-.61c-.1-.11-.28,0-.39.19l-1.84,3.54v0s0,.08-.05.13,0,0,0,0a.57.57,0,0,0,0,.18.35.35,0,0,0,0,.16s0,0,0,0l.05.07h0l1.84,1.42a.17.17,0,0,0,.18,0,.61.61,0,0,0,.21-.27c.1-.23.09-.49,0-.58l-1.29-1,3.39-2a.71.71,0,0,0,.28-.58C133.34,217.74,133.22,217.63,133.06,217.71Z"
                  style="fill: rgb(69, 90, 100); opacity: 0.5; transform-origin: 130.999px 219.436px;"
                  class="animable"></path>
        </g>
        <g id="elik9hysc1aa">
            <path d="M135.9,216.07l3.4-2-1.29-1c-.12-.09-.13-.35,0-.58s.27-.35.39-.27l1.84,1.42h0l.05.07s0,0,0,0a.34.34,0,0,1,0,.15.58.58,0,0,1,0,.19s0,0,0,0,0,.09-.05.13v0l-1.84,3.54a.65.65,0,0,1-.18.21.16.16,0,0,1-.21,0,.61.61,0,0,1,0-.61l1.29-2.5-3.4,2c-.15.08-.27,0-.27-.27A.73.73,0,0,1,135.9,216.07Z"
                  style="fill: rgb(69, 90, 100); opacity: 0.5; transform-origin: 137.964px 215.082px;"
                  class="animable"></path>
        </g>
        <g id="el2xtxwmusdh">
            <path d="M147.05,206.29c0-.21-.2-.18-.29,0l-.46,1.14c-.8-.09-1.76.69-2.41,2.06-.84,1.78-.84,3.89,0,4.7a1.2,1.2,0,0,0,1.53.09,4.25,4.25,0,0,0,1.53-1.85.6.6,0,0,0,0-.59c-.11-.11-.28,0-.39.22-.63,1.33-1.65,1.92-2.28,1.32s-.63-2.18,0-3.52c.45-.94,1.09-1.5,1.65-1.54l-.35.86c-.09.22,0,.43.14.34l1.38-.91a.45.45,0,0,0,.16-.38Z"
                  style="fill: rgb(69, 90, 100); opacity: 0.5; transform-origin: 145.261px 210.328px;"
                  class="animable"></path>
        </g>
        <g id="elo68jwalrt3">
            <path d="M183.58,178l1.24-2.62a.79.79,0,0,0,0-.82c-.14-.14-.38,0-.53.31l-1.24,2.62-1.24-1.19c-.14-.14-.38,0-.53.31a.82.82,0,0,0,0,.81l1.24,1.19-1.24,2.63a.82.82,0,0,0,0,.81.21.21,0,0,0,.27,0,.72.72,0,0,0,.26-.32l1.24-2.63,1.24,1.2a.21.21,0,0,0,.27,0,.67.67,0,0,0,.26-.32.79.79,0,0,0,0-.82Z"
                  style="fill: rgb(69, 90, 100); opacity: 0.5; transform-origin: 183.054px 178.302px;"
                  class="animable"></path>
        </g>
        <path d="M151.56,209.51v-4.38a4.78,4.78,0,0,1,2.17-3.75L348.43,89c1.2-.69,2.17-.13,2.17,1.25v4.38a4.81,4.81,0,0,1-2.17,3.75L153.73,210.76C152.53,211.45,151.56,210.89,151.56,209.51Z"
              style="fill: rgb(250, 250, 250); transform-origin: 251.08px 149.88px;" id="elvv7pdzgbdfh"
              class="animable"></path>
        <path d="M345.49,98.74a.64.64,0,0,1-.2,0,.59.59,0,0,1-.32-.66l.21-1.78-.84-.6a.57.57,0,0,1-.22-.48,1,1,0,0,1,.35-.76l1.27-1a.24.24,0,0,0,.06-.1l.57-1.86a.8.8,0,0,1,.64-.61.54.54,0,0,1,.5.3h0l.47,1,1.08-.41a.47.47,0,0,1,.57.13.76.76,0,0,1,0,.87l-.92,1.73a.19.19,0,0,0,0,.1l.22,1.57a1,1,0,0,1-.27.78.61.61,0,0,1-.51.19l-1-.13L346,98.47A.64.64,0,0,1,345.49,98.74Zm-.62-3.61.83.6a.61.61,0,0,1,.23.6l-.14,1.18.75-1a.62.62,0,0,1,.57-.27l1,.13a.19.19,0,0,0,0-.12L348,94.73a.86.86,0,0,1,.11-.56l.8-1.51-.82.31a.51.51,0,0,1-.66-.26l-.38-.8-.5,1.66a1,1,0,0,1-.32.47l-1.27,1A.19.19,0,0,0,344.87,95.13Z"
              style="fill: rgb(224, 224, 224); transform-origin: 346.943px 94.8188px;" id="el8g8mlv9yujn"
              class="animable"></path>
        <g id="el08lq5ewctmju">
            <g style="opacity: 0.5; transform-origin: 356.195px 89.5217px;" class="animable">
                <path d="M353.15,88.49a.75.75,0,0,1-.38-1.4l6.1-3.51a.75.75,0,0,1,.75,1.29l-6.1,3.52A.71.71,0,0,1,353.15,88.49Z"
                      style="fill: rgb(69, 90, 100); transform-origin: 356.162px 86.0017px;" id="el4ze4nanleyx"
                      class="animable"></path>
                <path d="M353.15,92a.75.75,0,0,1-.38-1.4l6.1-3.52a.75.75,0,0,1,.75,1.3l-6.1,3.52A.71.71,0,0,1,353.15,92Z"
                      style="fill: rgb(69, 90, 100); transform-origin: 356.195px 89.4898px;" id="elg5kjym279yh"
                      class="animable"></path>
                <path d="M353.15,95.53a.75.75,0,0,1-.38-1.4l6.1-3.52a.75.75,0,0,1,.75,1.3l-6.1,3.52A.71.71,0,0,1,353.15,95.53Z"
                      style="fill: rgb(69, 90, 100); transform-origin: 356.195px 93.0198px;" id="elh86grn1cinw"
                      class="animable"></path>
            </g>
        </g>
        <polygon points="123.13 216.7 123.13 230.78 119.06 228.43 119.06 214.36 123.13 216.7"
                 style="fill: rgb(224, 224, 224); transform-origin: 121.095px 222.57px;" id="elobhtnxcn5jc"
                 class="animable"></polygon>
        <path d="M133.41,267.05l44.42-25.64c1.19-.69,2.16-.14,2.16,1.25V369a4.8,4.8,0,0,1-2.16,3.75l-44.42,25.64c-1.19.69-2.16.13-2.16-1.25V270.8A4.8,4.8,0,0,1,133.41,267.05Z"
              style="fill: rgb(240, 240, 240); transform-origin: 155.62px 319.899px;" id="elb74ysqoqtbo"
              class="animable"></path>
        <path d="M141.54,271.74l28.16-16.26c1.2-.69,2.17-.2,2.17,1.09a4.64,4.64,0,0,1-2.17,3.6l-28.16,16.26c-1.2.69-2.17.2-2.17-1.1A4.64,4.64,0,0,1,141.54,271.74Z"
              style="fill: rgb(224, 224, 224); transform-origin: 155.62px 265.955px;" id="elxpgmd0l91p"
              class="animable"></path>
        <path d="M139.37,283.87v1.69c0,.83.58,1.16,1.3.75l1.47-.85a2.85,2.85,0,0,0,1.29-2.25v-1.69c0-.82-.58-1.16-1.29-.75l-1.47.85A2.86,2.86,0,0,0,139.37,283.87Z"
              style="fill: rgb(250, 250, 250); transform-origin: 141.4px 283.541px;" id="el7cnbyjkub5l"
              class="animable"></path>
        <path d="M147.5,280c0,1.3,1,1.79,2.16,1.1l20-11.57a4.64,4.64,0,0,0,2.17-3.6c0-1.29-1-1.78-2.17-1.09l-20,11.57A4.65,4.65,0,0,0,147.5,280Z"
              style="fill: rgb(224, 224, 224); transform-origin: 159.665px 272.97px;" id="elqvnibort6kq"
              class="animable"></path>
        <path d="M139.37,293.26V295c0,.83.58,1.16,1.3.75l1.47-.85a2.85,2.85,0,0,0,1.29-2.25v-1.69c0-.82-.58-1.16-1.29-.75l-1.47.85A2.86,2.86,0,0,0,139.37,293.26Z"
              style="fill: rgb(250, 250, 250); transform-origin: 141.4px 292.981px;" id="elp2oxqi50pt8"
              class="animable"></path>
        <path d="M147.5,289.41c0,1.3,1,1.79,2.16,1.1l20-11.57a4.64,4.64,0,0,0,2.17-3.6c0-1.29-1-1.78-2.17-1.09l-20,11.57A4.65,4.65,0,0,0,147.5,289.41Z"
              style="fill: rgb(224, 224, 224); transform-origin: 159.665px 282.38px;" id="el4rgj9fdlrwx"
              class="animable"></path>
        <path d="M139.37,302.63v1.69c0,.83.58,1.17,1.3.75l1.47-.84a2.86,2.86,0,0,0,1.29-2.25v-1.69c0-.83-.58-1.17-1.29-.75l-1.47.84A2.89,2.89,0,0,0,139.37,302.63Z"
              style="fill: rgb(250, 250, 250); transform-origin: 141.4px 302.305px;" id="el9sb5cjd40la"
              class="animable"></path>
        <path d="M147.5,298.79c0,1.29,1,1.78,2.16,1.09l20-11.57a4.64,4.64,0,0,0,2.17-3.59c0-1.3-1-1.79-2.17-1.1l-20,11.57A4.65,4.65,0,0,0,147.5,298.79Z"
              style="fill: rgb(224, 224, 224); transform-origin: 159.665px 291.75px;" id="elhqitrn1x9ja"
              class="animable"></path>
        <path d="M139.37,312v1.69c0,.83.58,1.17,1.3.75l1.47-.84a2.85,2.85,0,0,0,1.29-2.25v-1.69c0-.83-.58-1.17-1.29-.75l-1.47.84A2.89,2.89,0,0,0,139.37,312Z"
              style="fill: rgb(250, 250, 250); transform-origin: 141.4px 311.675px;" id="el2dx00qtf9ga"
              class="animable"></path>
        <path d="M147.5,308.16c0,1.29,1,1.78,2.16,1.09l20-11.57a4.64,4.64,0,0,0,2.17-3.59c0-1.3-1-1.79-2.17-1.1l-20,11.57A4.65,4.65,0,0,0,147.5,308.16Z"
              style="fill: rgb(224, 224, 224); transform-origin: 159.665px 301.12px;" id="elcslzbti0vth"
              class="animable"></path>
        <path d="M141.37,323.43l28.16-16.27c1.2-.69,2.17-.2,2.17,1.1a4.64,4.64,0,0,1-2.17,3.6l-28.17,16.26c-1.19.69-2.16.2-2.16-1.1A4.64,4.64,0,0,1,141.37,323.43Z"
              style="fill: rgb(224, 224, 224); transform-origin: 155.45px 317.64px;" id="elwsn5wo6kbfn"
              class="animable"></path>
        <path d="M139.2,335.56v1.69c0,.83.58,1.16,1.3.75l1.46-.85a2.86,2.86,0,0,0,1.3-2.25v-1.69c0-.83-.58-1.16-1.3-.75l-1.46.85A2.86,2.86,0,0,0,139.2,335.56Z"
              style="fill: rgb(250, 250, 250); transform-origin: 141.23px 335.23px;" id="elzaabgymu28d"
              class="animable"></path>
        <path d="M147.32,331.71c0,1.3,1,1.79,2.17,1.1l20-11.57a4.64,4.64,0,0,0,2.17-3.6c0-1.29-1-1.78-2.17-1.09l-20,11.57A4.64,4.64,0,0,0,147.32,331.71Z"
              style="fill: rgb(224, 224, 224); transform-origin: 159.49px 324.68px;" id="el8mows7jkbsk"
              class="animable"></path>
        <path d="M139.2,345v1.69c0,.83.58,1.16,1.3.75l1.46-.85a2.86,2.86,0,0,0,1.3-2.25V342.6c0-.83-.58-1.16-1.3-.75l-1.46.85A2.86,2.86,0,0,0,139.2,345Z"
              style="fill: rgb(250, 250, 250); transform-origin: 141.23px 344.645px;" id="elqmq9p5496j"
              class="animable"></path>
        <path d="M147.32,341.1c0,1.3,1,1.79,2.17,1.1l20-11.57a4.64,4.64,0,0,0,2.17-3.6c0-1.29-1-1.78-2.17-1.09l-20,11.57A4.64,4.64,0,0,0,147.32,341.1Z"
              style="fill: rgb(224, 224, 224); transform-origin: 159.49px 334.07px;" id="el8l5ugj6fruf"
              class="animable"></path>
        <path d="M139.2,354.32V356c0,.83.58,1.17,1.3.75l1.46-.84a2.87,2.87,0,0,0,1.3-2.25V352c0-.83-.58-1.17-1.3-.75l-1.46.84A2.87,2.87,0,0,0,139.2,354.32Z"
              style="fill: rgb(250, 250, 250); transform-origin: 141.23px 354px;" id="elakd9ydb2hqt"
              class="animable"></path>
        <path d="M147.32,350.48c0,1.29,1,1.78,2.17,1.09l20-11.57a4.64,4.64,0,0,0,2.17-3.59c0-1.3-1-1.79-2.17-1.1l-20,11.57A4.64,4.64,0,0,0,147.32,350.48Z"
              style="fill: rgb(224, 224, 224); transform-origin: 159.49px 343.44px;" id="elmxrdejfw4ke"
              class="animable"></path>
        <path d="M139.2,363.69v1.69c0,.83.58,1.17,1.3.75l1.46-.84a2.87,2.87,0,0,0,1.3-2.25v-1.69c0-.83-.58-1.17-1.3-.75l-1.46.84A2.87,2.87,0,0,0,139.2,363.69Z"
              style="fill: rgb(250, 250, 250); transform-origin: 141.23px 363.365px;" id="elt07ls761e0n"
              class="animable"></path>
        <path d="M147.32,359.85c0,1.29,1,1.78,2.17,1.09l20-11.57a4.64,4.64,0,0,0,2.17-3.59c0-1.3-1-1.79-2.17-1.1l-20,11.57A4.64,4.64,0,0,0,147.32,359.85Z"
              style="fill: rgb(224, 224, 224); transform-origin: 159.49px 352.81px;" id="elmuiink7m52f"
              class="animable"></path>
        <path d="M285.61,223.89v2.32c0,1.38,1,1.94,2.16,1.24l56.61-32.94a4.83,4.83,0,0,0,2.16-3.76v-2c0-1.39-1-1.95-2.17-1.25l-56.6,32.67A4.77,4.77,0,0,0,285.61,223.89Z"
              style="fill: rgb(224, 224, 224); transform-origin: 316.075px 207.475px;" id="el0shb43ckzi9"
              class="animable"></path>
        <path d="M287.77,234.22l64.73-37.37c1.19-.69,2.16-.2,2.16,1.09a4.65,4.65,0,0,1-2.16,3.6L287.77,238.9c-1.19.7-2.16.2-2.16-1.09A4.61,4.61,0,0,1,287.77,234.22Z"
              style="fill: rgb(235, 235, 235); transform-origin: 320.135px 217.877px;" id="elhe5l1h3are"
              class="animable"></path>
        <path d="M287.77,243.59l64.73-37.37c1.19-.69,2.16-.2,2.16,1.1a4.65,4.65,0,0,1-2.16,3.59l-64.73,37.37c-1.19.69-2.16.2-2.16-1.09A4.63,4.63,0,0,1,287.77,243.59Z"
              style="fill: rgb(235, 235, 235); transform-origin: 320.135px 227.25px;" id="elllmsvb5tqgp"
              class="animable"></path>
        <path d="M287.77,253,352.5,215.6c1.19-.69,2.16-.2,2.16,1.09a4.65,4.65,0,0,1-2.16,3.6l-64.73,37.37c-1.19.69-2.16.2-2.16-1.1A4.62,4.62,0,0,1,287.77,253Z"
              style="fill: rgb(235, 235, 235); transform-origin: 320.135px 236.63px;" id="elzeasp7lqxpj"
              class="animable"></path>
        <path d="M287.77,262.34,352.5,225c1.19-.69,2.16-.2,2.16,1.1a4.65,4.65,0,0,1-2.16,3.59L287.77,267c-1.19.69-2.16.2-2.16-1.09A4.63,4.63,0,0,1,287.77,262.34Z"
              style="fill: rgb(235, 235, 235); transform-origin: 320.135px 246px;" id="el6azz2mm347u"
              class="animable"></path>
        <path d="M287.77,271.72l64.73-37.37c1.19-.69,2.16-.2,2.16,1.09a4.65,4.65,0,0,1-2.16,3.6l-64.73,37.37c-1.19.69-2.16.2-2.16-1.1A4.62,4.62,0,0,1,287.77,271.72Z"
              style="fill: rgb(235, 235, 235); transform-origin: 320.135px 255.38px;" id="elgmtug8xldoq"
              class="animable"></path>
        <path d="M287.77,281.09l64.73-37.37c1.19-.69,2.16-.2,2.16,1.1a4.65,4.65,0,0,1-2.16,3.59l-64.73,37.37c-1.19.69-2.16.2-2.16-1.09A4.63,4.63,0,0,1,287.77,281.09Z"
              style="fill: rgb(235, 235, 235); transform-origin: 320.135px 264.75px;" id="eltyxw14neu0r"
              class="animable"></path>
        <path d="M287.77,290.47,352.5,253.1c1.19-.69,2.16-.2,2.16,1.09a4.65,4.65,0,0,1-2.16,3.6l-64.73,37.37c-1.19.69-2.16.2-2.16-1.1A4.62,4.62,0,0,1,287.77,290.47Z"
              style="fill: rgb(235, 235, 235); transform-origin: 320.135px 274.13px;" id="el2mikamoim2y"
              class="animable"></path>
        <path d="M287.77,299.84l64.73-37.37c1.19-.69,2.16-.2,2.16,1.1a4.65,4.65,0,0,1-2.16,3.59l-64.73,37.37c-1.19.69-2.16.2-2.16-1.09A4.63,4.63,0,0,1,287.77,299.84Z"
              style="fill: rgb(235, 235, 235); transform-origin: 320.135px 283.5px;" id="elm8y38ix0rn"
              class="animable"></path>
        <path d="M190.28,276.43l85-49.1c1.19-.69,2.16-.13,2.16,1.25V312.7a4.8,4.8,0,0,1-2.16,3.75l-85,49.1c-1.19.69-2.16.13-2.16-1.25V280.18A4.8,4.8,0,0,1,190.28,276.43Z"
              style="fill: rgb(240, 240, 240); transform-origin: 232.78px 296.44px;" id="elznphx5tp1kd"
              class="animable"></path>
        <path d="M253.76,275.05,239.55,300.2l10,12.94-33-28.43-28.43,61.56v18c0,1.38,1,1.94,2.16,1.25l85-49.1a4.8,4.8,0,0,0,2.16-3.75v-16Z"
              style="fill: rgb(224, 224, 224); transform-origin: 232.78px 320.433px;" id="elzxivi45gxxf"
              class="animable"></path>
        <path d="M257.17,249.18c3.54-2.05,6.4-.39,6.4,3.69a14.16,14.16,0,0,1-6.4,11.1c-3.54,2-6.4.38-6.4-3.7A14.14,14.14,0,0,1,257.17,249.18Z"
              style="fill: rgb(224, 224, 224); transform-origin: 257.17px 256.563px;" id="elty777bot9k"
              class="animable"></path>
        <path d="M133.41,234.22,352.5,107.73c1.19-.69,2.16-.13,2.16,1.25v23.14a4.78,4.78,0,0,1-2.17,3.75L133.41,262.36c-1.19.69-2.16.13-2.16-1.25V238A4.78,4.78,0,0,1,133.41,234.22Z"
              style="fill: rgb(224, 224, 224); transform-origin: 242.955px 185.045px;" id="el4js47mupp8c"
              class="animable"></path>
        <path d="M273.42,165.44v4c0,.83.58,1.16,1.3.75l63.69-36.77v-7l-63.69,36.78A2.86,2.86,0,0,0,273.42,165.44Z"
              style="fill: rgb(250, 250, 250); transform-origin: 305.915px 148.393px;" id="elbsew3weau2n"
              class="animable"></path>
        <path d="M345.24,122.47c.71-.41,1.3-.08,1.3.75v4a2.9,2.9,0,0,1-1.3,2.25l-6.83,3.94v-7Z"
              style="fill: rgb(235, 235, 235); transform-origin: 342.475px 127.852px;" id="elrjmu1d1arba"
              class="animable"></path>
        <path d="M344.73,128l-.76-.24a4.11,4.11,0,0,0,.12-1,1.81,1.81,0,0,0-.69-1.63,1.07,1.07,0,0,0-1.11.06,3.89,3.89,0,0,0-1.52,3.16,1.81,1.81,0,0,0,.69,1.63,1,1,0,0,0,.48.13,1.18,1.18,0,0,0,.63-.19,3.18,3.18,0,0,0,1.23-1.64l.76.24h.09a.29.29,0,0,0,.27-.2A.28.28,0,0,0,344.73,128Zm-2.44,1.45a.52.52,0,0,1-.55.06,1.34,1.34,0,0,1-.41-1.14,3.41,3.41,0,0,1,1.24-2.68.72.72,0,0,1,.34-.1.38.38,0,0,1,.21.05,1.34,1.34,0,0,1,.41,1.14A3.38,3.38,0,0,1,342.29,129.46Z"
              style="fill: rgb(250, 250, 250); transform-origin: 342.842px 127.557px;" id="elfaix46ickl9"
              class="animable"></path>
        <path d="M188.12,238V265.8c0,1.38,1,1.94,2.16,1.25L352.5,173.39a4.8,4.8,0,0,0,2.16-3.75V141.81c0-1.38-1-1.94-2.17-1.25L190.28,234.22A4.78,4.78,0,0,0,188.12,238Z"
              style="fill: rgb(235, 235, 235); transform-origin: 271.39px 203.805px;" id="el7uy23y37ldn"
              class="animable"></path>
        <g id="freepik--plants--inject-31" class="animable" style="transform-origin: 289.423px 335.93px;">
            <g id="freepik--plants--inject-31" class="animable" style="transform-origin: 149.893px 406.994px;">
                <path d="M169.94,415c-.27-6.32-5.39-19.24-12.3-27.18s-17.49-13.52-24.72-10.7c-6.73,2.62-5.62,11.55,2.92,17.14s21.31,12.53,25.38,22.64l8.17,12.28Z"
                      style="fill: rgb(186, 104, 200); transform-origin: 149.247px 402.779px;" id="elo6rx13j91xe"
                      class="animable"></path>
                <g id="elhjf255454s">
                    <path d="M169.94,415c-.27-6.32-5.39-19.24-12.3-27.18s-17.49-13.52-24.72-10.7c-6.73,2.62-5.62,11.55,2.92,17.14s21.31,12.53,25.38,22.64l8.17,12.28Z"
                          style="opacity: 0.1; transform-origin: 149.247px 402.779px;" class="animable"></path>
                </g>
                <path d="M170.77,423.64a.45.45,0,0,1-.43-.35c-5.15-21.42-23.36-38.25-34-41.69a.47.47,0,0,1-.3-.59.46.46,0,0,1,.59-.29c10.82,3.5,29.37,20.6,34.59,42.35a.47.47,0,0,1-.35.56A.25.25,0,0,1,170.77,423.64Z"
                      style="fill: rgb(255, 255, 255); transform-origin: 153.624px 402.168px;" id="elcufh986jono"
                      class="animable"></path>
                <path d="M168.13,437.61c-1.17-3.52-5.76-9.21-13-13.76-8-5-17.94-7.09-20.38-11.17-2.94-4.9,1.09-9.82,9.12-9.16s22.52,11,25.45,27.27Z"
                      style="fill: rgb(186, 104, 200); transform-origin: 151.555px 420.535px;" id="elc2fubm2tx77"
                      class="animable"></path>
                <path d="M169.51,433.81a.46.46,0,0,1-.41-.29c-7.4-18.23-21.79-24.13-28.36-24.71a.45.45,0,0,1-.42-.5.46.46,0,0,1,.5-.42c7.27.64,21.59,6.68,29.14,25.28a.47.47,0,0,1-.25.61A.69.69,0,0,1,169.51,433.81Z"
                      style="fill: rgb(255, 255, 255); transform-origin: 155.156px 420.849px;" id="elu6fk1clerb8"
                      class="animable"></path>
            </g>
            <g id="freepik--plants--inject-31" class="animable" style="transform-origin: 428.256px 267.118px;">
                <path d="M406.22,271.93s1.38-12.19,7.44-21.64,14.39-15.36,22.16-16,14.05,6.54,5.73,11.45-23.08,9.92-29.88,28.28Z"
                      style="fill: rgb(186, 104, 200); transform-origin: 425.855px 254.135px;" id="ele2f6ty9sb2t"
                      class="animable"></path>
                <g id="elwg6x8uiclv">
                    <path d="M406.22,271.93s1.38-12.19,7.44-21.64,14.39-15.36,22.16-16,14.05,6.54,5.73,11.45-23.08,9.92-29.88,28.28Z"
                          style="opacity: 0.1; transform-origin: 425.855px 254.135px;" class="animable"></path>
                </g>
                <path d="M408.5,268.76l-.09,0a.41.41,0,0,1-.22-.54c8.2-20.2,23.81-28.63,30.91-30.26a.4.4,0,0,1,.5.31.41.41,0,0,1-.31.49c-7,1.61-22.26,9.89-30.33,29.77A.42.42,0,0,1,408.5,268.76Z"
                      style="fill: rgb(255, 255, 255); transform-origin: 423.883px 253.357px;" id="el8qjcikl4dqf"
                      class="animable"></path>
                <path d="M450,269c-.7,1.59-2.43,2.41-4.05,3.06s-3.35,1.35-4.22,2.85c-1.76,3,1.12,7.28-.76,10.23a5.42,5.42,0,0,1-3.71,2.15c-1.2.23-2.42.22-3.64.33a16.58,16.58,0,0,1-1.73-.14,7.84,7.84,0,0,0-5,.54c-2.41,1.35-3.14,4.39-4.61,6.73a11.4,11.4,0,0,1-8.11,5.09c-1.08.14-3.09.34-4.19-.28a1.28,1.28,0,0,1-.23-.14s0,0,0,0a6.49,6.49,0,0,1-.42-.51.18.18,0,0,1-.05-.07c-.42-1.57.27-3.2.3-4.83a2.81,2.81,0,0,0,0-.29c-.07-1.89-.12-3.76-.16-5.64-.09-3.47-.13-6.93-.11-10.4,0-2.25-.25-4.71.71-6.83,1.05-2.33,3.67-2.39,4.66-4.67.4-.91.61-1.89,1-2.81a8.05,8.05,0,0,1,6.86-4.8c4.58-.23,8.68,3.48,13.25,3.14a32.41,32.41,0,0,0,3.51-.67c3.71-.69,8,.36,10.08,3.5A4.8,4.8,0,0,1,450,269Z"
                      style="fill: rgb(186, 104, 200); transform-origin: 429.718px 279.273px;" id="el9kh51wufix8"
                      class="animable"></path>
                <path d="M408.88,291.61h0a.39.39,0,0,1-.28-.47c6.33-23.73,31.32-27.16,37.17-26.74a.4.4,0,0,1,.36.42.38.38,0,0,1-.41.36c-5.72-.41-30.18,2.94-36.36,26.16A.39.39,0,0,1,408.88,291.61Z"
                      style="fill: rgb(255, 255, 255); transform-origin: 427.36px 277.996px;" id="el9f6ug5bibgn"
                      class="animable"></path>
                <path d="M436.65,279.59a.44.44,0,0,1-.2-.11,20.78,20.78,0,0,0-17-4.79.4.4,0,0,1-.45-.33.4.4,0,0,1,.33-.45,21.56,21.56,0,0,1,17.68,5,.39.39,0,0,1,0,.55A.41.41,0,0,1,436.65,279.59Z"
                      style="fill: rgb(255, 255, 255); transform-origin: 428.06px 276.606px;" id="el9h2kt2fwcfs"
                      class="animable"></path>
            </g>
        </g>
        <path d="M169.84,440.64a4.65,4.65,0,0,1-2-3.67v-206a4.77,4.77,0,0,1,2.16-3.75L405.29,91.34a4.07,4.07,0,0,1,6.23,3.59V301a4.8,4.8,0,0,1-2.16,3.75L174,440.57A4.62,4.62,0,0,1,169.84,440.64Z"
              style="fill: rgb(186, 104, 200); transform-origin: 289.681px 265.909px;" id="el1afdo63b38k"
              class="animable"></path>
        <g id="el7lh3ude9hqx">
            <path d="M411.5,94.58c-.15-1.12-1.06-1.53-2.14-.9L174,229.54a4.6,4.6,0,0,0-1.53,1.62l-4.06-2.35A4.48,4.48,0,0,1,170,227.2L405.3,91.34a4,4,0,0,1,6.2,3.24Z"
                  style="fill: rgb(255, 255, 255); opacity: 0.4; transform-origin: 289.955px 160.92px;"
                  class="animable"></path>
        </g>
        <path d="M173.62,440.75l-.09,0a.9.9,0,0,1-.21.08l-.16.05a1.32,1.32,0,0,1-.3.07.65.65,0,0,1-.2,0l-.33.05a4.18,4.18,0,0,1-2.49-.43,4.62,4.62,0,0,1-2-3.67V256.59l4.07,2.35V439.31c0,1,.49,1.55,1.2,1.55a1,1,0,0,0,.29,0h0Z"
              style="fill: rgb(240, 240, 240); transform-origin: 170.73px 348.814px;" id="elbterx20dg4l"
              class="animable"></path>
        <g id="elwv6xm5jn8k">
            <path d="M172.5,231.16a4.4,4.4,0,0,0-.63,2.13v25.65l-4.07-2.35V231a2.26,2.26,0,0,1,0-.26,5.07,5.07,0,0,1,.09-.54,5.3,5.3,0,0,1,.54-1.34Z"
                  style="opacity: 0.1; transform-origin: 170.148px 243.9px;" class="animable"></path>
        </g>
        <path d="M411.52,94.93V106.5L239,206.09c-1.19.69-2.16.13-2.16-1.25v-4.38c0-1.38-1-1.94-2.17-1.25l-52.53,30.33a4.78,4.78,0,0,0-2.17,3.75v4.38a4.8,4.8,0,0,1-2.16,3.75l-6,3.44V233.29a4.8,4.8,0,0,1,2.16-3.75L409.36,93.68C410.55,93,411.52,93.55,411.52,94.93Z"
              style="fill: rgb(186, 104, 200); transform-origin: 291.665px 169.124px;" id="el6e9nu3ubf6u"
              class="animable"></path>
        <path d="M411.53,301a4.78,4.78,0,0,1-2.17,3.75L174,440.56c-1.19.69-2.16.13-2.16-1.25V244.86l6-3.44c1.19-.69,3.13-11.19,4.33-11.88l51.65-29.83c1.2-.69,4,7.07,5.21,6.38l172.5-99.59V301Z"
              style="fill: rgb(250, 250, 250); transform-origin: 291.685px 273.678px;" id="el2k4i748uiq7"
              class="animable"></path>
        <path d="M182.16,295.2l44.41-25.64c1.2-.69,2.17-.13,2.17,1.25V397.14a4.78,4.78,0,0,1-2.17,3.75l-44.41,25.65c-1.2.69-2.17.13-2.17-1.25V299A4.78,4.78,0,0,1,182.16,295.2Z"
              style="fill: rgb(240, 240, 240); transform-origin: 204.365px 348.05px;" id="elzq8mompr7pm"
              class="animable"></path>
        <path d="M190.28,299.89l28.17-16.26c1.2-.69,2.16-.2,2.16,1.1a4.62,4.62,0,0,1-2.16,3.59l-28.17,16.27c-1.19.69-2.16.19-2.16-1.1A4.65,4.65,0,0,1,190.28,299.89Z"
              style="fill: rgb(224, 224, 224); transform-origin: 204.365px 294.109px;" id="el571sz1i651c"
              class="animable"></path>
        <path d="M188.12,312v1.69c0,.82.58,1.16,1.3.75l1.46-.85a2.86,2.86,0,0,0,1.3-2.25v-1.69c0-.83-.58-1.16-1.3-.75l-1.46.85A2.86,2.86,0,0,0,188.12,312Z"
              style="fill: rgb(186, 104, 200); transform-origin: 190.15px 311.669px;" id="elocrsw9y6yvc"
              class="animable"></path>
        <path d="M196.24,308.18c0,1.3,1,1.79,2.17,1.1l20-11.58a4.65,4.65,0,0,0,2.16-3.59c0-1.3-1-1.79-2.16-1.1l-20,11.57A4.64,4.64,0,0,0,196.24,308.18Z"
              style="fill: rgb(224, 224, 224); transform-origin: 208.405px 301.145px;" id="el4t7bwso7ryh"
              class="animable"></path>
        <path d="M188.12,321.42v1.69c0,.82.58,1.16,1.3.75l1.46-.85a2.86,2.86,0,0,0,1.3-2.25v-1.69c0-.83-.58-1.16-1.3-.75l-1.46.85A2.86,2.86,0,0,0,188.12,321.42Z"
              style="fill: rgb(186, 104, 200); transform-origin: 190.15px 321.089px;" id="elx8vx00zgjx"
              class="animable"></path>
        <path d="M196.24,317.57c0,1.3,1,1.79,2.17,1.1l20-11.58a4.65,4.65,0,0,0,2.16-3.59c0-1.3-1-1.79-2.16-1.1l-20,11.57A4.64,4.64,0,0,0,196.24,317.57Z"
              style="fill: rgb(224, 224, 224); transform-origin: 208.405px 310.535px;" id="elr269zmbt3t"
              class="animable"></path>
        <path d="M188.12,330.79v1.69c0,.83.58,1.16,1.3.75l1.46-.84a2.89,2.89,0,0,0,1.3-2.25v-1.7c0-.82-.58-1.16-1.3-.75l-1.46.85A2.86,2.86,0,0,0,188.12,330.79Z"
              style="fill: rgb(186, 104, 200); transform-origin: 190.15px 330.461px;" id="ele970lx4snmg"
              class="animable"></path>
        <path d="M196.24,326.94c0,1.3,1,1.79,2.17,1.1l20-11.57a4.65,4.65,0,0,0,2.16-3.6c0-1.29-1-1.78-2.16-1.09l-20,11.57A4.64,4.64,0,0,0,196.24,326.94Z"
              style="fill: rgb(224, 224, 224); transform-origin: 208.405px 319.91px;" id="el0hnjj9nf331g"
              class="animable"></path>
        <path d="M188.12,340.16v1.69c0,.83.58,1.17,1.3.75l1.46-.84a2.89,2.89,0,0,0,1.3-2.25v-1.7c0-.82-.58-1.16-1.3-.75l-1.46.85A2.86,2.86,0,0,0,188.12,340.16Z"
              style="fill: rgb(186, 104, 200); transform-origin: 190.15px 339.833px;" id="elx8e0wkluiw"
              class="animable"></path>
        <path d="M196.24,336.31c0,1.3,1,1.79,2.17,1.1l20-11.57a4.65,4.65,0,0,0,2.16-3.6c0-1.29-1-1.78-2.16-1.09l-20,11.57A4.64,4.64,0,0,0,196.24,336.31Z"
              style="fill: rgb(224, 224, 224); transform-origin: 208.405px 329.28px;" id="ela2ns1jk4u8"
              class="animable"></path>
        <path d="M190.11,351.58l28.17-16.26c1.19-.69,2.16-.2,2.16,1.1a4.65,4.65,0,0,1-2.16,3.59l-28.17,16.26c-1.2.69-2.16.2-2.16-1.09A4.65,4.65,0,0,1,190.11,351.58Z"
              style="fill: rgb(224, 224, 224); transform-origin: 204.195px 345.795px;" id="elxzdnx3bpkbc"
              class="animable"></path>
        <path d="M188,363.71v1.69c0,.83.58,1.17,1.29.75l1.47-.84a2.86,2.86,0,0,0,1.3-2.25v-1.69c0-.83-.58-1.17-1.3-.75l-1.47.84A2.9,2.9,0,0,0,188,363.71Z"
              style="fill: rgb(186, 104, 200); transform-origin: 190.03px 363.385px;" id="eln2wtzci71p7"
              class="animable"></path>
        <path d="M196.07,359.87c0,1.29,1,1.78,2.16,1.09l20.05-11.57a4.65,4.65,0,0,0,2.16-3.59c0-1.3-1-1.79-2.16-1.1l-20.05,11.57A4.65,4.65,0,0,0,196.07,359.87Z"
              style="fill: rgb(224, 224, 224); transform-origin: 208.255px 352.83px;" id="eleynh0gnk2xs"
              class="animable"></path>
        <path d="M188,373.1v1.69c0,.83.58,1.17,1.29.75l1.47-.84a2.86,2.86,0,0,0,1.3-2.25v-1.69c0-.83-.58-1.17-1.3-.75l-1.47.84A2.9,2.9,0,0,0,188,373.1Z"
              style="fill: rgb(186, 104, 200); transform-origin: 190.03px 372.775px;" id="eld8acwz8brxs"
              class="animable"></path>
        <path d="M196.07,369.26c0,1.29,1,1.78,2.16,1.09l20.05-11.57a4.65,4.65,0,0,0,2.16-3.59c0-1.3-1-1.79-2.16-1.1l-20.05,11.57A4.65,4.65,0,0,0,196.07,369.26Z"
              style="fill: rgb(224, 224, 224); transform-origin: 208.255px 362.22px;" id="ele8bbq7uuzsu"
              class="animable"></path>
        <path d="M188,382.48v1.69c0,.83.58,1.16,1.29.75l1.47-.85a2.86,2.86,0,0,0,1.3-2.25v-1.69c0-.83-.58-1.16-1.3-.75l-1.47.85A2.87,2.87,0,0,0,188,382.48Z"
              style="fill: rgb(186, 104, 200); transform-origin: 190.03px 382.15px;" id="el7m301n49ly3"
              class="animable"></path>
        <path d="M196.07,378.63c0,1.3,1,1.79,2.16,1.1l20.05-11.57a4.65,4.65,0,0,0,2.16-3.6c0-1.29-1-1.78-2.16-1.09L198.23,375A4.65,4.65,0,0,0,196.07,378.63Z"
              style="fill: rgb(224, 224, 224); transform-origin: 208.255px 371.6px;" id="elq4taeaygdo"
              class="animable"></path>
        <path d="M188,391.85v1.69c0,.83.58,1.16,1.29.75l1.47-.85a2.86,2.86,0,0,0,1.3-2.25V389.5c0-.83-.58-1.16-1.3-.75l-1.47.85A2.87,2.87,0,0,0,188,391.85Z"
              style="fill: rgb(186, 104, 200); transform-origin: 190.03px 391.52px;" id="elwxcexjkycak"
              class="animable"></path>
        <path d="M196.07,388c0,1.3,1,1.79,2.16,1.1l20.05-11.57a4.65,4.65,0,0,0,2.16-3.6c0-1.29-1-1.78-2.16-1.09l-20.05,11.57A4.65,4.65,0,0,0,196.07,388Z"
              style="fill: rgb(224, 224, 224); transform-origin: 208.255px 380.97px;" id="ely59ks1izqfi"
              class="animable"></path>
        <path d="M334.35,252.05v2.32c0,1.38,1,1.94,2.16,1.24l56.61-33a4.8,4.8,0,0,0,2.16-3.75v-2c0-1.38-1-1.94-2.16-1.25l-56.6,32.68A4.78,4.78,0,0,0,334.35,252.05Z"
              style="fill: rgb(186, 104, 200); transform-origin: 364.815px 235.613px;" id="elu5ozy9d7wyj"
              class="animable"></path>
        <path d="M336.52,262.37,401.24,225c1.2-.69,2.17-.2,2.17,1.1a4.64,4.64,0,0,1-2.17,3.59l-64.72,37.37c-1.2.69-2.17.2-2.17-1.09A4.64,4.64,0,0,1,336.52,262.37Z"
              style="fill: rgb(230, 230, 230); transform-origin: 368.88px 246.03px;" id="el4do6ipiew58"
              class="animable"></path>
        <path d="M336.52,271.75l64.72-37.37c1.2-.69,2.17-.2,2.17,1.09a4.64,4.64,0,0,1-2.17,3.6l-64.72,37.37c-1.2.69-2.17.2-2.17-1.1A4.64,4.64,0,0,1,336.52,271.75Z"
              style="fill: rgb(230, 230, 230); transform-origin: 368.88px 255.41px;" id="ellx7vad14r79"
              class="animable"></path>
        <path d="M336.52,281.12l64.72-37.37c1.2-.69,2.17-.2,2.17,1.1a4.64,4.64,0,0,1-2.17,3.59l-64.72,37.37c-1.2.69-2.17.2-2.17-1.09A4.64,4.64,0,0,1,336.52,281.12Z"
              style="fill: rgb(230, 230, 230); transform-origin: 368.88px 264.78px;" id="elrrkq5qssmx"
              class="animable"></path>
        <path d="M336.52,290.5l64.72-37.37c1.2-.69,2.17-.2,2.17,1.09a4.64,4.64,0,0,1-2.17,3.6l-64.72,37.37c-1.2.69-2.17.2-2.17-1.1A4.64,4.64,0,0,1,336.52,290.5Z"
              style="fill: rgb(230, 230, 230); transform-origin: 368.88px 274.16px;" id="elqum5wksq54a"
              class="animable"></path>
        <path d="M336.52,299.87l64.72-37.37c1.2-.69,2.17-.2,2.17,1.1a4.64,4.64,0,0,1-2.17,3.59l-64.72,37.37c-1.2.69-2.17.2-2.17-1.09A4.64,4.64,0,0,1,336.52,299.87Z"
              style="fill: rgb(230, 230, 230); transform-origin: 368.88px 283.53px;" id="elnv62u32qlfs"
              class="animable"></path>
        <path d="M336.52,309.25l64.72-37.37c1.2-.69,2.17-.2,2.17,1.09a4.64,4.64,0,0,1-2.17,3.6l-64.72,37.37c-1.2.69-2.17.2-2.17-1.1A4.64,4.64,0,0,1,336.52,309.25Z"
              style="fill: rgb(230, 230, 230); transform-origin: 368.88px 292.91px;" id="elppou8ens3op"
              class="animable"></path>
        <path d="M336.52,318.62l64.72-37.37c1.2-.69,2.17-.2,2.17,1.1a4.64,4.64,0,0,1-2.17,3.59l-64.72,37.37c-1.2.69-2.17.2-2.17-1.09A4.64,4.64,0,0,1,336.52,318.62Z"
              style="fill: rgb(230, 230, 230); transform-origin: 368.88px 302.28px;" id="eluype5d8mryb"
              class="animable"></path>
        <path d="M336.52,328l64.72-37.37c1.2-.69,2.17-.2,2.17,1.09a4.64,4.64,0,0,1-2.17,3.6l-64.72,37.37c-1.2.69-2.17.2-2.17-1.1A4.64,4.64,0,0,1,336.52,328Z"
              style="fill: rgb(230, 230, 230); transform-origin: 368.88px 311.66px;" id="eljyztr5usun8"
              class="animable"></path>
        <path d="M239,304.58l85-49.09c1.2-.69,2.17-.13,2.17,1.25v84.12a4.78,4.78,0,0,1-2.17,3.75L239,393.7c-1.2.69-2.17.13-2.17-1.25V308.33A4.78,4.78,0,0,1,239,304.58Z"
              style="fill: rgb(186, 104, 200); transform-origin: 281.5px 324.595px;" id="elgc4l41j023"
              class="animable"></path>
        <g id="eld3s2jlj9j45">
            <path d="M239,304.58l85-49.09c1.2-.69,2.17-.13,2.17,1.25v84.12a4.78,4.78,0,0,1-2.17,3.75L239,393.7c-1.2.69-2.17.13-2.17-1.25V308.33A4.78,4.78,0,0,1,239,304.58Z"
                  style="fill: rgb(255, 255, 255); opacity: 0.8; transform-origin: 281.5px 324.595px;"
                  class="animable"></path>
        </g>
        <path d="M302.51,303.21,288.3,328.35l10,12.95-33-28.43-28.44,61.56v18c0,1.38,1,1.94,2.17,1.25l85-49.09a4.78,4.78,0,0,0,2.17-3.75v-16Z"
              style="fill: rgb(186, 104, 200); transform-origin: 281.53px 348.593px;" id="elfqe8664ty5"
              class="animable"></path>
        <path d="M305.92,277.33c3.53-2,6.4-.39,6.4,3.7a14.17,14.17,0,0,1-6.4,11.09c-3.54,2.05-6.41.39-6.41-3.69A14.15,14.15,0,0,1,305.92,277.33Z"
              style="fill: rgb(186, 104, 200); transform-origin: 305.915px 284.736px;" id="elpszm8fnqnbn"
              class="animable"></path>
        <path d="M182.16,262.37,401.24,135.88c1.2-.69,2.17-.13,2.17,1.25v23.15a4.77,4.77,0,0,1-2.16,3.75L182.16,290.51c-1.2.69-2.17.13-2.17-1.25V266.12A4.78,4.78,0,0,1,182.16,262.37Z"
              style="fill: rgb(69, 90, 100); transform-origin: 291.7px 213.195px;" id="eln3rvbp47nal"
              class="animable"></path>
        <path d="M322.16,193.59v4c0,.82.59,1.16,1.3.75l63.7-36.78v-7l-63.7,36.77A2.9,2.9,0,0,0,322.16,193.59Z"
              style="fill: rgb(250, 250, 250); transform-origin: 354.66px 176.537px;" id="ely5uywb89xhj"
              class="animable"></path>
        <path d="M394,150.63c.72-.42,1.3-.08,1.3.75v4a2.86,2.86,0,0,1-1.3,2.25l-6.82,3.94v-7Z"
              style="fill: rgb(186, 104, 200); transform-origin: 391.24px 156.01px;" id="elzy8bjo6q9j"
              class="animable"></path>
        <path d="M393.48,156.16l-.76-.24a4.61,4.61,0,0,0,.12-1,1.78,1.78,0,0,0-.7-1.62,1.09,1.09,0,0,0-1.11.05,3.89,3.89,0,0,0-1.52,3.17,1.78,1.78,0,0,0,.7,1.62.91.91,0,0,0,.48.13,1.29,1.29,0,0,0,.63-.18,3.26,3.26,0,0,0,1.23-1.65l.76.24h.08a.27.27,0,0,0,.27-.19A.28.28,0,0,0,393.48,156.16ZM391,157.62a.51.51,0,0,1-.54,0,1.32,1.32,0,0,1-.41-1.13,3.4,3.4,0,0,1,1.24-2.68.71.71,0,0,1,.34-.11.36.36,0,0,1,.2.06,1.29,1.29,0,0,1,.41,1.13A3.37,3.37,0,0,1,391,157.62Z"
              style="fill: rgb(250, 250, 250); transform-origin: 391.583px 155.721px;" id="elsmirwbn1i6"
              class="animable"></path>
        <path d="M236.86,266.12V294c0,1.38,1,1.94,2.17,1.25l162.21-93.65a4.78,4.78,0,0,0,2.17-3.75V170c0-1.38-1-1.94-2.17-1.25L239,262.37A4.78,4.78,0,0,0,236.86,266.12Z"
              style="fill: rgb(186, 104, 200); transform-origin: 320.135px 232px;" id="elr4tcmof5cmg"
              class="animable"></path>
        <g id="el16cvin3wahm">
            <path d="M236.86,266.12V294c0,1.38,1,1.94,2.17,1.25l162.21-93.65a4.78,4.78,0,0,0,2.17-3.75V170c0-1.38-1-1.94-2.17-1.25L239,262.37A4.78,4.78,0,0,0,236.86,266.12Z"
                  style="fill: rgb(255, 255, 255); opacity: 0.7; transform-origin: 320.135px 232px;"
                  class="animable"></path>
        </g>
        <path d="M411.52,106.5v14.08L171.87,258.94V244.86l4.45-2.58c1.19-.69,1.59-1.74,2.16-3.75l1.51-5.24c.48-1.82,1-3.06,2.17-3.75l51.65-29.83c1.2-.69,2.14-.76,3.05.75l1.85,3.36c.68,1.17,1,1.86,2.21,1.17Z"
              style="fill: rgb(230, 230, 230); transform-origin: 291.695px 182.72px;" id="el81s3rp4lic"
              class="animable"></path>
        <path d="M401.36,102.19c1.51-.87,2.73-.17,2.73,1.57a6,6,0,0,1-2.73,4.72c-1.5.87-2.72.16-2.72-1.57A6,6,0,0,1,401.36,102.19Z"
              style="fill: rgb(255, 255, 255); transform-origin: 401.365px 105.334px;" id="elq807dzms5q9"
              class="animable"></path>
        <path d="M391.56,107.84c1.5-.87,2.72-.16,2.72,1.58a6,6,0,0,1-2.72,4.71c-1.51.87-2.73.17-2.73-1.57A6,6,0,0,1,391.56,107.84Z"
              style="fill: rgb(255, 255, 255); transform-origin: 391.555px 110.986px;" id="el6ixx5njhdvx"
              class="animable"></path>
        <g id="elw9r01uwxep">
            <ellipse cx="381.75" cy="116.64" rx="3.85" ry="2.22"
                     style="fill: rgb(255, 255, 255); transform-origin: 381.75px 116.64px; transform: rotate(-60deg);"
                     class="animable"></ellipse>
        </g>
        <g id="elnf6ne4wvs4e">
            <path d="M181.8,245.87l-3.4,2,1.3-2.49a.64.64,0,0,0,0-.61c-.1-.12-.28,0-.39.19l-1.84,3.54v0s0,.08-.05.13,0,0,0,0a.57.57,0,0,0,0,.18.38.38,0,0,0,0,.16s0,0,0,0l.05.07h0l1.84,1.41a.15.15,0,0,0,.18,0,.52.52,0,0,0,.21-.26.55.55,0,0,0,0-.58l-1.3-1,3.4-2a.7.7,0,0,0,.28-.57C182.08,245.9,182,245.79,181.8,245.87Z"
                  style="fill: rgb(69, 90, 100); opacity: 0.5; transform-origin: 179.739px 247.601px;"
                  class="animable"></path>
        </g>
        <g id="ellq683e54v6s">
            <path d="M184.64,244.23l3.4-2-1.3-1c-.11-.08-.12-.34,0-.57s.27-.35.38-.27l1.85,1.42h0a.18.18,0,0,1,.05.07l0,0a.61.61,0,0,1,0,.15,1.23,1.23,0,0,1,0,.19s0,0,0,0a.5.5,0,0,1-.05.13h0L187.1,246a.48.48,0,0,1-.18.21.14.14,0,0,1-.2,0,.61.61,0,0,1,0-.6l1.3-2.5-3.4,2c-.15.08-.27,0-.27-.27A.73.73,0,0,1,184.64,244.23Z"
                  style="fill: rgb(69, 90, 100); opacity: 0.5; transform-origin: 186.687px 243.309px;"
                  class="animable"></path>
        </g>
        <g id="eln9g01ax59c">
            <path d="M195.79,234.45c0-.21-.2-.18-.29,0l-.46,1.14c-.8-.09-1.76.69-2.41,2.06-.84,1.78-.84,3.89,0,4.7a1.2,1.2,0,0,0,1.53.09,4.17,4.17,0,0,0,1.52-1.85.58.58,0,0,0,0-.6c-.1-.1-.28,0-.38.23-.63,1.33-1.65,1.92-2.28,1.31s-.63-2.18,0-3.51c.44-.94,1.09-1.5,1.65-1.54l-.35.86c-.09.22,0,.43.13.34l1.39-.91a.42.42,0,0,0,.15-.38Z"
                  style="fill: rgb(69, 90, 100); opacity: 0.5; transform-origin: 193.997px 238.488px;"
                  class="animable"></path>
        </g>
        <g id="elxb1k8o1lld">
            <path d="M232.32,206.14l1.24-2.62a.79.79,0,0,0,0-.82c-.15-.14-.38,0-.53.31l-1.24,2.62-1.24-1.19c-.14-.14-.38,0-.53.3a.84.84,0,0,0,0,.82l1.24,1.19L230,209.38a.82.82,0,0,0,0,.81.22.22,0,0,0,.27,0,.79.79,0,0,0,.26-.32l1.24-2.63,1.24,1.2a.21.21,0,0,0,.27,0,.67.67,0,0,0,.26-.32.79.79,0,0,0,0-.82Z"
                  style="fill: rgb(69, 90, 100); opacity: 0.5; transform-origin: 231.784px 206.441px;"
                  class="animable"></path>
        </g>
        <path d="M200.3,237.67v-4.38a4.78,4.78,0,0,1,2.17-3.75l194.7-112.35c1.19-.69,2.16-.13,2.16,1.25v4.38a4.8,4.8,0,0,1-2.16,3.75L202.47,238.92C201.27,239.61,200.3,239.05,200.3,237.67Z"
              style="fill: rgb(250, 250, 250); transform-origin: 299.815px 178.055px;" id="elbw17ahosn6"
              class="animable"></path>
        <path d="M394.22,126.9a.58.58,0,0,1-.19,0,.59.59,0,0,1-.33-.66l.22-1.78-.84-.6a.6.6,0,0,1-.23-.48,1,1,0,0,1,.36-.76l1.27-1a.36.36,0,0,0,.06-.1l.57-1.86a.8.8,0,0,1,.64-.61.54.54,0,0,1,.5.3h0l.47,1,1.08-.42a.49.49,0,0,1,.57.14.78.78,0,0,1,0,.87l-.92,1.73a.19.19,0,0,0,0,.1l.22,1.57a1,1,0,0,1-.28.78.61.61,0,0,1-.5.19l-1-.13-1.12,1.44A.65.65,0,0,1,394.22,126.9Zm-.61-3.61.83.6a.62.62,0,0,1,.23.6l-.15,1.18.76-1a.6.6,0,0,1,.57-.27l1,.12a.17.17,0,0,0,0-.11l-.21-1.56a.9.9,0,0,1,.11-.57l.8-1.51-.83.32a.5.5,0,0,1-.65-.26l-.38-.8-.51,1.66a.87.87,0,0,1-.31.47l-1.27,1A.29.29,0,0,0,393.61,123.29Zm.39,1.2h0Zm-.48-1.27Z"
              style="fill: rgb(224, 224, 224); transform-origin: 395.676px 122.979px;" id="elazddinmkfa7"
              class="animable"></path>
        <g id="el2qcv6gqk613">
            <g style="opacity: 0.5; transform-origin: 404.913px 117.667px;" class="animable">
                <path d="M401.89,116.65a.75.75,0,0,1-.38-1.4l6.09-3.52a.76.76,0,0,1,1,.28.74.74,0,0,1-.28,1l-6.09,3.52A.74.74,0,0,1,401.89,116.65Z"
                      style="fill: rgb(69, 90, 100); transform-origin: 404.913px 114.147px;" id="el1mp7gzaecfy"
                      class="animable"></path>
                <path d="M401.89,120.17a.75.75,0,0,1-.38-1.4l6.09-3.52a.75.75,0,0,1,1,.28.74.74,0,0,1-.28,1l-6.09,3.52A.74.74,0,0,1,401.89,120.17Z"
                      style="fill: rgb(69, 90, 100); transform-origin: 404.913px 117.666px;" id="eljzgzl96pqhq"
                      class="animable"></path>
                <path d="M401.89,123.69a.75.75,0,0,1-.38-1.4l6.09-3.52a.75.75,0,0,1,1,.28.74.74,0,0,1-.28,1l-6.09,3.52A.74.74,0,0,1,401.89,123.69Z"
                      style="fill: rgb(69, 90, 100); transform-origin: 404.913px 121.186px;" id="elu699a03bnc"
                      class="animable"></path>
            </g>
        </g>
        <polygon points="171.87 244.86 171.87 258.94 167.8 256.59 167.8 242.52 171.87 244.86"
                 style="fill: rgb(224, 224, 224); transform-origin: 169.835px 250.73px;" id="eleqeljoavdam"
                 class="animable"></polygon>
    </g>
    <defs>
        <filter id="active" height="200%">
            <feMorphology in="SourceAlpha" result="DILATED" operator="dilate" radius="2"></feMorphology>
            <feFlood flood-color="#32DFEC" flood-opacity="1" result="PINK"></feFlood>
            <feComposite in="PINK" in2="DILATED" operator="in" result="OUTLINE"></feComposite>
            <feMerge>
                <feMergeNode in="OUTLINE"></feMergeNode>
                <feMergeNode in="SourceGraphic"></feMergeNode>
            </feMerge>
        </filter>
        <filter id="hover" height="200%">
            <feMorphology in="SourceAlpha" result="DILATED" operator="dilate" radius="2"></feMorphology>
            <feFlood flood-color="#ff0000" flood-opacity="0.5" result="PINK"></feFlood>
            <feComposite in="PINK" in2="DILATED" operator="in" result="OUTLINE"></feComposite>
            <feMerge>
                <feMergeNode in="OUTLINE"></feMergeNode>
                <feMergeNode in="SourceGraphic"></feMergeNode>
            </feMerge>
            <feColorMatrix type="matrix"
                           values="0   0   0   0   0                0   1   0   0   0                0   0   0   0   0                0   0   0   1   0 "></feColorMatrix>
        </filter>
    </defs>
</svg>